%TF.GenerationSoftware,KiCad,Pcbnew,8.0.2*%
%TF.CreationDate,2024-05-15T15:04:27-04:00*%
%TF.ProjectId,stargazer,73746172-6761-47a6-9572-2e6b69636164,rev?*%
%TF.SameCoordinates,Original*%
%TF.FileFunction,Paste,Top*%
%TF.FilePolarity,Positive*%
%FSLAX46Y46*%
G04 Gerber Fmt 4.6, Leading zero omitted, Abs format (unit mm)*
G04 Created by KiCad (PCBNEW 8.0.2) date 2024-05-15 15:04:27*
%MOMM*%
%LPD*%
G01*
G04 APERTURE LIST*
G04 Aperture macros list*
%AMRoundRect*
0 Rectangle with rounded corners*
0 $1 Rounding radius*
0 $2 $3 $4 $5 $6 $7 $8 $9 X,Y pos of 4 corners*
0 Add a 4 corners polygon primitive as box body*
4,1,4,$2,$3,$4,$5,$6,$7,$8,$9,$2,$3,0*
0 Add four circle primitives for the rounded corners*
1,1,$1+$1,$2,$3*
1,1,$1+$1,$4,$5*
1,1,$1+$1,$6,$7*
1,1,$1+$1,$8,$9*
0 Add four rect primitives between the rounded corners*
20,1,$1+$1,$2,$3,$4,$5,0*
20,1,$1+$1,$4,$5,$6,$7,0*
20,1,$1+$1,$6,$7,$8,$9,0*
20,1,$1+$1,$8,$9,$2,$3,0*%
G04 Aperture macros list end*
%ADD10R,0.700000X0.700000*%
%ADD11R,0.900000X1.500000*%
%ADD12RoundRect,0.135000X-0.135000X-0.185000X0.135000X-0.185000X0.135000X0.185000X-0.135000X0.185000X0*%
%ADD13RoundRect,0.317500X1.157500X0.317500X-1.157500X0.317500X-1.157500X-0.317500X1.157500X-0.317500X0*%
%ADD14RoundRect,0.140000X0.170000X-0.140000X0.170000X0.140000X-0.170000X0.140000X-0.170000X-0.140000X0*%
%ADD15RoundRect,0.140000X-0.140000X-0.170000X0.140000X-0.170000X0.140000X0.170000X-0.140000X0.170000X0*%
%ADD16RoundRect,0.135000X-0.185000X0.135000X-0.185000X-0.135000X0.185000X-0.135000X0.185000X0.135000X0*%
%ADD17RoundRect,0.135000X0.185000X-0.135000X0.185000X0.135000X-0.185000X0.135000X-0.185000X-0.135000X0*%
%ADD18RoundRect,0.140000X-0.170000X0.140000X-0.170000X-0.140000X0.170000X-0.140000X0.170000X0.140000X0*%
%ADD19RoundRect,0.150000X0.150000X-0.512500X0.150000X0.512500X-0.150000X0.512500X-0.150000X-0.512500X0*%
%ADD20R,2.500000X1.200000*%
%ADD21RoundRect,0.243750X0.456250X-0.243750X0.456250X0.243750X-0.456250X0.243750X-0.456250X-0.243750X0*%
%ADD22R,0.350000X0.375000*%
%ADD23R,0.375000X0.350000*%
%ADD24RoundRect,0.150000X0.650000X0.150000X-0.650000X0.150000X-0.650000X-0.150000X0.650000X-0.150000X0*%
%ADD25RoundRect,0.140000X0.140000X0.170000X-0.140000X0.170000X-0.140000X-0.170000X0.140000X-0.170000X0*%
%ADD26RoundRect,0.087500X0.225000X0.087500X-0.225000X0.087500X-0.225000X-0.087500X0.225000X-0.087500X0*%
%ADD27RoundRect,0.087500X0.087500X0.225000X-0.087500X0.225000X-0.087500X-0.225000X0.087500X-0.225000X0*%
%ADD28R,0.711200X1.600200*%
%ADD29R,1.193800X2.209800*%
%ADD30R,1.193800X1.800000*%
%ADD31R,1.600200X1.498600*%
%ADD32R,0.355600X0.850900*%
%ADD33R,3.500000X1.500000*%
%ADD34R,0.720000X0.580000*%
%ADD35R,0.580000X0.720000*%
%ADD36RoundRect,0.135000X0.135000X0.185000X-0.135000X0.185000X-0.135000X-0.185000X0.135000X-0.185000X0*%
%ADD37RoundRect,0.087500X-0.125000X-0.087500X0.125000X-0.087500X0.125000X0.087500X-0.125000X0.087500X0*%
%ADD38RoundRect,0.087500X-0.087500X-0.125000X0.087500X-0.125000X0.087500X0.125000X-0.087500X0.125000X0*%
%ADD39R,0.400000X1.350000*%
%ADD40R,1.600000X1.400000*%
%ADD41R,1.900000X1.900000*%
G04 APERTURE END LIST*
D10*
%TO.C,U1*%
X175110000Y-93410000D03*
X174010000Y-93410000D03*
X172910000Y-93410000D03*
X175110000Y-94510000D03*
X174010000Y-94510000D03*
X172910000Y-94510000D03*
X175110000Y-95610000D03*
X174010000Y-95610000D03*
X172910000Y-95610000D03*
D11*
X180210000Y-84800000D03*
X178710000Y-84800000D03*
X177210000Y-84800000D03*
X175710000Y-84800000D03*
X174210000Y-84800000D03*
X172710000Y-84800000D03*
X171210000Y-84800000D03*
X169710000Y-84800000D03*
X168210000Y-84800000D03*
X168210000Y-102300000D03*
X169710000Y-102300000D03*
X171210000Y-102300000D03*
X172710000Y-102300000D03*
X174210000Y-102300000D03*
X175710000Y-102300000D03*
X177210000Y-102300000D03*
X178710000Y-102300000D03*
X180210000Y-102300000D03*
%TD*%
D12*
%TO.C,R6*%
X154490000Y-96000000D03*
X155510000Y-96000000D03*
%TD*%
D13*
%TO.C,U9*%
X130325000Y-102900000D03*
X130325000Y-100900000D03*
X130325000Y-98900000D03*
X130325000Y-96900000D03*
X130325000Y-94900000D03*
X130325000Y-92900000D03*
X130325000Y-90900000D03*
X130325000Y-88900000D03*
X115275000Y-88900000D03*
X115275000Y-90900000D03*
X115275000Y-92900000D03*
X115275000Y-94900000D03*
X115275000Y-96900000D03*
X115275000Y-98900000D03*
X115275000Y-100900000D03*
X115275000Y-102900000D03*
%TD*%
D14*
%TO.C,C16*%
X112610000Y-96680000D03*
X112610000Y-95720000D03*
%TD*%
D15*
%TO.C,C18*%
X144870000Y-94100000D03*
X145830000Y-94100000D03*
%TD*%
D16*
%TO.C,R19*%
X139162500Y-95940000D03*
X139162500Y-96960000D03*
%TD*%
%TO.C,R3*%
X170260000Y-103985500D03*
X170260000Y-105005500D03*
%TD*%
D15*
%TO.C,C22*%
X135720000Y-103700000D03*
X136680000Y-103700000D03*
%TD*%
D17*
%TO.C,R18*%
X147200000Y-96797500D03*
X147200000Y-95777500D03*
%TD*%
D18*
%TO.C,C9*%
X161500000Y-97020000D03*
X161500000Y-97980000D03*
%TD*%
D16*
%TO.C,R16*%
X138034700Y-91490000D03*
X138034700Y-92510000D03*
%TD*%
D19*
%TO.C,U3*%
X168360000Y-108725000D03*
X169310000Y-108725000D03*
X170260000Y-108725000D03*
X170260000Y-106450000D03*
X169310000Y-106450000D03*
X168360000Y-106450000D03*
%TD*%
D16*
%TO.C,R13*%
X144034700Y-91506800D03*
X144034700Y-92526800D03*
%TD*%
D15*
%TO.C,C23*%
X146322500Y-100050000D03*
X147282500Y-100050000D03*
%TD*%
D20*
%TO.C,SW1*%
X138160000Y-112600000D03*
X138160000Y-110100000D03*
X138160000Y-107600000D03*
X132660000Y-112600000D03*
X132660000Y-110100000D03*
X132660000Y-107600000D03*
%TD*%
D17*
%TO.C,R8*%
X117200000Y-112410000D03*
X117200000Y-111390000D03*
%TD*%
D21*
%TO.C,D4*%
X128460000Y-112437500D03*
X128460000Y-110562500D03*
%TD*%
D12*
%TO.C,R9*%
X136890000Y-99900000D03*
X137910000Y-99900000D03*
%TD*%
D22*
%TO.C,U11*%
X137950000Y-101037500D03*
X137450000Y-101037500D03*
X136950000Y-101037500D03*
X136450000Y-101037500D03*
D23*
X136437500Y-101550000D03*
X136437500Y-102050000D03*
D22*
X136450000Y-102562500D03*
X136950000Y-102562500D03*
X137450000Y-102562500D03*
X137950000Y-102562500D03*
D23*
X137962500Y-102050000D03*
X137962500Y-101550000D03*
%TD*%
D17*
%TO.C,R10*%
X126800000Y-112400000D03*
X126800000Y-111380000D03*
%TD*%
D15*
%TO.C,C26*%
X135432500Y-94100000D03*
X136392500Y-94100000D03*
%TD*%
D19*
%TO.C,U2*%
X155510000Y-105375000D03*
X156460000Y-105375000D03*
X157410000Y-105375000D03*
X157410000Y-103100000D03*
X155510000Y-103100000D03*
%TD*%
D16*
%TO.C,R15*%
X139234700Y-91490000D03*
X139234700Y-92510000D03*
%TD*%
D14*
%TO.C,C15*%
X111410000Y-96680000D03*
X111410000Y-95720000D03*
%TD*%
D24*
%TO.C,U7*%
X126010000Y-81970000D03*
X126010000Y-80700000D03*
X126010000Y-79430000D03*
X126010000Y-78160000D03*
X118810000Y-78160000D03*
X118810000Y-79430000D03*
X118810000Y-80700000D03*
X118810000Y-81970000D03*
%TD*%
D17*
%TO.C,R7*%
X122200000Y-112400000D03*
X122200000Y-111380000D03*
%TD*%
D18*
%TO.C,C3*%
X158810000Y-102420000D03*
X158810000Y-103380000D03*
%TD*%
D25*
%TO.C,C24*%
X135992500Y-98300000D03*
X135032500Y-98300000D03*
%TD*%
D14*
%TO.C,C14*%
X128810000Y-79160000D03*
X128810000Y-78200000D03*
%TD*%
D26*
%TO.C,U13*%
X137962500Y-96950000D03*
X137962500Y-96450000D03*
X137962500Y-95950000D03*
X137962500Y-95450000D03*
D27*
X137300000Y-95287500D03*
X136800000Y-95287500D03*
X136300000Y-95287500D03*
D26*
X135637500Y-95450000D03*
X135637500Y-95950000D03*
X135637500Y-96450000D03*
X135637500Y-96950000D03*
D27*
X136300000Y-97112500D03*
X136800000Y-97112500D03*
X137300000Y-97112500D03*
%TD*%
D25*
%TO.C,C5*%
X178190000Y-83200000D03*
X177230000Y-83200000D03*
%TD*%
D14*
%TO.C,C4*%
X158810000Y-105380000D03*
X158810000Y-104420000D03*
%TD*%
D18*
%TO.C,C11*%
X149660000Y-84620000D03*
X149660000Y-85580000D03*
%TD*%
%TO.C,C8*%
X162500000Y-97020000D03*
X162500000Y-97980000D03*
%TD*%
D25*
%TO.C,C20*%
X138680000Y-103700000D03*
X137720000Y-103700000D03*
%TD*%
D14*
%TO.C,C21*%
X143562500Y-95780000D03*
X143562500Y-94820000D03*
%TD*%
D28*
%TO.C,J6*%
X138234707Y-89696799D03*
X139334708Y-89696799D03*
X140434708Y-89696799D03*
X141534709Y-89696799D03*
X142634709Y-89696799D03*
X143734709Y-89696799D03*
X144834710Y-89696799D03*
X145934710Y-89696799D03*
X147034710Y-89696799D03*
D29*
X148234700Y-78868246D03*
D30*
X148231602Y-88495404D03*
D31*
X133634616Y-88646096D03*
D29*
X132734700Y-78868246D03*
%TD*%
D32*
%TO.C,U5*%
X160910001Y-105299950D03*
X161560000Y-105299950D03*
X162209999Y-105299950D03*
X162209999Y-103026650D03*
X161560000Y-103026650D03*
X160910001Y-103026650D03*
%TD*%
D12*
%TO.C,R1*%
X155500000Y-101500000D03*
X156520000Y-101500000D03*
%TD*%
D32*
%TO.C,U4*%
X164110001Y-105226650D03*
X164760000Y-105226650D03*
X165409999Y-105226650D03*
X165409999Y-102953350D03*
X164760000Y-102953350D03*
X164110001Y-102953350D03*
%TD*%
D18*
%TO.C,C17*%
X141634700Y-91520000D03*
X141634700Y-92480000D03*
%TD*%
D25*
%TO.C,C1*%
X180190000Y-82200000D03*
X179230000Y-82200000D03*
%TD*%
D33*
%TO.C,J5*%
X111200000Y-88900000D03*
X111200000Y-86200000D03*
X111200000Y-91600000D03*
%TD*%
D25*
%TO.C,C25*%
X145692500Y-103725000D03*
X144732500Y-103725000D03*
%TD*%
D19*
%TO.C,U6*%
X163860000Y-98837500D03*
X164810000Y-98837500D03*
X165760000Y-98837500D03*
X165760000Y-96562500D03*
X163860000Y-96562500D03*
%TD*%
D34*
%TO.C,U8*%
X151310000Y-79875000D03*
X151310000Y-80725000D03*
X151310000Y-81775000D03*
X151310000Y-82625000D03*
X151310000Y-83675000D03*
X151310000Y-84525000D03*
X151310000Y-85575000D03*
X151310000Y-86425000D03*
X151310000Y-87475000D03*
X151310000Y-88325000D03*
X152310000Y-79875000D03*
X152310000Y-80725000D03*
X152310000Y-81775000D03*
X152310000Y-82625000D03*
X152310000Y-83675000D03*
X152310000Y-84525000D03*
X152310000Y-85575000D03*
X152310000Y-86425000D03*
X152310000Y-87475000D03*
X152310000Y-88325000D03*
D35*
X154185000Y-77000000D03*
X154185000Y-78000000D03*
X154185000Y-90200000D03*
X154185000Y-91200000D03*
X155035000Y-77000000D03*
X155035000Y-78000000D03*
X155035000Y-90200000D03*
X155035000Y-91200000D03*
X156085000Y-77000000D03*
X156085000Y-78000000D03*
X156085000Y-90200000D03*
X156085000Y-91200000D03*
X156935000Y-77000000D03*
X156935000Y-78000000D03*
X156935000Y-90200000D03*
X156935000Y-91200000D03*
X157985000Y-77000000D03*
X157985000Y-78000000D03*
X157985000Y-90200000D03*
X157985000Y-91200000D03*
X158835000Y-77000000D03*
X158835000Y-78000000D03*
X158835000Y-90200000D03*
X158835000Y-91200000D03*
X159885000Y-77000000D03*
X159885000Y-78000000D03*
X159885000Y-90200000D03*
X159885000Y-91200000D03*
X160735000Y-77000000D03*
X160735000Y-78000000D03*
X160735000Y-90200000D03*
X160735000Y-91200000D03*
X161785000Y-77000000D03*
X161785000Y-78000000D03*
X161785000Y-90200000D03*
X161785000Y-91200000D03*
X162635000Y-77000000D03*
X162635000Y-78000000D03*
X162635000Y-90200000D03*
X162635000Y-91200000D03*
D34*
X164510000Y-79875000D03*
X164510000Y-80725000D03*
X164510000Y-81775000D03*
X164510000Y-82625000D03*
X164510000Y-83675000D03*
X164510000Y-84525000D03*
X164510000Y-85575000D03*
X164510000Y-86425000D03*
X164510000Y-87475000D03*
X164510000Y-88325000D03*
X165510000Y-79875000D03*
X165510000Y-80725000D03*
X165510000Y-81775000D03*
X165510000Y-82625000D03*
X165510000Y-83675000D03*
X165510000Y-84525000D03*
X165510000Y-85575000D03*
X165510000Y-86425000D03*
X165510000Y-87475000D03*
X165510000Y-88325000D03*
%TD*%
D21*
%TO.C,D2*%
X118800000Y-112427500D03*
X118800000Y-110552500D03*
%TD*%
D25*
%TO.C,C2*%
X180190000Y-83200000D03*
X179230000Y-83200000D03*
%TD*%
D16*
%TO.C,R14*%
X140434700Y-91490000D03*
X140434700Y-92510000D03*
%TD*%
%TO.C,R11*%
X146434700Y-91506800D03*
X146434700Y-92526800D03*
%TD*%
%TO.C,R12*%
X145234700Y-91506800D03*
X145234700Y-92526800D03*
%TD*%
D15*
%TO.C,C6*%
X163780000Y-100262500D03*
X164740000Y-100262500D03*
%TD*%
%TO.C,C7*%
X163780000Y-101462500D03*
X164740000Y-101462500D03*
%TD*%
D14*
%TO.C,C12*%
X127560000Y-79160000D03*
X127560000Y-78200000D03*
%TD*%
D15*
%TO.C,C13*%
X160680000Y-75350000D03*
X161640000Y-75350000D03*
%TD*%
D14*
%TO.C,C27*%
X143612500Y-102555000D03*
X143612500Y-101595000D03*
%TD*%
D16*
%TO.C,R4*%
X168360000Y-103985500D03*
X168360000Y-105005500D03*
%TD*%
D36*
%TO.C,R2*%
X178220000Y-82200000D03*
X177200000Y-82200000D03*
%TD*%
D23*
%TO.C,U12*%
X144787500Y-101087500D03*
X144787500Y-101587500D03*
X144787500Y-102087500D03*
X144787500Y-102587500D03*
D22*
X145300000Y-102600000D03*
X145800000Y-102600000D03*
D23*
X146312500Y-102587500D03*
X146312500Y-102087500D03*
X146312500Y-101587500D03*
X146312500Y-101087500D03*
D22*
X145800000Y-101075000D03*
X145300000Y-101075000D03*
%TD*%
D21*
%TO.C,D1*%
X123860000Y-112437500D03*
X123860000Y-110562500D03*
%TD*%
D16*
%TO.C,R17*%
X147412500Y-101015000D03*
X147412500Y-102035000D03*
%TD*%
D18*
%TO.C,C19*%
X142834700Y-91520000D03*
X142834700Y-92480000D03*
%TD*%
D37*
%TO.C,U10*%
X144600000Y-95800000D03*
X144600000Y-96300000D03*
D38*
X144862500Y-96812500D03*
X145362500Y-96812500D03*
X145862500Y-96812500D03*
D37*
X146125000Y-96300000D03*
X146125000Y-95800000D03*
D38*
X145862500Y-95287500D03*
X145362500Y-95287500D03*
X144862500Y-95287500D03*
%TD*%
D12*
%TO.C,R5*%
X154490000Y-97500000D03*
X155510000Y-97500000D03*
%TD*%
D39*
%TO.C,J2*%
X168310000Y-111025000D03*
X168960000Y-111025000D03*
X169610000Y-111025000D03*
X170260000Y-111025000D03*
X170910000Y-111025000D03*
D40*
X166410000Y-111250000D03*
D41*
X168410000Y-113700000D03*
X170810000Y-113700000D03*
D40*
X172810000Y-111250000D03*
%TD*%
D14*
%TO.C,C10*%
X149660000Y-81830000D03*
X149660000Y-80870000D03*
%TD*%
M02*
