%TF.GenerationSoftware,KiCad,Pcbnew,8.0.2*%
%TF.CreationDate,2024-05-15T15:04:29-04:00*%
%TF.ProjectId,stargazer,73746172-6761-47a6-9572-2e6b69636164,rev?*%
%TF.SameCoordinates,Original*%
%TF.FileFunction,Drillmap*%
%TF.FilePolarity,Positive*%
%FSLAX45Y45*%
G04 Gerber Fmt 4.5, Leading zero omitted, Abs format (unit mm)*
G04 Created by KiCad (PCBNEW 8.0.2) date 2024-05-15 15:04:29*
%MOMM*%
%LPD*%
G01*
G04 APERTURE LIST*
%ADD10C,0.100000*%
%ADD11C,0.200000*%
G04 APERTURE END LIST*
D10*
X11251000Y-7430000D02*
X17751000Y-7430000D01*
X11251000Y-11505000D02*
G75*
G02*
X10901000Y-11155000I0J350000D01*
G01*
X17751000Y-7430000D02*
G75*
G02*
X18101000Y-7780000I0J-350000D01*
G01*
X18101000Y-11155000D02*
G75*
G02*
X17751000Y-11505000I-350000J0D01*
G01*
X18101000Y-7780000D02*
X18101000Y-11155000D01*
X10901000Y-11155000D02*
X10901000Y-7780000D01*
X17751000Y-11505000D02*
X11251000Y-11505000D01*
X10901000Y-7780000D02*
G75*
G02*
X11251000Y-7430000I350000J0D01*
G01*
D11*
D10*
X13693941Y-7820150D02*
X13793001Y-7919210D01*
X13793001Y-7820150D02*
X13693941Y-7919210D01*
X14493941Y-7820150D02*
X14593001Y-7919210D01*
X14593001Y-7820150D02*
X14493941Y-7919210D01*
D11*
X11156777Y-11821484D02*
X11156777Y-11621484D01*
X11156777Y-11621484D02*
X11204396Y-11621484D01*
X11204396Y-11621484D02*
X11232967Y-11631008D01*
X11232967Y-11631008D02*
X11252015Y-11650055D01*
X11252015Y-11650055D02*
X11261539Y-11669103D01*
X11261539Y-11669103D02*
X11271062Y-11707198D01*
X11271062Y-11707198D02*
X11271062Y-11735769D01*
X11271062Y-11735769D02*
X11261539Y-11773865D01*
X11261539Y-11773865D02*
X11252015Y-11792912D01*
X11252015Y-11792912D02*
X11232967Y-11811960D01*
X11232967Y-11811960D02*
X11204396Y-11821484D01*
X11204396Y-11821484D02*
X11156777Y-11821484D01*
X11356777Y-11821484D02*
X11356777Y-11688150D01*
X11356777Y-11726246D02*
X11366301Y-11707198D01*
X11366301Y-11707198D02*
X11375824Y-11697674D01*
X11375824Y-11697674D02*
X11394872Y-11688150D01*
X11394872Y-11688150D02*
X11413920Y-11688150D01*
X11480586Y-11821484D02*
X11480586Y-11688150D01*
X11480586Y-11621484D02*
X11471062Y-11631008D01*
X11471062Y-11631008D02*
X11480586Y-11640531D01*
X11480586Y-11640531D02*
X11490110Y-11631008D01*
X11490110Y-11631008D02*
X11480586Y-11621484D01*
X11480586Y-11621484D02*
X11480586Y-11640531D01*
X11604396Y-11821484D02*
X11585348Y-11811960D01*
X11585348Y-11811960D02*
X11575824Y-11792912D01*
X11575824Y-11792912D02*
X11575824Y-11621484D01*
X11709158Y-11821484D02*
X11690110Y-11811960D01*
X11690110Y-11811960D02*
X11680586Y-11792912D01*
X11680586Y-11792912D02*
X11680586Y-11621484D01*
X11937729Y-11821484D02*
X11937729Y-11621484D01*
X11937729Y-11621484D02*
X12004396Y-11764341D01*
X12004396Y-11764341D02*
X12071062Y-11621484D01*
X12071062Y-11621484D02*
X12071062Y-11821484D01*
X12252015Y-11821484D02*
X12252015Y-11716722D01*
X12252015Y-11716722D02*
X12242491Y-11697674D01*
X12242491Y-11697674D02*
X12223443Y-11688150D01*
X12223443Y-11688150D02*
X12185348Y-11688150D01*
X12185348Y-11688150D02*
X12166301Y-11697674D01*
X12252015Y-11811960D02*
X12232967Y-11821484D01*
X12232967Y-11821484D02*
X12185348Y-11821484D01*
X12185348Y-11821484D02*
X12166301Y-11811960D01*
X12166301Y-11811960D02*
X12156777Y-11792912D01*
X12156777Y-11792912D02*
X12156777Y-11773865D01*
X12156777Y-11773865D02*
X12166301Y-11754817D01*
X12166301Y-11754817D02*
X12185348Y-11745293D01*
X12185348Y-11745293D02*
X12232967Y-11745293D01*
X12232967Y-11745293D02*
X12252015Y-11735769D01*
X12347253Y-11688150D02*
X12347253Y-11888150D01*
X12347253Y-11697674D02*
X12366301Y-11688150D01*
X12366301Y-11688150D02*
X12404396Y-11688150D01*
X12404396Y-11688150D02*
X12423443Y-11697674D01*
X12423443Y-11697674D02*
X12432967Y-11707198D01*
X12432967Y-11707198D02*
X12442491Y-11726246D01*
X12442491Y-11726246D02*
X12442491Y-11783388D01*
X12442491Y-11783388D02*
X12432967Y-11802436D01*
X12432967Y-11802436D02*
X12423443Y-11811960D01*
X12423443Y-11811960D02*
X12404396Y-11821484D01*
X12404396Y-11821484D02*
X12366301Y-11821484D01*
X12366301Y-11821484D02*
X12347253Y-11811960D01*
X12528205Y-11802436D02*
X12537729Y-11811960D01*
X12537729Y-11811960D02*
X12528205Y-11821484D01*
X12528205Y-11821484D02*
X12518682Y-11811960D01*
X12518682Y-11811960D02*
X12528205Y-11802436D01*
X12528205Y-11802436D02*
X12528205Y-11821484D01*
X12528205Y-11697674D02*
X12537729Y-11707198D01*
X12537729Y-11707198D02*
X12528205Y-11716722D01*
X12528205Y-11716722D02*
X12518682Y-11707198D01*
X12518682Y-11707198D02*
X12528205Y-11697674D01*
X12528205Y-11697674D02*
X12528205Y-11716722D01*
D10*
X10796940Y-12100470D02*
X10896000Y-12199530D01*
X10896000Y-12100470D02*
X10796940Y-12199530D01*
D11*
X11194872Y-12041484D02*
X11213920Y-12041484D01*
X11213920Y-12041484D02*
X11232967Y-12051008D01*
X11232967Y-12051008D02*
X11242491Y-12060531D01*
X11242491Y-12060531D02*
X11252015Y-12079579D01*
X11252015Y-12079579D02*
X11261539Y-12117674D01*
X11261539Y-12117674D02*
X11261539Y-12165293D01*
X11261539Y-12165293D02*
X11252015Y-12203388D01*
X11252015Y-12203388D02*
X11242491Y-12222436D01*
X11242491Y-12222436D02*
X11232967Y-12231960D01*
X11232967Y-12231960D02*
X11213920Y-12241484D01*
X11213920Y-12241484D02*
X11194872Y-12241484D01*
X11194872Y-12241484D02*
X11175824Y-12231960D01*
X11175824Y-12231960D02*
X11166301Y-12222436D01*
X11166301Y-12222436D02*
X11156777Y-12203388D01*
X11156777Y-12203388D02*
X11147253Y-12165293D01*
X11147253Y-12165293D02*
X11147253Y-12117674D01*
X11147253Y-12117674D02*
X11156777Y-12079579D01*
X11156777Y-12079579D02*
X11166301Y-12060531D01*
X11166301Y-12060531D02*
X11175824Y-12051008D01*
X11175824Y-12051008D02*
X11194872Y-12041484D01*
X11347253Y-12222436D02*
X11356777Y-12231960D01*
X11356777Y-12231960D02*
X11347253Y-12241484D01*
X11347253Y-12241484D02*
X11337729Y-12231960D01*
X11337729Y-12231960D02*
X11347253Y-12222436D01*
X11347253Y-12222436D02*
X11347253Y-12241484D01*
X11452015Y-12241484D02*
X11490110Y-12241484D01*
X11490110Y-12241484D02*
X11509158Y-12231960D01*
X11509158Y-12231960D02*
X11518682Y-12222436D01*
X11518682Y-12222436D02*
X11537729Y-12193865D01*
X11537729Y-12193865D02*
X11547253Y-12155769D01*
X11547253Y-12155769D02*
X11547253Y-12079579D01*
X11547253Y-12079579D02*
X11537729Y-12060531D01*
X11537729Y-12060531D02*
X11528205Y-12051008D01*
X11528205Y-12051008D02*
X11509158Y-12041484D01*
X11509158Y-12041484D02*
X11471062Y-12041484D01*
X11471062Y-12041484D02*
X11452015Y-12051008D01*
X11452015Y-12051008D02*
X11442491Y-12060531D01*
X11442491Y-12060531D02*
X11432967Y-12079579D01*
X11432967Y-12079579D02*
X11432967Y-12127198D01*
X11432967Y-12127198D02*
X11442491Y-12146246D01*
X11442491Y-12146246D02*
X11452015Y-12155769D01*
X11452015Y-12155769D02*
X11471062Y-12165293D01*
X11471062Y-12165293D02*
X11509158Y-12165293D01*
X11509158Y-12165293D02*
X11528205Y-12155769D01*
X11528205Y-12155769D02*
X11537729Y-12146246D01*
X11537729Y-12146246D02*
X11547253Y-12127198D01*
X11642491Y-12241484D02*
X11680586Y-12241484D01*
X11680586Y-12241484D02*
X11699634Y-12231960D01*
X11699634Y-12231960D02*
X11709158Y-12222436D01*
X11709158Y-12222436D02*
X11728205Y-12193865D01*
X11728205Y-12193865D02*
X11737729Y-12155769D01*
X11737729Y-12155769D02*
X11737729Y-12079579D01*
X11737729Y-12079579D02*
X11728205Y-12060531D01*
X11728205Y-12060531D02*
X11718682Y-12051008D01*
X11718682Y-12051008D02*
X11699634Y-12041484D01*
X11699634Y-12041484D02*
X11661539Y-12041484D01*
X11661539Y-12041484D02*
X11642491Y-12051008D01*
X11642491Y-12051008D02*
X11632967Y-12060531D01*
X11632967Y-12060531D02*
X11623443Y-12079579D01*
X11623443Y-12079579D02*
X11623443Y-12127198D01*
X11623443Y-12127198D02*
X11632967Y-12146246D01*
X11632967Y-12146246D02*
X11642491Y-12155769D01*
X11642491Y-12155769D02*
X11661539Y-12165293D01*
X11661539Y-12165293D02*
X11699634Y-12165293D01*
X11699634Y-12165293D02*
X11718682Y-12155769D01*
X11718682Y-12155769D02*
X11728205Y-12146246D01*
X11728205Y-12146246D02*
X11737729Y-12127198D01*
X11928205Y-12241484D02*
X11813920Y-12241484D01*
X11871062Y-12241484D02*
X11871062Y-12041484D01*
X11871062Y-12041484D02*
X11852015Y-12070055D01*
X11852015Y-12070055D02*
X11832967Y-12089103D01*
X11832967Y-12089103D02*
X11813920Y-12098627D01*
X12013920Y-12241484D02*
X12013920Y-12108150D01*
X12013920Y-12127198D02*
X12023443Y-12117674D01*
X12023443Y-12117674D02*
X12042491Y-12108150D01*
X12042491Y-12108150D02*
X12071063Y-12108150D01*
X12071063Y-12108150D02*
X12090110Y-12117674D01*
X12090110Y-12117674D02*
X12099634Y-12136722D01*
X12099634Y-12136722D02*
X12099634Y-12241484D01*
X12099634Y-12136722D02*
X12109158Y-12117674D01*
X12109158Y-12117674D02*
X12128205Y-12108150D01*
X12128205Y-12108150D02*
X12156777Y-12108150D01*
X12156777Y-12108150D02*
X12175824Y-12117674D01*
X12175824Y-12117674D02*
X12185348Y-12136722D01*
X12185348Y-12136722D02*
X12185348Y-12241484D01*
X12280586Y-12241484D02*
X12280586Y-12108150D01*
X12280586Y-12127198D02*
X12290110Y-12117674D01*
X12290110Y-12117674D02*
X12309158Y-12108150D01*
X12309158Y-12108150D02*
X12337729Y-12108150D01*
X12337729Y-12108150D02*
X12356777Y-12117674D01*
X12356777Y-12117674D02*
X12366301Y-12136722D01*
X12366301Y-12136722D02*
X12366301Y-12241484D01*
X12366301Y-12136722D02*
X12375824Y-12117674D01*
X12375824Y-12117674D02*
X12394872Y-12108150D01*
X12394872Y-12108150D02*
X12423443Y-12108150D01*
X12423443Y-12108150D02*
X12442491Y-12117674D01*
X12442491Y-12117674D02*
X12452015Y-12136722D01*
X12452015Y-12136722D02*
X12452015Y-12241484D01*
X12842491Y-12031960D02*
X12671063Y-12289103D01*
X13099634Y-12041484D02*
X13118682Y-12041484D01*
X13118682Y-12041484D02*
X13137729Y-12051008D01*
X13137729Y-12051008D02*
X13147253Y-12060531D01*
X13147253Y-12060531D02*
X13156777Y-12079579D01*
X13156777Y-12079579D02*
X13166301Y-12117674D01*
X13166301Y-12117674D02*
X13166301Y-12165293D01*
X13166301Y-12165293D02*
X13156777Y-12203388D01*
X13156777Y-12203388D02*
X13147253Y-12222436D01*
X13147253Y-12222436D02*
X13137729Y-12231960D01*
X13137729Y-12231960D02*
X13118682Y-12241484D01*
X13118682Y-12241484D02*
X13099634Y-12241484D01*
X13099634Y-12241484D02*
X13080586Y-12231960D01*
X13080586Y-12231960D02*
X13071063Y-12222436D01*
X13071063Y-12222436D02*
X13061539Y-12203388D01*
X13061539Y-12203388D02*
X13052015Y-12165293D01*
X13052015Y-12165293D02*
X13052015Y-12117674D01*
X13052015Y-12117674D02*
X13061539Y-12079579D01*
X13061539Y-12079579D02*
X13071063Y-12060531D01*
X13071063Y-12060531D02*
X13080586Y-12051008D01*
X13080586Y-12051008D02*
X13099634Y-12041484D01*
X13252015Y-12222436D02*
X13261539Y-12231960D01*
X13261539Y-12231960D02*
X13252015Y-12241484D01*
X13252015Y-12241484D02*
X13242491Y-12231960D01*
X13242491Y-12231960D02*
X13252015Y-12222436D01*
X13252015Y-12222436D02*
X13252015Y-12241484D01*
X13385348Y-12041484D02*
X13404396Y-12041484D01*
X13404396Y-12041484D02*
X13423444Y-12051008D01*
X13423444Y-12051008D02*
X13432967Y-12060531D01*
X13432967Y-12060531D02*
X13442491Y-12079579D01*
X13442491Y-12079579D02*
X13452015Y-12117674D01*
X13452015Y-12117674D02*
X13452015Y-12165293D01*
X13452015Y-12165293D02*
X13442491Y-12203388D01*
X13442491Y-12203388D02*
X13432967Y-12222436D01*
X13432967Y-12222436D02*
X13423444Y-12231960D01*
X13423444Y-12231960D02*
X13404396Y-12241484D01*
X13404396Y-12241484D02*
X13385348Y-12241484D01*
X13385348Y-12241484D02*
X13366301Y-12231960D01*
X13366301Y-12231960D02*
X13356777Y-12222436D01*
X13356777Y-12222436D02*
X13347253Y-12203388D01*
X13347253Y-12203388D02*
X13337729Y-12165293D01*
X13337729Y-12165293D02*
X13337729Y-12117674D01*
X13337729Y-12117674D02*
X13347253Y-12079579D01*
X13347253Y-12079579D02*
X13356777Y-12060531D01*
X13356777Y-12060531D02*
X13366301Y-12051008D01*
X13366301Y-12051008D02*
X13385348Y-12041484D01*
X13518682Y-12041484D02*
X13642491Y-12041484D01*
X13642491Y-12041484D02*
X13575825Y-12117674D01*
X13575825Y-12117674D02*
X13604396Y-12117674D01*
X13604396Y-12117674D02*
X13623444Y-12127198D01*
X13623444Y-12127198D02*
X13632967Y-12136722D01*
X13632967Y-12136722D02*
X13642491Y-12155769D01*
X13642491Y-12155769D02*
X13642491Y-12203388D01*
X13642491Y-12203388D02*
X13632967Y-12222436D01*
X13632967Y-12222436D02*
X13623444Y-12231960D01*
X13623444Y-12231960D02*
X13604396Y-12241484D01*
X13604396Y-12241484D02*
X13547253Y-12241484D01*
X13547253Y-12241484D02*
X13528206Y-12231960D01*
X13528206Y-12231960D02*
X13518682Y-12222436D01*
X13737729Y-12241484D02*
X13775825Y-12241484D01*
X13775825Y-12241484D02*
X13794872Y-12231960D01*
X13794872Y-12231960D02*
X13804396Y-12222436D01*
X13804396Y-12222436D02*
X13823444Y-12193865D01*
X13823444Y-12193865D02*
X13832967Y-12155769D01*
X13832967Y-12155769D02*
X13832967Y-12079579D01*
X13832967Y-12079579D02*
X13823444Y-12060531D01*
X13823444Y-12060531D02*
X13813920Y-12051008D01*
X13813920Y-12051008D02*
X13794872Y-12041484D01*
X13794872Y-12041484D02*
X13756777Y-12041484D01*
X13756777Y-12041484D02*
X13737729Y-12051008D01*
X13737729Y-12051008D02*
X13728206Y-12060531D01*
X13728206Y-12060531D02*
X13718682Y-12079579D01*
X13718682Y-12079579D02*
X13718682Y-12127198D01*
X13718682Y-12127198D02*
X13728206Y-12146246D01*
X13728206Y-12146246D02*
X13737729Y-12155769D01*
X13737729Y-12155769D02*
X13756777Y-12165293D01*
X13756777Y-12165293D02*
X13794872Y-12165293D01*
X13794872Y-12165293D02*
X13813920Y-12155769D01*
X13813920Y-12155769D02*
X13823444Y-12146246D01*
X13823444Y-12146246D02*
X13832967Y-12127198D01*
X13956777Y-12041484D02*
X13975825Y-12041484D01*
X13975825Y-12041484D02*
X13994872Y-12051008D01*
X13994872Y-12051008D02*
X14004396Y-12060531D01*
X14004396Y-12060531D02*
X14013920Y-12079579D01*
X14013920Y-12079579D02*
X14023444Y-12117674D01*
X14023444Y-12117674D02*
X14023444Y-12165293D01*
X14023444Y-12165293D02*
X14013920Y-12203388D01*
X14013920Y-12203388D02*
X14004396Y-12222436D01*
X14004396Y-12222436D02*
X13994872Y-12231960D01*
X13994872Y-12231960D02*
X13975825Y-12241484D01*
X13975825Y-12241484D02*
X13956777Y-12241484D01*
X13956777Y-12241484D02*
X13937729Y-12231960D01*
X13937729Y-12231960D02*
X13928206Y-12222436D01*
X13928206Y-12222436D02*
X13918682Y-12203388D01*
X13918682Y-12203388D02*
X13909158Y-12165293D01*
X13909158Y-12165293D02*
X13909158Y-12117674D01*
X13909158Y-12117674D02*
X13918682Y-12079579D01*
X13918682Y-12079579D02*
X13928206Y-12060531D01*
X13928206Y-12060531D02*
X13937729Y-12051008D01*
X13937729Y-12051008D02*
X13956777Y-12041484D01*
X14099634Y-12041484D02*
X14099634Y-12079579D01*
X14175825Y-12041484D02*
X14175825Y-12079579D01*
X14471063Y-12317674D02*
X14461539Y-12308150D01*
X14461539Y-12308150D02*
X14442491Y-12279579D01*
X14442491Y-12279579D02*
X14432968Y-12260531D01*
X14432968Y-12260531D02*
X14423444Y-12231960D01*
X14423444Y-12231960D02*
X14413920Y-12184341D01*
X14413920Y-12184341D02*
X14413920Y-12146246D01*
X14413920Y-12146246D02*
X14423444Y-12098627D01*
X14423444Y-12098627D02*
X14432968Y-12070055D01*
X14432968Y-12070055D02*
X14442491Y-12051008D01*
X14442491Y-12051008D02*
X14461539Y-12022436D01*
X14461539Y-12022436D02*
X14471063Y-12012912D01*
X14537729Y-12060531D02*
X14547253Y-12051008D01*
X14547253Y-12051008D02*
X14566301Y-12041484D01*
X14566301Y-12041484D02*
X14613920Y-12041484D01*
X14613920Y-12041484D02*
X14632968Y-12051008D01*
X14632968Y-12051008D02*
X14642491Y-12060531D01*
X14642491Y-12060531D02*
X14652015Y-12079579D01*
X14652015Y-12079579D02*
X14652015Y-12098627D01*
X14652015Y-12098627D02*
X14642491Y-12127198D01*
X14642491Y-12127198D02*
X14528206Y-12241484D01*
X14528206Y-12241484D02*
X14652015Y-12241484D01*
X14890110Y-12241484D02*
X14890110Y-12041484D01*
X14975825Y-12241484D02*
X14975825Y-12136722D01*
X14975825Y-12136722D02*
X14966301Y-12117674D01*
X14966301Y-12117674D02*
X14947253Y-12108150D01*
X14947253Y-12108150D02*
X14918682Y-12108150D01*
X14918682Y-12108150D02*
X14899634Y-12117674D01*
X14899634Y-12117674D02*
X14890110Y-12127198D01*
X15099634Y-12241484D02*
X15080587Y-12231960D01*
X15080587Y-12231960D02*
X15071063Y-12222436D01*
X15071063Y-12222436D02*
X15061539Y-12203388D01*
X15061539Y-12203388D02*
X15061539Y-12146246D01*
X15061539Y-12146246D02*
X15071063Y-12127198D01*
X15071063Y-12127198D02*
X15080587Y-12117674D01*
X15080587Y-12117674D02*
X15099634Y-12108150D01*
X15099634Y-12108150D02*
X15128206Y-12108150D01*
X15128206Y-12108150D02*
X15147253Y-12117674D01*
X15147253Y-12117674D02*
X15156777Y-12127198D01*
X15156777Y-12127198D02*
X15166301Y-12146246D01*
X15166301Y-12146246D02*
X15166301Y-12203388D01*
X15166301Y-12203388D02*
X15156777Y-12222436D01*
X15156777Y-12222436D02*
X15147253Y-12231960D01*
X15147253Y-12231960D02*
X15128206Y-12241484D01*
X15128206Y-12241484D02*
X15099634Y-12241484D01*
X15280587Y-12241484D02*
X15261539Y-12231960D01*
X15261539Y-12231960D02*
X15252015Y-12212912D01*
X15252015Y-12212912D02*
X15252015Y-12041484D01*
X15432968Y-12231960D02*
X15413920Y-12241484D01*
X15413920Y-12241484D02*
X15375825Y-12241484D01*
X15375825Y-12241484D02*
X15356777Y-12231960D01*
X15356777Y-12231960D02*
X15347253Y-12212912D01*
X15347253Y-12212912D02*
X15347253Y-12136722D01*
X15347253Y-12136722D02*
X15356777Y-12117674D01*
X15356777Y-12117674D02*
X15375825Y-12108150D01*
X15375825Y-12108150D02*
X15413920Y-12108150D01*
X15413920Y-12108150D02*
X15432968Y-12117674D01*
X15432968Y-12117674D02*
X15442491Y-12136722D01*
X15442491Y-12136722D02*
X15442491Y-12155769D01*
X15442491Y-12155769D02*
X15347253Y-12174817D01*
X15518682Y-12231960D02*
X15537730Y-12241484D01*
X15537730Y-12241484D02*
X15575825Y-12241484D01*
X15575825Y-12241484D02*
X15594872Y-12231960D01*
X15594872Y-12231960D02*
X15604396Y-12212912D01*
X15604396Y-12212912D02*
X15604396Y-12203388D01*
X15604396Y-12203388D02*
X15594872Y-12184341D01*
X15594872Y-12184341D02*
X15575825Y-12174817D01*
X15575825Y-12174817D02*
X15547253Y-12174817D01*
X15547253Y-12174817D02*
X15528206Y-12165293D01*
X15528206Y-12165293D02*
X15518682Y-12146246D01*
X15518682Y-12146246D02*
X15518682Y-12136722D01*
X15518682Y-12136722D02*
X15528206Y-12117674D01*
X15528206Y-12117674D02*
X15547253Y-12108150D01*
X15547253Y-12108150D02*
X15575825Y-12108150D01*
X15575825Y-12108150D02*
X15594872Y-12117674D01*
X15671063Y-12317674D02*
X15680587Y-12308150D01*
X15680587Y-12308150D02*
X15699634Y-12279579D01*
X15699634Y-12279579D02*
X15709158Y-12260531D01*
X15709158Y-12260531D02*
X15718682Y-12231960D01*
X15718682Y-12231960D02*
X15728206Y-12184341D01*
X15728206Y-12184341D02*
X15728206Y-12146246D01*
X15728206Y-12146246D02*
X15718682Y-12098627D01*
X15718682Y-12098627D02*
X15709158Y-12070055D01*
X15709158Y-12070055D02*
X15699634Y-12051008D01*
X15699634Y-12051008D02*
X15680587Y-12022436D01*
X15680587Y-12022436D02*
X15671063Y-12012912D01*
X16032968Y-12317674D02*
X16023444Y-12308150D01*
X16023444Y-12308150D02*
X16004396Y-12279579D01*
X16004396Y-12279579D02*
X15994872Y-12260531D01*
X15994872Y-12260531D02*
X15985349Y-12231960D01*
X15985349Y-12231960D02*
X15975825Y-12184341D01*
X15975825Y-12184341D02*
X15975825Y-12146246D01*
X15975825Y-12146246D02*
X15985349Y-12098627D01*
X15985349Y-12098627D02*
X15994872Y-12070055D01*
X15994872Y-12070055D02*
X16004396Y-12051008D01*
X16004396Y-12051008D02*
X16023444Y-12022436D01*
X16023444Y-12022436D02*
X16032968Y-12012912D01*
X16109158Y-12108150D02*
X16109158Y-12241484D01*
X16109158Y-12127198D02*
X16118682Y-12117674D01*
X16118682Y-12117674D02*
X16137730Y-12108150D01*
X16137730Y-12108150D02*
X16166301Y-12108150D01*
X16166301Y-12108150D02*
X16185349Y-12117674D01*
X16185349Y-12117674D02*
X16194872Y-12136722D01*
X16194872Y-12136722D02*
X16194872Y-12241484D01*
X16318682Y-12241484D02*
X16299634Y-12231960D01*
X16299634Y-12231960D02*
X16290111Y-12222436D01*
X16290111Y-12222436D02*
X16280587Y-12203388D01*
X16280587Y-12203388D02*
X16280587Y-12146246D01*
X16280587Y-12146246D02*
X16290111Y-12127198D01*
X16290111Y-12127198D02*
X16299634Y-12117674D01*
X16299634Y-12117674D02*
X16318682Y-12108150D01*
X16318682Y-12108150D02*
X16347253Y-12108150D01*
X16347253Y-12108150D02*
X16366301Y-12117674D01*
X16366301Y-12117674D02*
X16375825Y-12127198D01*
X16375825Y-12127198D02*
X16385349Y-12146246D01*
X16385349Y-12146246D02*
X16385349Y-12203388D01*
X16385349Y-12203388D02*
X16375825Y-12222436D01*
X16375825Y-12222436D02*
X16366301Y-12231960D01*
X16366301Y-12231960D02*
X16347253Y-12241484D01*
X16347253Y-12241484D02*
X16318682Y-12241484D01*
X16442492Y-12108150D02*
X16518682Y-12108150D01*
X16471063Y-12041484D02*
X16471063Y-12212912D01*
X16471063Y-12212912D02*
X16480587Y-12231960D01*
X16480587Y-12231960D02*
X16499634Y-12241484D01*
X16499634Y-12241484D02*
X16518682Y-12241484D01*
X16737730Y-12108150D02*
X16737730Y-12308150D01*
X16737730Y-12117674D02*
X16756777Y-12108150D01*
X16756777Y-12108150D02*
X16794873Y-12108150D01*
X16794873Y-12108150D02*
X16813920Y-12117674D01*
X16813920Y-12117674D02*
X16823444Y-12127198D01*
X16823444Y-12127198D02*
X16832968Y-12146246D01*
X16832968Y-12146246D02*
X16832968Y-12203388D01*
X16832968Y-12203388D02*
X16823444Y-12222436D01*
X16823444Y-12222436D02*
X16813920Y-12231960D01*
X16813920Y-12231960D02*
X16794873Y-12241484D01*
X16794873Y-12241484D02*
X16756777Y-12241484D01*
X16756777Y-12241484D02*
X16737730Y-12231960D01*
X16947254Y-12241484D02*
X16928206Y-12231960D01*
X16928206Y-12231960D02*
X16918682Y-12212912D01*
X16918682Y-12212912D02*
X16918682Y-12041484D01*
X17109158Y-12241484D02*
X17109158Y-12136722D01*
X17109158Y-12136722D02*
X17099635Y-12117674D01*
X17099635Y-12117674D02*
X17080587Y-12108150D01*
X17080587Y-12108150D02*
X17042492Y-12108150D01*
X17042492Y-12108150D02*
X17023444Y-12117674D01*
X17109158Y-12231960D02*
X17090111Y-12241484D01*
X17090111Y-12241484D02*
X17042492Y-12241484D01*
X17042492Y-12241484D02*
X17023444Y-12231960D01*
X17023444Y-12231960D02*
X17013920Y-12212912D01*
X17013920Y-12212912D02*
X17013920Y-12193865D01*
X17013920Y-12193865D02*
X17023444Y-12174817D01*
X17023444Y-12174817D02*
X17042492Y-12165293D01*
X17042492Y-12165293D02*
X17090111Y-12165293D01*
X17090111Y-12165293D02*
X17109158Y-12155769D01*
X17175825Y-12108150D02*
X17252015Y-12108150D01*
X17204396Y-12041484D02*
X17204396Y-12212912D01*
X17204396Y-12212912D02*
X17213920Y-12231960D01*
X17213920Y-12231960D02*
X17232968Y-12241484D01*
X17232968Y-12241484D02*
X17252015Y-12241484D01*
X17394873Y-12231960D02*
X17375825Y-12241484D01*
X17375825Y-12241484D02*
X17337730Y-12241484D01*
X17337730Y-12241484D02*
X17318682Y-12231960D01*
X17318682Y-12231960D02*
X17309158Y-12212912D01*
X17309158Y-12212912D02*
X17309158Y-12136722D01*
X17309158Y-12136722D02*
X17318682Y-12117674D01*
X17318682Y-12117674D02*
X17337730Y-12108150D01*
X17337730Y-12108150D02*
X17375825Y-12108150D01*
X17375825Y-12108150D02*
X17394873Y-12117674D01*
X17394873Y-12117674D02*
X17404396Y-12136722D01*
X17404396Y-12136722D02*
X17404396Y-12155769D01*
X17404396Y-12155769D02*
X17309158Y-12174817D01*
X17575825Y-12241484D02*
X17575825Y-12041484D01*
X17575825Y-12231960D02*
X17556777Y-12241484D01*
X17556777Y-12241484D02*
X17518682Y-12241484D01*
X17518682Y-12241484D02*
X17499635Y-12231960D01*
X17499635Y-12231960D02*
X17490111Y-12222436D01*
X17490111Y-12222436D02*
X17480587Y-12203388D01*
X17480587Y-12203388D02*
X17480587Y-12146246D01*
X17480587Y-12146246D02*
X17490111Y-12127198D01*
X17490111Y-12127198D02*
X17499635Y-12117674D01*
X17499635Y-12117674D02*
X17518682Y-12108150D01*
X17518682Y-12108150D02*
X17556777Y-12108150D01*
X17556777Y-12108150D02*
X17575825Y-12117674D01*
X17652016Y-12317674D02*
X17661539Y-12308150D01*
X17661539Y-12308150D02*
X17680587Y-12279579D01*
X17680587Y-12279579D02*
X17690111Y-12260531D01*
X17690111Y-12260531D02*
X17699635Y-12231960D01*
X17699635Y-12231960D02*
X17709158Y-12184341D01*
X17709158Y-12184341D02*
X17709158Y-12146246D01*
X17709158Y-12146246D02*
X17699635Y-12098627D01*
X17699635Y-12098627D02*
X17690111Y-12070055D01*
X17690111Y-12070055D02*
X17680587Y-12051008D01*
X17680587Y-12051008D02*
X17661539Y-12022436D01*
X17661539Y-12022436D02*
X17652016Y-12012912D01*
M02*
