%TF.GenerationSoftware,KiCad,Pcbnew,8.0.2*%
%TF.CreationDate,2024-05-15T15:04:26-04:00*%
%TF.ProjectId,stargazer,73746172-6761-47a6-9572-2e6b69636164,rev?*%
%TF.SameCoordinates,Original*%
%TF.FileFunction,Copper,L2,Bot*%
%TF.FilePolarity,Positive*%
%FSLAX46Y46*%
G04 Gerber Fmt 4.6, Leading zero omitted, Abs format (unit mm)*
G04 Created by KiCad (PCBNEW 8.0.2) date 2024-05-15 15:04:26*
%MOMM*%
%LPD*%
G01*
G04 APERTURE LIST*
%TA.AperFunction,HeatsinkPad*%
%ADD10C,0.600000*%
%TD*%
%TA.AperFunction,ComponentPad*%
%ADD11R,1.950000X1.950000*%
%TD*%
%TA.AperFunction,ComponentPad*%
%ADD12C,1.950000*%
%TD*%
%TA.AperFunction,ComponentPad*%
%ADD13C,5.600000*%
%TD*%
%TA.AperFunction,ComponentPad*%
%ADD14R,1.700000X1.700000*%
%TD*%
%TA.AperFunction,ComponentPad*%
%ADD15O,1.700000X1.700000*%
%TD*%
%TA.AperFunction,SMDPad,CuDef*%
%ADD16R,3.500000X1.500000*%
%TD*%
%TA.AperFunction,ComponentPad*%
%ADD17O,0.900000X1.800000*%
%TD*%
%TA.AperFunction,ViaPad*%
%ADD18C,0.500000*%
%TD*%
%TA.AperFunction,Conductor*%
%ADD19C,0.500000*%
%TD*%
%TA.AperFunction,Conductor*%
%ADD20C,0.400000*%
%TD*%
%TA.AperFunction,Conductor*%
%ADD21C,0.250000*%
%TD*%
G04 APERTURE END LIST*
D10*
%TO.P,U1,19,GND*%
%TO.N,GND*%
X174560000Y-93410000D03*
X173460000Y-93410000D03*
X175110000Y-93960000D03*
X174010000Y-93960000D03*
X172910000Y-93960000D03*
X174560000Y-94510000D03*
X173460000Y-94510000D03*
X175110000Y-95060000D03*
X174010000Y-95060000D03*
X172910000Y-95060000D03*
X174560000Y-95610000D03*
X173460000Y-95610000D03*
%TD*%
D11*
%TO.P,J4,1,Pin_1*%
%TO.N,VDC*%
X144362500Y-110600000D03*
D12*
%TO.P,J4,2,Pin_2*%
%TO.N,VMUX*%
X149362500Y-110600000D03*
%TD*%
D13*
%TO.P,H2,1*%
%TO.N,N/C*%
X112510000Y-111550000D03*
%TD*%
%TO.P,H4,1*%
%TO.N,N/C*%
X177510000Y-111550000D03*
%TD*%
D11*
%TO.P,J1,1,Pin_1*%
%TO.N,GND*%
X156910000Y-110650000D03*
D12*
%TO.P,J1,2,Pin_2*%
%TO.N,+BATT*%
X161910000Y-110650000D03*
%TD*%
D13*
%TO.P,H3,1*%
%TO.N,N/C*%
X177510000Y-77800000D03*
%TD*%
D14*
%TO.P,J3,1,Pin_1*%
%TO.N,GND*%
X168860000Y-81775000D03*
D15*
%TO.P,J3,2,Pin_2*%
%TO.N,SCL*%
X171400000Y-81775000D03*
%TD*%
D16*
%TO.P,J5,2,Ext*%
%TO.N,GND*%
X111200000Y-86200000D03*
X111200000Y-91600000D03*
%TD*%
D17*
%TO.P,J2,6,Shield*%
%TO.N,unconnected-(J2-Shield-Pad6)*%
X166310000Y-113700000D03*
X172910000Y-113700000D03*
%TD*%
D13*
%TO.P,H1,1*%
%TO.N,N/C*%
X112510000Y-77800000D03*
%TD*%
D18*
%TO.N,*%
X156500000Y-80250000D03*
X156500000Y-84000000D03*
X154500000Y-84000000D03*
X158599033Y-85988164D03*
X156500000Y-82250000D03*
X154500000Y-86000000D03*
X158599033Y-82238164D03*
X154500000Y-82250000D03*
X160250000Y-88000000D03*
X158500000Y-80250000D03*
X154500000Y-88000000D03*
X162250000Y-88000000D03*
X158599033Y-87988164D03*
X160250000Y-86000000D03*
X160250000Y-82250000D03*
X158500000Y-84000000D03*
X154500000Y-80250000D03*
X162250000Y-80250000D03*
X162250000Y-84000000D03*
X160250000Y-80250000D03*
X162250000Y-86000000D03*
X156500000Y-88000000D03*
X160250000Y-84000000D03*
X162250000Y-82250000D03*
X156500000Y-86000000D03*
%TO.N,GND*%
X149250000Y-101500000D03*
X161550000Y-103050000D03*
X175000000Y-82550000D03*
X164450000Y-77650000D03*
X120000000Y-97100000D03*
X122250000Y-78250000D03*
X142700000Y-107950000D03*
X179500000Y-106850000D03*
X174250000Y-98000000D03*
X133050000Y-102000000D03*
X163750000Y-113500000D03*
X115900000Y-105950000D03*
X130200000Y-108150000D03*
X144450000Y-97750000D03*
X133800000Y-92100000D03*
X142850000Y-77850000D03*
X135450000Y-108400000D03*
X117750000Y-90000000D03*
X175500000Y-91000000D03*
X153500000Y-113200000D03*
X125500000Y-99850000D03*
X122000000Y-109000000D03*
X151750000Y-94000000D03*
X178750000Y-90750000D03*
X111550000Y-104700000D03*
X129000000Y-86300000D03*
X125500000Y-113000000D03*
X149850000Y-95650000D03*
X150500000Y-100000000D03*
X151900000Y-75050000D03*
X161750000Y-99250000D03*
X123800000Y-101100000D03*
X123100000Y-86400000D03*
X179250000Y-82250000D03*
X174050000Y-76000000D03*
X153000000Y-111500000D03*
X147300000Y-109400000D03*
X160450000Y-112900000D03*
X111000000Y-82400000D03*
X156700000Y-75100000D03*
X174600000Y-108250000D03*
X125500000Y-105250000D03*
X141950000Y-96600000D03*
X135850000Y-100450000D03*
X167700000Y-89000000D03*
X121500000Y-81900000D03*
X119650000Y-102900000D03*
X147000000Y-105000000D03*
X165100000Y-90350000D03*
X144950000Y-82700000D03*
X149350000Y-76000000D03*
X138750000Y-93750000D03*
X141250000Y-101750000D03*
X146750000Y-111250000D03*
X114350000Y-82800000D03*
X140750000Y-100750000D03*
X126250000Y-90000000D03*
X178750000Y-97500000D03*
X178750000Y-106500000D03*
X151500000Y-108000000D03*
X136500000Y-90250000D03*
X120500000Y-94900000D03*
X168050000Y-77750000D03*
X145500000Y-96000000D03*
X136100000Y-82450000D03*
X118500000Y-91500000D03*
X136400000Y-94100000D03*
X130750000Y-111500000D03*
X111250000Y-93750000D03*
X111400000Y-99100000D03*
X124050000Y-81750000D03*
X161750000Y-93750000D03*
X136350000Y-76250000D03*
X135050000Y-98300000D03*
X144050000Y-93800000D03*
X163700000Y-75100000D03*
X114000000Y-86750000D03*
X137250000Y-101750000D03*
X130750000Y-75750000D03*
X139850000Y-86100000D03*
X169350000Y-75150000D03*
%TO.N,+3V3*%
X161500000Y-97000000D03*
X162500000Y-97000000D03*
X155510000Y-97500000D03*
X149205502Y-89619000D03*
%TO.N,VBUS*%
X162209999Y-105148000D03*
X158810000Y-102420000D03*
%TO.N,LED_STATUS*%
X154750000Y-107000000D03*
X173100000Y-107000000D03*
%TO.N,SCL*%
X137700000Y-98450000D03*
X143350000Y-97250000D03*
X142400000Y-99950000D03*
X152850000Y-96100000D03*
%TO.N,MOSI*%
X140450000Y-91500000D03*
X158750000Y-94500000D03*
X130135000Y-98900000D03*
%TO.N,CS_SD*%
X139234700Y-91490000D03*
X168250000Y-102350000D03*
%TO.N,MISO*%
X145250000Y-91500000D03*
X158750000Y-96750000D03*
X130135000Y-100900000D03*
%TO.N,SCK*%
X144050000Y-91500000D03*
X158750000Y-99000000D03*
X130135000Y-96900000D03*
%TO.N,SDA*%
X160500000Y-93000000D03*
X160310000Y-90700000D03*
%TO.N,CS_FLASH*%
X172750000Y-84800000D03*
X126010000Y-81970000D03*
%TO.N,CS_LORA*%
X177300000Y-102250000D03*
X130135000Y-94900000D03*
%TO.N,RXD_GPS*%
X169710000Y-102300000D03*
X165000000Y-84000000D03*
%TO.N,TXD_GPS*%
X171210000Y-102300000D03*
X165000000Y-82250000D03*
%TO.N,LORA_RST*%
X178700000Y-102300000D03*
X130150000Y-92900000D03*
%TO.N,INT_LORA*%
X175710000Y-102300000D03*
X115150000Y-98900000D03*
%TD*%
D19*
%TO.N,+3V3*%
X157637000Y-99627000D02*
X155510000Y-97500000D01*
X161500000Y-96363288D02*
X161500000Y-97000000D01*
X159009712Y-99627000D02*
X157637000Y-99627000D01*
X154755712Y-89619000D02*
X161500000Y-96363288D01*
X162500000Y-97000000D02*
X161500000Y-97000000D01*
X161500000Y-97136712D02*
X159009712Y-99627000D01*
X149205502Y-89619000D02*
X154755712Y-89619000D01*
X161500000Y-97000000D02*
X161500000Y-97136712D01*
D20*
%TO.N,VBUS*%
X159481999Y-102420000D02*
X158810000Y-102420000D01*
X162209999Y-105148000D02*
X159481999Y-102420000D01*
D21*
%TO.N,LED_STATUS*%
X154750000Y-107000000D02*
X173100000Y-107000000D01*
%TO.N,SCL*%
X142150000Y-98450000D02*
X142150000Y-99700000D01*
X142150000Y-98450000D02*
X150500000Y-98450000D01*
X137700000Y-98450000D02*
X142150000Y-98450000D01*
X142150000Y-98450000D02*
X143350000Y-97250000D01*
X150500000Y-98450000D02*
X152850000Y-96100000D01*
X142150000Y-99700000D02*
X142400000Y-99950000D01*
D19*
%TO.N,MOSI*%
X129500000Y-96600000D02*
X129827000Y-96273000D01*
X129500000Y-98265000D02*
X129500000Y-96600000D01*
X129827000Y-96273000D02*
X138277000Y-96273000D01*
X140450000Y-94100000D02*
X140450000Y-91500000D01*
X154496000Y-90246000D02*
X158750000Y-94500000D01*
X140450000Y-91500000D02*
X141704000Y-90246000D01*
X138277000Y-96273000D02*
X140450000Y-94100000D01*
X130135000Y-98900000D02*
X129500000Y-98265000D01*
X141704000Y-90246000D02*
X154496000Y-90246000D01*
D21*
%TO.N,CS_SD*%
X168250000Y-102350000D02*
X167818000Y-101918000D01*
X158602064Y-101918000D02*
X157320064Y-103200000D01*
X128433158Y-105200000D02*
X127200000Y-103966842D01*
X157320064Y-103200000D02*
X132559936Y-103200000D01*
X134348000Y-95402000D02*
X138260000Y-91490000D01*
X127200000Y-96983158D02*
X128781158Y-95402000D01*
X138260000Y-91490000D02*
X139234700Y-91490000D01*
X127200000Y-103966842D02*
X127200000Y-96983158D01*
X167818000Y-101918000D02*
X158602064Y-101918000D01*
X132559936Y-103200000D02*
X130559936Y-105200000D01*
X130559936Y-105200000D02*
X128433158Y-105200000D01*
X128781158Y-95402000D02*
X134348000Y-95402000D01*
D19*
%TO.N,MISO*%
X130762000Y-100273000D02*
X130762000Y-98640288D01*
X130135000Y-100900000D02*
X130762000Y-100273000D01*
X130200000Y-98078288D02*
X130200000Y-97527000D01*
X153500000Y-91500000D02*
X145250000Y-91500000D01*
X130200000Y-97527000D02*
X139223000Y-97527000D01*
X130762000Y-98640288D02*
X130200000Y-98078288D01*
X158750000Y-96750000D02*
X153500000Y-91500000D01*
X139223000Y-97527000D02*
X145250000Y-91500000D01*
%TO.N,SCK*%
X144050000Y-91500000D02*
X144677000Y-90873000D01*
X144677000Y-90873000D02*
X153759712Y-90873000D01*
X130135000Y-96900000D02*
X138650000Y-96900000D01*
X153759712Y-90873000D02*
X159400000Y-96513288D01*
X159400000Y-98350000D02*
X158750000Y-99000000D01*
X138650000Y-96900000D02*
X144050000Y-91500000D01*
X159400000Y-96513288D02*
X159400000Y-98350000D01*
D20*
%TO.N,SDA*%
X160500000Y-90890000D02*
X160310000Y-90700000D01*
X160500000Y-93000000D02*
X160500000Y-90890000D01*
D21*
%TO.N,CS_FLASH*%
X163448000Y-75602000D02*
X156502000Y-75602000D01*
X170298000Y-82348000D02*
X170298000Y-81009000D01*
X156448000Y-75552000D02*
X149652000Y-75552000D01*
X156450000Y-75550000D02*
X156448000Y-75552000D01*
X149598000Y-75498000D02*
X138352000Y-75498000D01*
X163492064Y-75602000D02*
X163470032Y-75579968D01*
X163470032Y-75579968D02*
X163448000Y-75602000D01*
X149652000Y-75552000D02*
X149598000Y-75498000D01*
X170298000Y-81009000D02*
X164891000Y-75602000D01*
X156502000Y-75602000D02*
X156450000Y-75550000D01*
X172750000Y-84800000D02*
X170298000Y-82348000D01*
X138352000Y-75498000D02*
X131880000Y-81970000D01*
X131880000Y-81970000D02*
X126010000Y-81970000D01*
X164891000Y-75602000D02*
X163492064Y-75602000D01*
%TO.N,CS_LORA*%
X174266842Y-105650000D02*
X128350000Y-105650000D01*
X176812000Y-101762000D02*
X175538064Y-101762000D01*
X175208000Y-102092064D02*
X175208000Y-104708842D01*
X128750000Y-94900000D02*
X130135000Y-94900000D01*
X175208000Y-104708842D02*
X174266842Y-105650000D01*
X177300000Y-102250000D02*
X176812000Y-101762000D01*
X128350000Y-105650000D02*
X126600000Y-103900000D01*
X126600000Y-103900000D02*
X126600000Y-97050000D01*
X175538064Y-101762000D02*
X175208000Y-102092064D01*
X126600000Y-97050000D02*
X128750000Y-94900000D01*
D20*
%TO.N,RXD_GPS*%
X165000000Y-84000000D02*
X169710000Y-88710000D01*
X169710000Y-88710000D02*
X169710000Y-102300000D01*
%TO.N,TXD_GPS*%
X171210000Y-88460000D02*
X171210000Y-102300000D01*
X165000000Y-82250000D02*
X171210000Y-88460000D01*
D21*
%TO.N,LORA_RST*%
X114450000Y-98909936D02*
X122017064Y-106477000D01*
X122017064Y-106477000D02*
X174523000Y-106477000D01*
X120440064Y-92900000D02*
X114450000Y-98890064D01*
X114450000Y-98890064D02*
X114450000Y-98909936D01*
X174523000Y-106477000D02*
X178700000Y-102300000D01*
X114450000Y-98890064D02*
X114450000Y-98950000D01*
X130150000Y-92900000D02*
X120440064Y-92900000D01*
%TO.N,INT_LORA*%
X124300000Y-106100000D02*
X174350000Y-106100000D01*
X174350000Y-106100000D02*
X175710000Y-104740000D01*
X115150000Y-98900000D02*
X117100000Y-98900000D01*
X117100000Y-98900000D02*
X124300000Y-106100000D01*
X175710000Y-104740000D02*
X175710000Y-102300000D01*
%TD*%
%TA.AperFunction,Conductor*%
%TO.N,GND*%
G36*
X116960140Y-99295185D02*
G01*
X116980782Y-99311819D01*
X123558781Y-105889819D01*
X123592266Y-105951142D01*
X123587282Y-106020834D01*
X123545410Y-106076767D01*
X123479946Y-106101184D01*
X123471100Y-106101500D01*
X122223963Y-106101500D01*
X122156924Y-106081815D01*
X122136282Y-106065181D01*
X115558282Y-99487181D01*
X115524797Y-99425858D01*
X115529781Y-99356166D01*
X115571653Y-99300233D01*
X115637117Y-99275816D01*
X115645963Y-99275500D01*
X116893101Y-99275500D01*
X116960140Y-99295185D01*
G37*
%TD.AperFunction*%
%TA.AperFunction,Conductor*%
G36*
X158408975Y-102744639D02*
G01*
X158459353Y-102779617D01*
X158466774Y-102788181D01*
X158478872Y-102802143D01*
X158599947Y-102879953D01*
X158599950Y-102879954D01*
X158599949Y-102879954D01*
X158738036Y-102920499D01*
X158738038Y-102920500D01*
X158738039Y-102920500D01*
X158881962Y-102920500D01*
X158881962Y-102920499D01*
X158934797Y-102904985D01*
X159028563Y-102877455D01*
X159028995Y-102878926D01*
X159067727Y-102870500D01*
X159244034Y-102870500D01*
X159311073Y-102890185D01*
X159331715Y-102906819D01*
X161487714Y-105062819D01*
X161521199Y-105124142D01*
X161516215Y-105193834D01*
X161474343Y-105249767D01*
X161408879Y-105274184D01*
X161400033Y-105274500D01*
X131315835Y-105274500D01*
X131248796Y-105254815D01*
X131203041Y-105202011D01*
X131193097Y-105132853D01*
X131222122Y-105069297D01*
X131228154Y-105062819D01*
X132679154Y-103611819D01*
X132740477Y-103578334D01*
X132766835Y-103575500D01*
X157369499Y-103575500D01*
X157369500Y-103575500D01*
X157417250Y-103562705D01*
X157465002Y-103549910D01*
X157550626Y-103500475D01*
X157620539Y-103430562D01*
X157620538Y-103430562D01*
X157679107Y-103371993D01*
X158277961Y-102773138D01*
X158339283Y-102739655D01*
X158408975Y-102744639D01*
G37*
%TD.AperFunction*%
%TA.AperFunction,Conductor*%
G36*
X139892540Y-91595329D02*
G01*
X139938294Y-91648133D01*
X139949500Y-91699644D01*
X139949500Y-93841324D01*
X139929815Y-93908363D01*
X139913181Y-93929005D01*
X138106005Y-95736181D01*
X138044682Y-95769666D01*
X138018324Y-95772500D01*
X134807899Y-95772500D01*
X134740860Y-95752815D01*
X134695105Y-95700011D01*
X134685161Y-95630853D01*
X134714186Y-95567297D01*
X134720218Y-95560819D01*
X138379218Y-91901819D01*
X138440541Y-91868334D01*
X138466899Y-91865500D01*
X138856826Y-91865500D01*
X138923865Y-91885185D01*
X138923866Y-91885185D01*
X139024647Y-91949953D01*
X139024648Y-91949953D01*
X139024649Y-91949954D01*
X139162736Y-91990499D01*
X139162738Y-91990500D01*
X139162739Y-91990500D01*
X139306662Y-91990500D01*
X139306662Y-91990499D01*
X139444753Y-91949953D01*
X139565828Y-91872143D01*
X139660077Y-91763373D01*
X139712706Y-91648131D01*
X139758461Y-91595329D01*
X139825500Y-91575644D01*
X139892540Y-91595329D01*
G37*
%TD.AperFunction*%
%TA.AperFunction,Conductor*%
G36*
X176785235Y-74620185D02*
G01*
X176830990Y-74672989D01*
X176840934Y-74742147D01*
X176811909Y-74805703D01*
X176753131Y-74843477D01*
X176752530Y-74843652D01*
X176500896Y-74916147D01*
X176408184Y-74954549D01*
X176184353Y-75047263D01*
X175884478Y-75212998D01*
X175605040Y-75411269D01*
X175349573Y-75639570D01*
X175349570Y-75639573D01*
X175121269Y-75895040D01*
X174922998Y-76174478D01*
X174757263Y-76474353D01*
X174626146Y-76790899D01*
X174531297Y-77120124D01*
X174531295Y-77120133D01*
X174473905Y-77457906D01*
X174473903Y-77457918D01*
X174454693Y-77800000D01*
X174473903Y-78142081D01*
X174473905Y-78142093D01*
X174531295Y-78479866D01*
X174531297Y-78479875D01*
X174574049Y-78628268D01*
X174626147Y-78809104D01*
X174757264Y-79125648D01*
X174818949Y-79237258D01*
X174922998Y-79425521D01*
X175121269Y-79704959D01*
X175349570Y-79960426D01*
X175349573Y-79960429D01*
X175605040Y-80188730D01*
X175605046Y-80188734D01*
X175605047Y-80188735D01*
X175884479Y-80387002D01*
X176184352Y-80552736D01*
X176500896Y-80683853D01*
X176830130Y-80778704D01*
X177167914Y-80836096D01*
X177510000Y-80855307D01*
X177852086Y-80836096D01*
X178189870Y-80778704D01*
X178519104Y-80683853D01*
X178835648Y-80552736D01*
X179135521Y-80387002D01*
X179414953Y-80188735D01*
X179670428Y-79960428D01*
X179898735Y-79704953D01*
X180097002Y-79425521D01*
X180262736Y-79125648D01*
X180393853Y-78809104D01*
X180466346Y-78557474D01*
X180503820Y-78498505D01*
X180567227Y-78469157D01*
X180636435Y-78478747D01*
X180689472Y-78524232D01*
X180709498Y-78591171D01*
X180709500Y-78591803D01*
X180709500Y-110758196D01*
X180689815Y-110825235D01*
X180637011Y-110870990D01*
X180567853Y-110880934D01*
X180504297Y-110851909D01*
X180466523Y-110793131D01*
X180466346Y-110792524D01*
X180443729Y-110714019D01*
X180393853Y-110540896D01*
X180262736Y-110224352D01*
X180097002Y-109924479D01*
X179898735Y-109645047D01*
X179898734Y-109645046D01*
X179898730Y-109645040D01*
X179670429Y-109389573D01*
X179670426Y-109389570D01*
X179414959Y-109161269D01*
X179135521Y-108962998D01*
X178835646Y-108797263D01*
X178770087Y-108770108D01*
X178519104Y-108666147D01*
X178434479Y-108641766D01*
X178189875Y-108571297D01*
X178189866Y-108571295D01*
X177852093Y-108513905D01*
X177852081Y-108513903D01*
X177510000Y-108494693D01*
X177167918Y-108513903D01*
X177167906Y-108513905D01*
X176830133Y-108571295D01*
X176830124Y-108571297D01*
X176500899Y-108666146D01*
X176500896Y-108666147D01*
X176408184Y-108704549D01*
X176184353Y-108797263D01*
X175884478Y-108962998D01*
X175605040Y-109161269D01*
X175349573Y-109389570D01*
X175349570Y-109389573D01*
X175121269Y-109645040D01*
X174922998Y-109924478D01*
X174757263Y-110224353D01*
X174626146Y-110540899D01*
X174531297Y-110870124D01*
X174531295Y-110870133D01*
X174473905Y-111207906D01*
X174473903Y-111207918D01*
X174454693Y-111550000D01*
X174473903Y-111892081D01*
X174473905Y-111892093D01*
X174528805Y-112215213D01*
X174531296Y-112229870D01*
X174626147Y-112559104D01*
X174686946Y-112705885D01*
X174757263Y-112875646D01*
X174922998Y-113175521D01*
X175121269Y-113454959D01*
X175349570Y-113710426D01*
X175349573Y-113710429D01*
X175605040Y-113938730D01*
X175605046Y-113938734D01*
X175605047Y-113938735D01*
X175884479Y-114137002D01*
X176184352Y-114302736D01*
X176500896Y-114433853D01*
X176752524Y-114506346D01*
X176811494Y-114543820D01*
X176840842Y-114607227D01*
X176831252Y-114676436D01*
X176785767Y-114729472D01*
X176718828Y-114749498D01*
X176718196Y-114749500D01*
X173583899Y-114749500D01*
X173516860Y-114729815D01*
X173471105Y-114677011D01*
X173461161Y-114607853D01*
X173480797Y-114556609D01*
X173530771Y-114481817D01*
X173530771Y-114481816D01*
X173530775Y-114481811D01*
X173583580Y-114354328D01*
X173610500Y-114218993D01*
X173610500Y-113181007D01*
X173610500Y-113181004D01*
X173583581Y-113045677D01*
X173583580Y-113045676D01*
X173583580Y-113045672D01*
X173583578Y-113045667D01*
X173530778Y-112918195D01*
X173530771Y-112918182D01*
X173454114Y-112803458D01*
X173454111Y-112803454D01*
X173356545Y-112705888D01*
X173356541Y-112705885D01*
X173241817Y-112629228D01*
X173241804Y-112629221D01*
X173114332Y-112576421D01*
X173114322Y-112576418D01*
X172978995Y-112549500D01*
X172978993Y-112549500D01*
X172841007Y-112549500D01*
X172841005Y-112549500D01*
X172705677Y-112576418D01*
X172705667Y-112576421D01*
X172578195Y-112629221D01*
X172578182Y-112629228D01*
X172463458Y-112705885D01*
X172463454Y-112705888D01*
X172365888Y-112803454D01*
X172365885Y-112803458D01*
X172289228Y-112918182D01*
X172289221Y-112918195D01*
X172236421Y-113045667D01*
X172236418Y-113045677D01*
X172209500Y-113181004D01*
X172209500Y-113181007D01*
X172209500Y-114218993D01*
X172209500Y-114218995D01*
X172209499Y-114218995D01*
X172236418Y-114354322D01*
X172236421Y-114354332D01*
X172289221Y-114481804D01*
X172289228Y-114481817D01*
X172339203Y-114556609D01*
X172360081Y-114623286D01*
X172341597Y-114690667D01*
X172289618Y-114737357D01*
X172236101Y-114749500D01*
X166983899Y-114749500D01*
X166916860Y-114729815D01*
X166871105Y-114677011D01*
X166861161Y-114607853D01*
X166880797Y-114556609D01*
X166930771Y-114481817D01*
X166930771Y-114481816D01*
X166930775Y-114481811D01*
X166983580Y-114354328D01*
X167010500Y-114218993D01*
X167010500Y-113181007D01*
X167010500Y-113181004D01*
X166983581Y-113045677D01*
X166983580Y-113045676D01*
X166983580Y-113045672D01*
X166983578Y-113045667D01*
X166930778Y-112918195D01*
X166930771Y-112918182D01*
X166854114Y-112803458D01*
X166854111Y-112803454D01*
X166756545Y-112705888D01*
X166756541Y-112705885D01*
X166641817Y-112629228D01*
X166641804Y-112629221D01*
X166514332Y-112576421D01*
X166514322Y-112576418D01*
X166378995Y-112549500D01*
X166378993Y-112549500D01*
X166241007Y-112549500D01*
X166241005Y-112549500D01*
X166105677Y-112576418D01*
X166105667Y-112576421D01*
X165978195Y-112629221D01*
X165978182Y-112629228D01*
X165863458Y-112705885D01*
X165863454Y-112705888D01*
X165765888Y-112803454D01*
X165765885Y-112803458D01*
X165689228Y-112918182D01*
X165689221Y-112918195D01*
X165636421Y-113045667D01*
X165636418Y-113045677D01*
X165609500Y-113181004D01*
X165609500Y-113181007D01*
X165609500Y-114218993D01*
X165609500Y-114218995D01*
X165609499Y-114218995D01*
X165636418Y-114354322D01*
X165636421Y-114354332D01*
X165689221Y-114481804D01*
X165689228Y-114481817D01*
X165739203Y-114556609D01*
X165760081Y-114623286D01*
X165741597Y-114690667D01*
X165689618Y-114737357D01*
X165636101Y-114749500D01*
X113301804Y-114749500D01*
X113234765Y-114729815D01*
X113189010Y-114677011D01*
X113179066Y-114607853D01*
X113208091Y-114544297D01*
X113266869Y-114506523D01*
X113267476Y-114506346D01*
X113519104Y-114433853D01*
X113835648Y-114302736D01*
X114135521Y-114137002D01*
X114414953Y-113938735D01*
X114670428Y-113710428D01*
X114898735Y-113454953D01*
X115097002Y-113175521D01*
X115262736Y-112875648D01*
X115393853Y-112559104D01*
X115488704Y-112229870D01*
X115546096Y-111892086D01*
X115565307Y-111550000D01*
X115546096Y-111207914D01*
X115488704Y-110870130D01*
X115393853Y-110540896D01*
X115262736Y-110224352D01*
X115097002Y-109924479D01*
X114898735Y-109645047D01*
X114898734Y-109645046D01*
X114898730Y-109645040D01*
X114858766Y-109600321D01*
X143137000Y-109600321D01*
X143137000Y-111599678D01*
X143151532Y-111672735D01*
X143151533Y-111672739D01*
X143151534Y-111672740D01*
X143206899Y-111755601D01*
X143282313Y-111805990D01*
X143289760Y-111810966D01*
X143289764Y-111810967D01*
X143362821Y-111825499D01*
X143362824Y-111825500D01*
X143362826Y-111825500D01*
X145362176Y-111825500D01*
X145362177Y-111825499D01*
X145435240Y-111810966D01*
X145518101Y-111755601D01*
X145573466Y-111672740D01*
X145588000Y-111599674D01*
X145588000Y-110599998D01*
X148132319Y-110599998D01*
X148132319Y-110600001D01*
X148151007Y-110813613D01*
X148151009Y-110813624D01*
X148206505Y-111020739D01*
X148206507Y-111020743D01*
X148206508Y-111020747D01*
X148229824Y-111070748D01*
X148297131Y-111215090D01*
X148356586Y-111300000D01*
X148420127Y-111390745D01*
X148571755Y-111542373D01*
X148747409Y-111665368D01*
X148941753Y-111755992D01*
X149148881Y-111811492D01*
X149301466Y-111824841D01*
X149362498Y-111830181D01*
X149362500Y-111830181D01*
X149362502Y-111830181D01*
X149416016Y-111825499D01*
X149576119Y-111811492D01*
X149783247Y-111755992D01*
X149977591Y-111665368D01*
X150153245Y-111542373D01*
X150304873Y-111390745D01*
X150427868Y-111215091D01*
X150518492Y-111020747D01*
X150573992Y-110813619D01*
X150592681Y-110600000D01*
X150573992Y-110386381D01*
X150518492Y-110179253D01*
X150427868Y-109984910D01*
X150339883Y-109859255D01*
X150304876Y-109809259D01*
X150304871Y-109809253D01*
X150153245Y-109657627D01*
X150109727Y-109627155D01*
X155435000Y-109627155D01*
X155435000Y-110400000D01*
X156309999Y-110400000D01*
X156284979Y-110460402D01*
X156260000Y-110585981D01*
X156260000Y-110714019D01*
X156284979Y-110839598D01*
X156309999Y-110900000D01*
X155435000Y-110900000D01*
X155435000Y-111672844D01*
X155441401Y-111732372D01*
X155441403Y-111732379D01*
X155491645Y-111867086D01*
X155491649Y-111867093D01*
X155577809Y-111982187D01*
X155577812Y-111982190D01*
X155692906Y-112068350D01*
X155692913Y-112068354D01*
X155827620Y-112118596D01*
X155827627Y-112118598D01*
X155887155Y-112124999D01*
X155887172Y-112125000D01*
X156660000Y-112125000D01*
X156660000Y-111250001D01*
X156720402Y-111275021D01*
X156845981Y-111300000D01*
X156974019Y-111300000D01*
X157099598Y-111275021D01*
X157160000Y-111250001D01*
X157160000Y-112125000D01*
X157932828Y-112125000D01*
X157932844Y-112124999D01*
X157992372Y-112118598D01*
X157992379Y-112118596D01*
X158127086Y-112068354D01*
X158127093Y-112068350D01*
X158242187Y-111982190D01*
X158242190Y-111982187D01*
X158328350Y-111867093D01*
X158328354Y-111867086D01*
X158378596Y-111732379D01*
X158378598Y-111732372D01*
X158384999Y-111672844D01*
X158385000Y-111672827D01*
X158385000Y-110900000D01*
X157510001Y-110900000D01*
X157535021Y-110839598D01*
X157560000Y-110714019D01*
X157560000Y-110649998D01*
X160679819Y-110649998D01*
X160679819Y-110650001D01*
X160698507Y-110863613D01*
X160698509Y-110863624D01*
X160754005Y-111070739D01*
X160754007Y-111070743D01*
X160754008Y-111070747D01*
X160793244Y-111154888D01*
X160844631Y-111265090D01*
X160932616Y-111390745D01*
X160967627Y-111440745D01*
X161119255Y-111592373D01*
X161294909Y-111715368D01*
X161489253Y-111805992D01*
X161489259Y-111805993D01*
X161489260Y-111805994D01*
X161509779Y-111811492D01*
X161696381Y-111861492D01*
X161848966Y-111874841D01*
X161909998Y-111880181D01*
X161910000Y-111880181D01*
X161910002Y-111880181D01*
X161963404Y-111875508D01*
X162123619Y-111861492D01*
X162330747Y-111805992D01*
X162525091Y-111715368D01*
X162700745Y-111592373D01*
X162852373Y-111440745D01*
X162975368Y-111265091D01*
X163065992Y-111070747D01*
X163121492Y-110863619D01*
X163140181Y-110650000D01*
X163121492Y-110436381D01*
X163065992Y-110229253D01*
X162975368Y-110034910D01*
X162968414Y-110024979D01*
X162852376Y-109859259D01*
X162852371Y-109859253D01*
X162700745Y-109707627D01*
X162525090Y-109584631D01*
X162427919Y-109539320D01*
X162330747Y-109494008D01*
X162330743Y-109494007D01*
X162330739Y-109494005D01*
X162123624Y-109438509D01*
X162123620Y-109438508D01*
X162123619Y-109438508D01*
X162123618Y-109438507D01*
X162123613Y-109438507D01*
X161910002Y-109419819D01*
X161909998Y-109419819D01*
X161696386Y-109438507D01*
X161696375Y-109438509D01*
X161489260Y-109494005D01*
X161489251Y-109494009D01*
X161294910Y-109584631D01*
X161294908Y-109584632D01*
X161119259Y-109707623D01*
X161119253Y-109707628D01*
X160967628Y-109859253D01*
X160967623Y-109859259D01*
X160844632Y-110034908D01*
X160844631Y-110034910D01*
X160754009Y-110229251D01*
X160754005Y-110229260D01*
X160698509Y-110436375D01*
X160698507Y-110436386D01*
X160679819Y-110649998D01*
X157560000Y-110649998D01*
X157560000Y-110585981D01*
X157535021Y-110460402D01*
X157510001Y-110400000D01*
X158385000Y-110400000D01*
X158385000Y-109627172D01*
X158384999Y-109627155D01*
X158378598Y-109567627D01*
X158378596Y-109567620D01*
X158328354Y-109432913D01*
X158328350Y-109432906D01*
X158242190Y-109317812D01*
X158242187Y-109317809D01*
X158127093Y-109231649D01*
X158127086Y-109231645D01*
X157992379Y-109181403D01*
X157992372Y-109181401D01*
X157932844Y-109175000D01*
X157160000Y-109175000D01*
X157160000Y-110049998D01*
X157099598Y-110024979D01*
X156974019Y-110000000D01*
X156845981Y-110000000D01*
X156720402Y-110024979D01*
X156660000Y-110049998D01*
X156660000Y-109175000D01*
X155887155Y-109175000D01*
X155827627Y-109181401D01*
X155827620Y-109181403D01*
X155692913Y-109231645D01*
X155692906Y-109231649D01*
X155577812Y-109317809D01*
X155577809Y-109317812D01*
X155491649Y-109432906D01*
X155491645Y-109432913D01*
X155441403Y-109567620D01*
X155441401Y-109567627D01*
X155435000Y-109627155D01*
X150109727Y-109627155D01*
X149977590Y-109534631D01*
X149880419Y-109489320D01*
X149783247Y-109444008D01*
X149783243Y-109444007D01*
X149783239Y-109444005D01*
X149576124Y-109388509D01*
X149576120Y-109388508D01*
X149576119Y-109388508D01*
X149576118Y-109388507D01*
X149576113Y-109388507D01*
X149362502Y-109369819D01*
X149362498Y-109369819D01*
X149148886Y-109388507D01*
X149148875Y-109388509D01*
X148941760Y-109444005D01*
X148941751Y-109444009D01*
X148747410Y-109534631D01*
X148747408Y-109534632D01*
X148571759Y-109657623D01*
X148571753Y-109657628D01*
X148420128Y-109809253D01*
X148420123Y-109809259D01*
X148297132Y-109984908D01*
X148297131Y-109984910D01*
X148206509Y-110179251D01*
X148206505Y-110179260D01*
X148151009Y-110386375D01*
X148151007Y-110386386D01*
X148132319Y-110599998D01*
X145588000Y-110599998D01*
X145588000Y-109600326D01*
X145588000Y-109600323D01*
X145587999Y-109600321D01*
X145573467Y-109527264D01*
X145573466Y-109527260D01*
X145518101Y-109444399D01*
X145436047Y-109389573D01*
X145435239Y-109389033D01*
X145435235Y-109389032D01*
X145362177Y-109374500D01*
X145362174Y-109374500D01*
X143362826Y-109374500D01*
X143362823Y-109374500D01*
X143289764Y-109389032D01*
X143289760Y-109389033D01*
X143206899Y-109444399D01*
X143151533Y-109527260D01*
X143151532Y-109527264D01*
X143137000Y-109600321D01*
X114858766Y-109600321D01*
X114670429Y-109389573D01*
X114670426Y-109389570D01*
X114414959Y-109161269D01*
X114135521Y-108962998D01*
X113835646Y-108797263D01*
X113770087Y-108770108D01*
X113519104Y-108666147D01*
X113434479Y-108641766D01*
X113189875Y-108571297D01*
X113189866Y-108571295D01*
X112852093Y-108513905D01*
X112852081Y-108513903D01*
X112510000Y-108494693D01*
X112167918Y-108513903D01*
X112167906Y-108513905D01*
X111830133Y-108571295D01*
X111830124Y-108571297D01*
X111500899Y-108666146D01*
X111500896Y-108666147D01*
X111408184Y-108704549D01*
X111184353Y-108797263D01*
X110884478Y-108962998D01*
X110605040Y-109161269D01*
X110349573Y-109389570D01*
X110349570Y-109389573D01*
X110121269Y-109645040D01*
X109922998Y-109924478D01*
X109757263Y-110224353D01*
X109626146Y-110540899D01*
X109553654Y-110792524D01*
X109516180Y-110851494D01*
X109452773Y-110880842D01*
X109383564Y-110871252D01*
X109330528Y-110825767D01*
X109310502Y-110758828D01*
X109310500Y-110758196D01*
X109310500Y-98840629D01*
X114074500Y-98840629D01*
X114074500Y-98999435D01*
X114100090Y-99094938D01*
X114149525Y-99180562D01*
X114219438Y-99250475D01*
X114300096Y-99297043D01*
X114325775Y-99316748D01*
X121786502Y-106777475D01*
X121860653Y-106820286D01*
X121872123Y-106826909D01*
X121872127Y-106826911D01*
X121967628Y-106852500D01*
X121967629Y-106852500D01*
X154122457Y-106852500D01*
X154189496Y-106872185D01*
X154235251Y-106924989D01*
X154245195Y-106994147D01*
X154245194Y-106994150D01*
X154244353Y-106999998D01*
X154244353Y-106999999D01*
X154264834Y-107142456D01*
X154324622Y-107273371D01*
X154324623Y-107273373D01*
X154418872Y-107382143D01*
X154539947Y-107459953D01*
X154539950Y-107459954D01*
X154539949Y-107459954D01*
X154678036Y-107500499D01*
X154678038Y-107500500D01*
X154678039Y-107500500D01*
X154821962Y-107500500D01*
X154821962Y-107500499D01*
X154960053Y-107459953D01*
X155060834Y-107395184D01*
X155127874Y-107375500D01*
X172722126Y-107375500D01*
X172789165Y-107395185D01*
X172789166Y-107395185D01*
X172889947Y-107459953D01*
X172889948Y-107459953D01*
X172889949Y-107459954D01*
X173028036Y-107500499D01*
X173028038Y-107500500D01*
X173028039Y-107500500D01*
X173171962Y-107500500D01*
X173171962Y-107500499D01*
X173310053Y-107459953D01*
X173431128Y-107382143D01*
X173525377Y-107273373D01*
X173585165Y-107142457D01*
X173605647Y-107000000D01*
X173604806Y-106994150D01*
X173614747Y-106924991D01*
X173660501Y-106872186D01*
X173727540Y-106852500D01*
X174572435Y-106852500D01*
X174572436Y-106852500D01*
X174620186Y-106839705D01*
X174667938Y-106826910D01*
X174753562Y-106777475D01*
X174823475Y-106707562D01*
X178694399Y-102836637D01*
X178755720Y-102803154D01*
X178764436Y-102801581D01*
X178771954Y-102800500D01*
X178771961Y-102800500D01*
X178813916Y-102788181D01*
X178910050Y-102759954D01*
X178910050Y-102759953D01*
X178910053Y-102759953D01*
X179031128Y-102682143D01*
X179125377Y-102573373D01*
X179185165Y-102442457D01*
X179205647Y-102300000D01*
X179185165Y-102157543D01*
X179125377Y-102026627D01*
X179031128Y-101917857D01*
X178910053Y-101840047D01*
X178910051Y-101840046D01*
X178910049Y-101840045D01*
X178910050Y-101840045D01*
X178771963Y-101799500D01*
X178771961Y-101799500D01*
X178628039Y-101799500D01*
X178628036Y-101799500D01*
X178489949Y-101840045D01*
X178368873Y-101917856D01*
X178274623Y-102026626D01*
X178274622Y-102026628D01*
X178214835Y-102157541D01*
X178214834Y-102157546D01*
X178204489Y-102229496D01*
X178175463Y-102293051D01*
X178169432Y-102299529D01*
X177999682Y-102469279D01*
X177938359Y-102502764D01*
X177868667Y-102497780D01*
X177812734Y-102455908D01*
X177788317Y-102390444D01*
X177789263Y-102363951D01*
X177805647Y-102250000D01*
X177785165Y-102107543D01*
X177725377Y-101976627D01*
X177631128Y-101867857D01*
X177510053Y-101790047D01*
X177510051Y-101790046D01*
X177510049Y-101790045D01*
X177510050Y-101790045D01*
X177371965Y-101749500D01*
X177364429Y-101748417D01*
X177300874Y-101719391D01*
X177294397Y-101713360D01*
X177042563Y-101461526D01*
X177042562Y-101461525D01*
X176956938Y-101412090D01*
X176909186Y-101399295D01*
X176909184Y-101399294D01*
X176909182Y-101399293D01*
X176861436Y-101386500D01*
X176861435Y-101386500D01*
X175587500Y-101386500D01*
X175488628Y-101386500D01*
X175440876Y-101399295D01*
X175440875Y-101399294D01*
X175393127Y-101412089D01*
X175393126Y-101412089D01*
X175307499Y-101461527D01*
X174907527Y-101861499D01*
X174907525Y-101861501D01*
X174907525Y-101861502D01*
X174858090Y-101947126D01*
X174858090Y-101947127D01*
X174833781Y-102037849D01*
X174833780Y-102037850D01*
X174832500Y-102042626D01*
X174832500Y-104501943D01*
X174812815Y-104568982D01*
X174796181Y-104589624D01*
X174147624Y-105238181D01*
X174086301Y-105271666D01*
X174059943Y-105274500D01*
X162839646Y-105274500D01*
X162772607Y-105254815D01*
X162726852Y-105202011D01*
X162717008Y-105156764D01*
X162716908Y-105156779D01*
X162716705Y-105155369D01*
X162715646Y-105150500D01*
X162715646Y-105148001D01*
X162695164Y-105005543D01*
X162635376Y-104874628D01*
X162635375Y-104874626D01*
X162541127Y-104765857D01*
X162420052Y-104688047D01*
X162420049Y-104688046D01*
X162420047Y-104688045D01*
X162403836Y-104683285D01*
X162351093Y-104651990D01*
X161310922Y-103611819D01*
X160204282Y-102505180D01*
X160170798Y-102443858D01*
X160175782Y-102374166D01*
X160217654Y-102318233D01*
X160283118Y-102293816D01*
X160291964Y-102293500D01*
X167611101Y-102293500D01*
X167678140Y-102313185D01*
X167698782Y-102329819D01*
X167719432Y-102350469D01*
X167752917Y-102411792D01*
X167754489Y-102420502D01*
X167764834Y-102492454D01*
X167764835Y-102492458D01*
X167812112Y-102595979D01*
X167824623Y-102623373D01*
X167918872Y-102732143D01*
X168039947Y-102809953D01*
X168039950Y-102809954D01*
X168039949Y-102809954D01*
X168130832Y-102836639D01*
X168176639Y-102850089D01*
X168178036Y-102850499D01*
X168178038Y-102850500D01*
X168178039Y-102850500D01*
X168321962Y-102850500D01*
X168321962Y-102850499D01*
X168460053Y-102809953D01*
X168581128Y-102732143D01*
X168675377Y-102623373D01*
X168735165Y-102492457D01*
X168755647Y-102350000D01*
X168735165Y-102207543D01*
X168675377Y-102076627D01*
X168581128Y-101967857D01*
X168460053Y-101890047D01*
X168460051Y-101890046D01*
X168460049Y-101890045D01*
X168460050Y-101890045D01*
X168321965Y-101849500D01*
X168314429Y-101848417D01*
X168250874Y-101819391D01*
X168244397Y-101813360D01*
X168048563Y-101617526D01*
X168048562Y-101617525D01*
X167962938Y-101568090D01*
X167915186Y-101555295D01*
X167915184Y-101555294D01*
X167915182Y-101555293D01*
X167867436Y-101542500D01*
X167867435Y-101542500D01*
X158651500Y-101542500D01*
X158552628Y-101542500D01*
X158457127Y-101568089D01*
X158457124Y-101568090D01*
X158371504Y-101617522D01*
X158371499Y-101617526D01*
X157200846Y-102788181D01*
X157139523Y-102821666D01*
X157113165Y-102824500D01*
X132510500Y-102824500D01*
X132462748Y-102837295D01*
X132462747Y-102837294D01*
X132414999Y-102850089D01*
X132414998Y-102850089D01*
X132329371Y-102899527D01*
X130440718Y-104788181D01*
X130379395Y-104821666D01*
X130353037Y-104824500D01*
X128640058Y-104824500D01*
X128573019Y-104804815D01*
X128552377Y-104788181D01*
X127611819Y-103847623D01*
X127578334Y-103786300D01*
X127575500Y-103759942D01*
X127575500Y-97190057D01*
X127595185Y-97123018D01*
X127611819Y-97102376D01*
X128900376Y-95813819D01*
X128961699Y-95780334D01*
X128988057Y-95777500D01*
X129315324Y-95777500D01*
X129382363Y-95797185D01*
X129428118Y-95849989D01*
X129438062Y-95919147D01*
X129409037Y-95982703D01*
X129403005Y-95989181D01*
X129099502Y-96292683D01*
X129099500Y-96292686D01*
X129033608Y-96406812D01*
X128999500Y-96534108D01*
X128999500Y-98330891D01*
X129033608Y-98458187D01*
X129060529Y-98504815D01*
X129099500Y-98572314D01*
X129099502Y-98572316D01*
X129765322Y-99238136D01*
X129771354Y-99244615D01*
X129803870Y-99282141D01*
X129803874Y-99282145D01*
X129807928Y-99284750D01*
X129823211Y-99297066D01*
X129827684Y-99300498D01*
X129827686Y-99300500D01*
X129871887Y-99326019D01*
X129876871Y-99329056D01*
X129924947Y-99359953D01*
X129924950Y-99359954D01*
X129924952Y-99359955D01*
X129925994Y-99360431D01*
X129935621Y-99363827D01*
X129941811Y-99366390D01*
X129941814Y-99366392D01*
X129998261Y-99381516D01*
X130001098Y-99382312D01*
X130063039Y-99400500D01*
X130137500Y-99400500D01*
X130204539Y-99420185D01*
X130250294Y-99472989D01*
X130261500Y-99524500D01*
X130261500Y-100014323D01*
X130241815Y-100081362D01*
X130225181Y-100102004D01*
X129828569Y-100498616D01*
X129807937Y-100515244D01*
X129803872Y-100517857D01*
X129803868Y-100517860D01*
X129771355Y-100555383D01*
X129765324Y-100561860D01*
X129734498Y-100592686D01*
X129731364Y-100598115D01*
X129717701Y-100617303D01*
X129709623Y-100626626D01*
X129709623Y-100626627D01*
X129692088Y-100665019D01*
X129686687Y-100675495D01*
X129668607Y-100706813D01*
X129668606Y-100706816D01*
X129665046Y-100720103D01*
X129658069Y-100739511D01*
X129649835Y-100757541D01*
X129644886Y-100791956D01*
X129641925Y-100806394D01*
X129634500Y-100834105D01*
X129634500Y-100855331D01*
X129633238Y-100872977D01*
X129629353Y-100899999D01*
X129633238Y-100927020D01*
X129634500Y-100944667D01*
X129634500Y-100965894D01*
X129641923Y-100993596D01*
X129644885Y-101008037D01*
X129649835Y-101042456D01*
X129649837Y-101042464D01*
X129658069Y-101060489D01*
X129665050Y-101079907D01*
X129668607Y-101093183D01*
X129668610Y-101093190D01*
X129686681Y-101124491D01*
X129692086Y-101134974D01*
X129709623Y-101173373D01*
X129717694Y-101182687D01*
X129731368Y-101201890D01*
X129734497Y-101207310D01*
X129734501Y-101207315D01*
X129765322Y-101238136D01*
X129771354Y-101244615D01*
X129803870Y-101282141D01*
X129803874Y-101282145D01*
X129807928Y-101284750D01*
X129823211Y-101297066D01*
X129827684Y-101300498D01*
X129827686Y-101300500D01*
X129871887Y-101326019D01*
X129876871Y-101329056D01*
X129924947Y-101359953D01*
X129924950Y-101359954D01*
X129924952Y-101359955D01*
X129925994Y-101360431D01*
X129935621Y-101363827D01*
X129941811Y-101366390D01*
X129941814Y-101366392D01*
X129998246Y-101381512D01*
X129998261Y-101381516D01*
X130001098Y-101382312D01*
X130063039Y-101400500D01*
X130206963Y-101400500D01*
X130206963Y-101400499D01*
X130254639Y-101386500D01*
X130268902Y-101382312D01*
X130271681Y-101381531D01*
X130328186Y-101366392D01*
X130328189Y-101366389D01*
X130334367Y-101363832D01*
X130343996Y-101360434D01*
X130345045Y-101359955D01*
X130345053Y-101359953D01*
X130393087Y-101329082D01*
X130398102Y-101326025D01*
X130442314Y-101300500D01*
X130442321Y-101300492D01*
X130446828Y-101297035D01*
X130462067Y-101284752D01*
X130466128Y-101282143D01*
X130498659Y-101244597D01*
X130504664Y-101238148D01*
X131162500Y-100580314D01*
X131228392Y-100466186D01*
X131262500Y-100338892D01*
X131262500Y-100207107D01*
X131262500Y-98574396D01*
X131228392Y-98447102D01*
X131162500Y-98332974D01*
X131069314Y-98239788D01*
X131068707Y-98239181D01*
X131035222Y-98177858D01*
X131040206Y-98108166D01*
X131082078Y-98052233D01*
X131147542Y-98027816D01*
X131156388Y-98027500D01*
X137149779Y-98027500D01*
X137216818Y-98047185D01*
X137262573Y-98099989D01*
X137272517Y-98169147D01*
X137262573Y-98203012D01*
X137214834Y-98307543D01*
X137194353Y-98450000D01*
X137214834Y-98592456D01*
X137271851Y-98717303D01*
X137274623Y-98723373D01*
X137368872Y-98832143D01*
X137489947Y-98909953D01*
X137489950Y-98909954D01*
X137489949Y-98909954D01*
X137572202Y-98934105D01*
X137624633Y-98949500D01*
X137628036Y-98950499D01*
X137628038Y-98950500D01*
X137628039Y-98950500D01*
X137771962Y-98950500D01*
X137771962Y-98950499D01*
X137910053Y-98909953D01*
X138010834Y-98845184D01*
X138077874Y-98825500D01*
X141650500Y-98825500D01*
X141717539Y-98845185D01*
X141763294Y-98897989D01*
X141774500Y-98949500D01*
X141774500Y-99749435D01*
X141800090Y-99844938D01*
X141800091Y-99844940D01*
X141816002Y-99872498D01*
X141816003Y-99872500D01*
X141849523Y-99930559D01*
X141849528Y-99930565D01*
X141869432Y-99950469D01*
X141902917Y-100011792D01*
X141904489Y-100020502D01*
X141914834Y-100092454D01*
X141914835Y-100092456D01*
X141914835Y-100092457D01*
X141974623Y-100223373D01*
X142068872Y-100332143D01*
X142189947Y-100409953D01*
X142189950Y-100409954D01*
X142189949Y-100409954D01*
X142328036Y-100450499D01*
X142328038Y-100450500D01*
X142328039Y-100450500D01*
X142471962Y-100450500D01*
X142471962Y-100450499D01*
X142610053Y-100409953D01*
X142731128Y-100332143D01*
X142825377Y-100223373D01*
X142885165Y-100092457D01*
X142905647Y-99950000D01*
X142885165Y-99807543D01*
X142825377Y-99676627D01*
X142731128Y-99567857D01*
X142610053Y-99490047D01*
X142610051Y-99490046D01*
X142610049Y-99490045D01*
X142601983Y-99486361D01*
X142603068Y-99483984D01*
X142555780Y-99453589D01*
X142526761Y-99390030D01*
X142525500Y-99372394D01*
X142525500Y-98949500D01*
X142545185Y-98882461D01*
X142597989Y-98836706D01*
X142649500Y-98825500D01*
X150549434Y-98825500D01*
X150549436Y-98825500D01*
X150607006Y-98810073D01*
X150619173Y-98806814D01*
X150625613Y-98805088D01*
X150644938Y-98799910D01*
X150730562Y-98750475D01*
X150800475Y-98680562D01*
X150800474Y-98680562D01*
X150859043Y-98621993D01*
X152844400Y-96636637D01*
X152905721Y-96603154D01*
X152914436Y-96601582D01*
X152921962Y-96600500D01*
X153060050Y-96559954D01*
X153060050Y-96559953D01*
X153060053Y-96559953D01*
X153181128Y-96482143D01*
X153275377Y-96373373D01*
X153335165Y-96242457D01*
X153355647Y-96100000D01*
X153335165Y-95957543D01*
X153275377Y-95826627D01*
X153181128Y-95717857D01*
X153060053Y-95640047D01*
X153060051Y-95640046D01*
X153060049Y-95640045D01*
X153060050Y-95640045D01*
X152921963Y-95599500D01*
X152921961Y-95599500D01*
X152778039Y-95599500D01*
X152778036Y-95599500D01*
X152639949Y-95640045D01*
X152518873Y-95717856D01*
X152424623Y-95826626D01*
X152424622Y-95826628D01*
X152364835Y-95957541D01*
X152364834Y-95957546D01*
X152354489Y-96029495D01*
X152325463Y-96093051D01*
X152319432Y-96099528D01*
X150380782Y-98038181D01*
X150319459Y-98071666D01*
X150293101Y-98074500D01*
X143355899Y-98074500D01*
X143288860Y-98054815D01*
X143243105Y-98002011D01*
X143233161Y-97932853D01*
X143262186Y-97869297D01*
X143268203Y-97862833D01*
X143344400Y-97786636D01*
X143405719Y-97753154D01*
X143414436Y-97751581D01*
X143421954Y-97750500D01*
X143421961Y-97750500D01*
X143421968Y-97750498D01*
X143560050Y-97709954D01*
X143560050Y-97709953D01*
X143560053Y-97709953D01*
X143681128Y-97632143D01*
X143775377Y-97523373D01*
X143835165Y-97392457D01*
X143855647Y-97250000D01*
X143835165Y-97107543D01*
X143775377Y-96976627D01*
X143681128Y-96867857D01*
X143560053Y-96790047D01*
X143560051Y-96790046D01*
X143560049Y-96790045D01*
X143560050Y-96790045D01*
X143421963Y-96749500D01*
X143421961Y-96749500D01*
X143278039Y-96749500D01*
X143278036Y-96749500D01*
X143139949Y-96790045D01*
X143018873Y-96867856D01*
X142924623Y-96976626D01*
X142924622Y-96976628D01*
X142864835Y-97107541D01*
X142864834Y-97107546D01*
X142854489Y-97179496D01*
X142825463Y-97243051D01*
X142819432Y-97249529D01*
X142030782Y-98038181D01*
X141969459Y-98071666D01*
X141943101Y-98074500D01*
X139682676Y-98074500D01*
X139615637Y-98054815D01*
X139569882Y-98002011D01*
X139559938Y-97932853D01*
X139588963Y-97869297D01*
X139594995Y-97862819D01*
X145420995Y-92036819D01*
X145482318Y-92003334D01*
X145508676Y-92000500D01*
X153241324Y-92000500D01*
X153308363Y-92020185D01*
X153329005Y-92036819D01*
X158380315Y-97088128D01*
X158386347Y-97094607D01*
X158418871Y-97132142D01*
X158418873Y-97132144D01*
X158422930Y-97134751D01*
X158438191Y-97147049D01*
X158442680Y-97150493D01*
X158442686Y-97150499D01*
X158462371Y-97161864D01*
X158486862Y-97176004D01*
X158491887Y-97179066D01*
X158539947Y-97209953D01*
X158539956Y-97209955D01*
X158540997Y-97210431D01*
X158550637Y-97213832D01*
X158556807Y-97216388D01*
X158556814Y-97216392D01*
X158613308Y-97231529D01*
X158616112Y-97232316D01*
X158625183Y-97234980D01*
X158678038Y-97250500D01*
X158775500Y-97250500D01*
X158842539Y-97270185D01*
X158888294Y-97322989D01*
X158899500Y-97374500D01*
X158899500Y-98091323D01*
X158879815Y-98158362D01*
X158863181Y-98179004D01*
X158443569Y-98598616D01*
X158422937Y-98615244D01*
X158418872Y-98617857D01*
X158418868Y-98617860D01*
X158386355Y-98655383D01*
X158380324Y-98661860D01*
X158349498Y-98692686D01*
X158346364Y-98698115D01*
X158332701Y-98717303D01*
X158324623Y-98726626D01*
X158324623Y-98726627D01*
X158307088Y-98765019D01*
X158301687Y-98775495D01*
X158283607Y-98806813D01*
X158283608Y-98806814D01*
X158280046Y-98820103D01*
X158273069Y-98839511D01*
X158264835Y-98857541D01*
X158259886Y-98891956D01*
X158256925Y-98906394D01*
X158249500Y-98934105D01*
X158249500Y-98955331D01*
X158248238Y-98972977D01*
X158244353Y-98999999D01*
X158244353Y-99002500D01*
X158243648Y-99004898D01*
X158243091Y-99008778D01*
X158242533Y-99008697D01*
X158224668Y-99069539D01*
X158171864Y-99115294D01*
X158120353Y-99126500D01*
X157895675Y-99126500D01*
X157828636Y-99106815D01*
X157807994Y-99090181D01*
X155879678Y-97161864D01*
X155873645Y-97155384D01*
X155841132Y-97117861D01*
X155841125Y-97117854D01*
X155837066Y-97115246D01*
X155821793Y-97102937D01*
X155817318Y-97099504D01*
X155817314Y-97099500D01*
X155803040Y-97091259D01*
X155773121Y-97073984D01*
X155768085Y-97070915D01*
X155760267Y-97065891D01*
X155720053Y-97040047D01*
X155720051Y-97040046D01*
X155720049Y-97040045D01*
X155719004Y-97039567D01*
X155709375Y-97036171D01*
X155703192Y-97033610D01*
X155703187Y-97033608D01*
X155703186Y-97033608D01*
X155646701Y-97018473D01*
X155643862Y-97017675D01*
X155581963Y-96999500D01*
X155581961Y-96999500D01*
X155438039Y-96999500D01*
X155376145Y-97017673D01*
X155373307Y-97018469D01*
X155316817Y-97033606D01*
X155310609Y-97036177D01*
X155300985Y-97039572D01*
X155299949Y-97040045D01*
X155251915Y-97070914D01*
X155246880Y-97073983D01*
X155202689Y-97099497D01*
X155198266Y-97102892D01*
X155182945Y-97115238D01*
X155178877Y-97117852D01*
X155178868Y-97117860D01*
X155146355Y-97155383D01*
X155140324Y-97161860D01*
X155109498Y-97192686D01*
X155106364Y-97198115D01*
X155092701Y-97217303D01*
X155084623Y-97226626D01*
X155084623Y-97226627D01*
X155067088Y-97265019D01*
X155061687Y-97275495D01*
X155043607Y-97306813D01*
X155043606Y-97306816D01*
X155040046Y-97320103D01*
X155033069Y-97339511D01*
X155024835Y-97357541D01*
X155019886Y-97391956D01*
X155016925Y-97406394D01*
X155009500Y-97434105D01*
X155009500Y-97455331D01*
X155008238Y-97472977D01*
X155004353Y-97499999D01*
X155008238Y-97527020D01*
X155009500Y-97544667D01*
X155009500Y-97565894D01*
X155016923Y-97593596D01*
X155019885Y-97608037D01*
X155024835Y-97642456D01*
X155024837Y-97642464D01*
X155033069Y-97660489D01*
X155040050Y-97679907D01*
X155043607Y-97693183D01*
X155043610Y-97693190D01*
X155061681Y-97724491D01*
X155067086Y-97734974D01*
X155084623Y-97773373D01*
X155092694Y-97782687D01*
X155106368Y-97801890D01*
X155109497Y-97807310D01*
X155109501Y-97807315D01*
X155140322Y-97838136D01*
X155146354Y-97844615D01*
X155178870Y-97882141D01*
X155178874Y-97882145D01*
X155182928Y-97884750D01*
X155203571Y-97901385D01*
X157232159Y-99929972D01*
X157232169Y-99929983D01*
X157236499Y-99934313D01*
X157236500Y-99934314D01*
X157329686Y-100027500D01*
X157422978Y-100081362D01*
X157442195Y-100092457D01*
X157442192Y-100092460D01*
X157442213Y-100092467D01*
X157443814Y-100093392D01*
X157571107Y-100127500D01*
X157571108Y-100127500D01*
X157571109Y-100127500D01*
X159075602Y-100127500D01*
X159075604Y-100127500D01*
X159202898Y-100093392D01*
X159317026Y-100027500D01*
X161807707Y-97536819D01*
X161869030Y-97503334D01*
X161895388Y-97500500D01*
X162571963Y-97500500D01*
X162571963Y-97500499D01*
X162610226Y-97489263D01*
X162633902Y-97482312D01*
X162636681Y-97481531D01*
X162693186Y-97466392D01*
X162693189Y-97466389D01*
X162699367Y-97463832D01*
X162708996Y-97460434D01*
X162710045Y-97459955D01*
X162710053Y-97459953D01*
X162758087Y-97429082D01*
X162763102Y-97426025D01*
X162807314Y-97400500D01*
X162807321Y-97400492D01*
X162811828Y-97397035D01*
X162827067Y-97384752D01*
X162831128Y-97382143D01*
X162863653Y-97344605D01*
X162869673Y-97338140D01*
X162877717Y-97330096D01*
X162900500Y-97307314D01*
X162903628Y-97301894D01*
X162917304Y-97282688D01*
X162925377Y-97273373D01*
X162942912Y-97234974D01*
X162948311Y-97224502D01*
X162966392Y-97193186D01*
X162969952Y-97179898D01*
X162976934Y-97160479D01*
X162985165Y-97142457D01*
X162990113Y-97108042D01*
X162993074Y-97093606D01*
X162994542Y-97088128D01*
X163000500Y-97065892D01*
X163000500Y-97044667D01*
X163001762Y-97027020D01*
X163002991Y-97018473D01*
X163005647Y-97000000D01*
X163002287Y-96976627D01*
X163001762Y-96972977D01*
X163000500Y-96955331D01*
X163000500Y-96934110D01*
X163000500Y-96934108D01*
X162993073Y-96906390D01*
X162990111Y-96891946D01*
X162986648Y-96867857D01*
X162985165Y-96857543D01*
X162976928Y-96839509D01*
X162969949Y-96820091D01*
X162969774Y-96819438D01*
X162966392Y-96806814D01*
X162948316Y-96775506D01*
X162942911Y-96765020D01*
X162925380Y-96726633D01*
X162925379Y-96726631D01*
X162925377Y-96726627D01*
X162925372Y-96726621D01*
X162917306Y-96717312D01*
X162903628Y-96698104D01*
X162900499Y-96692685D01*
X162869677Y-96661863D01*
X162863659Y-96655401D01*
X162831128Y-96617857D01*
X162831125Y-96617854D01*
X162827066Y-96615246D01*
X162811793Y-96602937D01*
X162807318Y-96599504D01*
X162807314Y-96599500D01*
X162795404Y-96592623D01*
X162763121Y-96573984D01*
X162758085Y-96570915D01*
X162741029Y-96559954D01*
X162710053Y-96540047D01*
X162710051Y-96540046D01*
X162710049Y-96540045D01*
X162709004Y-96539567D01*
X162699375Y-96536171D01*
X162693192Y-96533610D01*
X162693187Y-96533608D01*
X162693186Y-96533608D01*
X162636701Y-96518473D01*
X162633862Y-96517675D01*
X162571963Y-96499500D01*
X162571961Y-96499500D01*
X162565892Y-96499500D01*
X162124500Y-96499500D01*
X162057461Y-96479815D01*
X162011706Y-96427011D01*
X162000500Y-96375500D01*
X162000500Y-96297398D01*
X162000500Y-96297396D01*
X161966392Y-96170102D01*
X161900500Y-96055974D01*
X161807314Y-95962788D01*
X156544526Y-90700000D01*
X159804353Y-90700000D01*
X159824834Y-90842456D01*
X159884622Y-90973371D01*
X159884623Y-90973373D01*
X159978873Y-91082144D01*
X159984497Y-91085758D01*
X159992535Y-91090924D01*
X160038292Y-91143725D01*
X160049500Y-91195241D01*
X160049500Y-92754663D01*
X160038294Y-92806174D01*
X160014835Y-92857541D01*
X160014834Y-92857542D01*
X159994353Y-93000000D01*
X160014834Y-93142456D01*
X160056945Y-93234664D01*
X160074623Y-93273373D01*
X160168872Y-93382143D01*
X160289947Y-93459953D01*
X160289950Y-93459954D01*
X160289949Y-93459954D01*
X160428036Y-93500499D01*
X160428038Y-93500500D01*
X160428039Y-93500500D01*
X160571962Y-93500500D01*
X160571962Y-93500499D01*
X160710053Y-93459953D01*
X160831128Y-93382143D01*
X160925377Y-93273373D01*
X160985165Y-93142457D01*
X161005647Y-93000000D01*
X160985165Y-92857543D01*
X160981720Y-92849999D01*
X160961706Y-92806174D01*
X160950500Y-92754663D01*
X160950500Y-90830693D01*
X160950500Y-90830691D01*
X160919799Y-90716114D01*
X160917650Y-90712392D01*
X160860490Y-90613386D01*
X160860489Y-90613384D01*
X160803012Y-90555907D01*
X160777899Y-90519737D01*
X160735378Y-90426630D01*
X160735377Y-90426628D01*
X160735377Y-90426627D01*
X160641128Y-90317857D01*
X160520053Y-90240047D01*
X160520051Y-90240046D01*
X160520049Y-90240045D01*
X160520050Y-90240045D01*
X160381963Y-90199500D01*
X160381961Y-90199500D01*
X160238039Y-90199500D01*
X160238036Y-90199500D01*
X160099949Y-90240045D01*
X159978873Y-90317856D01*
X159884623Y-90426626D01*
X159884622Y-90426628D01*
X159824834Y-90557543D01*
X159804353Y-90700000D01*
X156544526Y-90700000D01*
X155063026Y-89218500D01*
X154960051Y-89159047D01*
X154948899Y-89152608D01*
X154885251Y-89135554D01*
X154821604Y-89118500D01*
X149277463Y-89118500D01*
X149133541Y-89118500D01*
X149071647Y-89136673D01*
X149068809Y-89137469D01*
X149012319Y-89152606D01*
X149006111Y-89155177D01*
X148996487Y-89158572D01*
X148995451Y-89159045D01*
X148947417Y-89189914D01*
X148942382Y-89192983D01*
X148898191Y-89218497D01*
X148893768Y-89221892D01*
X148878447Y-89234238D01*
X148874379Y-89236852D01*
X148874370Y-89236860D01*
X148841857Y-89274383D01*
X148835826Y-89280860D01*
X148805000Y-89311686D01*
X148801866Y-89317115D01*
X148788203Y-89336303D01*
X148780125Y-89345626D01*
X148780125Y-89345627D01*
X148762590Y-89384019D01*
X148757189Y-89394495D01*
X148739109Y-89425813D01*
X148739108Y-89425816D01*
X148735548Y-89439103D01*
X148728571Y-89458511D01*
X148720337Y-89476541D01*
X148715388Y-89510956D01*
X148712427Y-89525394D01*
X148705002Y-89553105D01*
X148705002Y-89574331D01*
X148703740Y-89591977D01*
X148699855Y-89618999D01*
X148699855Y-89621500D01*
X148699150Y-89623898D01*
X148698593Y-89627778D01*
X148698035Y-89627697D01*
X148680170Y-89688539D01*
X148627366Y-89734294D01*
X148575855Y-89745500D01*
X141638108Y-89745500D01*
X141510812Y-89779608D01*
X141396686Y-89845500D01*
X141396683Y-89845502D01*
X140143571Y-91098614D01*
X140122942Y-91115241D01*
X140118873Y-91117856D01*
X140118868Y-91117860D01*
X140086355Y-91155383D01*
X140080324Y-91161860D01*
X140049501Y-91192684D01*
X140049498Y-91192686D01*
X140046364Y-91198115D01*
X140032701Y-91217303D01*
X140024623Y-91226626D01*
X140024623Y-91226627D01*
X140007088Y-91265019D01*
X140001687Y-91275495D01*
X139983607Y-91306813D01*
X139983606Y-91306816D01*
X139980046Y-91320103D01*
X139973069Y-91339511D01*
X139964835Y-91357542D01*
X139962338Y-91366048D01*
X139959254Y-91365142D01*
X139936765Y-91414360D01*
X139877979Y-91452122D01*
X139808110Y-91452108D01*
X139749339Y-91414321D01*
X139722694Y-91355959D01*
X139722365Y-91356056D01*
X139721691Y-91353763D01*
X139720331Y-91350783D01*
X139719865Y-91347544D01*
X139716197Y-91339511D01*
X139660077Y-91216627D01*
X139565828Y-91107857D01*
X139444753Y-91030047D01*
X139444751Y-91030046D01*
X139444749Y-91030045D01*
X139444750Y-91030045D01*
X139306663Y-90989500D01*
X139306661Y-90989500D01*
X139162739Y-90989500D01*
X139162736Y-90989500D01*
X139024649Y-91030045D01*
X139024648Y-91030046D01*
X138923866Y-91094815D01*
X138856826Y-91114500D01*
X138210561Y-91114500D01*
X138180799Y-91122475D01*
X138180798Y-91122474D01*
X138115066Y-91140088D01*
X138115059Y-91140091D01*
X138029436Y-91189526D01*
X134228782Y-94990181D01*
X134167459Y-95023666D01*
X134141101Y-95026500D01*
X130764647Y-95026500D01*
X130697608Y-95006815D01*
X130651853Y-94954011D01*
X130642009Y-94908764D01*
X130641909Y-94908779D01*
X130641706Y-94907369D01*
X130640647Y-94902500D01*
X130640647Y-94899999D01*
X130620165Y-94757543D01*
X130598773Y-94710701D01*
X130560377Y-94626627D01*
X130466128Y-94517857D01*
X130345053Y-94440047D01*
X130345051Y-94440046D01*
X130345049Y-94440045D01*
X130345050Y-94440045D01*
X130206963Y-94399500D01*
X130206961Y-94399500D01*
X130063039Y-94399500D01*
X130063036Y-94399500D01*
X129924949Y-94440045D01*
X129924948Y-94440046D01*
X129824166Y-94504815D01*
X129757126Y-94524500D01*
X128700561Y-94524500D01*
X128670799Y-94532475D01*
X128670798Y-94532474D01*
X128605066Y-94550088D01*
X128605059Y-94550091D01*
X128519436Y-94599526D01*
X126299526Y-96819436D01*
X126250091Y-96905059D01*
X126250091Y-96905060D01*
X126250090Y-96905062D01*
X126224500Y-97000565D01*
X126224500Y-103949435D01*
X126250090Y-104044938D01*
X126277807Y-104092946D01*
X126299526Y-104130563D01*
X127681781Y-105512819D01*
X127715266Y-105574142D01*
X127710282Y-105643834D01*
X127668410Y-105699767D01*
X127602946Y-105724184D01*
X127594100Y-105724500D01*
X124506900Y-105724500D01*
X124439861Y-105704815D01*
X124419219Y-105688181D01*
X117330563Y-98599526D01*
X117330562Y-98599525D01*
X117244938Y-98550090D01*
X117179198Y-98532475D01*
X117179195Y-98532474D01*
X117179193Y-98532473D01*
X117149438Y-98524500D01*
X117149436Y-98524500D01*
X117149435Y-98524500D01*
X115645962Y-98524500D01*
X115578923Y-98504815D01*
X115533168Y-98452011D01*
X115523224Y-98382853D01*
X115552249Y-98319297D01*
X115558281Y-98312819D01*
X116709237Y-97161864D01*
X120559283Y-93311819D01*
X120620606Y-93278334D01*
X120646964Y-93275500D01*
X129772126Y-93275500D01*
X129839165Y-93295185D01*
X129839166Y-93295185D01*
X129939947Y-93359953D01*
X129939948Y-93359953D01*
X129939949Y-93359954D01*
X130078036Y-93400499D01*
X130078038Y-93400500D01*
X130078039Y-93400500D01*
X130221962Y-93400500D01*
X130221962Y-93400499D01*
X130360053Y-93359953D01*
X130481128Y-93282143D01*
X130575377Y-93173373D01*
X130635165Y-93042457D01*
X130655647Y-92900000D01*
X130635165Y-92757543D01*
X130575377Y-92626627D01*
X130481128Y-92517857D01*
X130360053Y-92440047D01*
X130360051Y-92440046D01*
X130360049Y-92440045D01*
X130360050Y-92440045D01*
X130221963Y-92399500D01*
X130221961Y-92399500D01*
X130078039Y-92399500D01*
X130078036Y-92399500D01*
X129939949Y-92440045D01*
X129939948Y-92440046D01*
X129839166Y-92504815D01*
X129772126Y-92524500D01*
X120390628Y-92524500D01*
X120295127Y-92550089D01*
X120295124Y-92550090D01*
X120209504Y-92599522D01*
X120209499Y-92599526D01*
X114219438Y-98589589D01*
X114149526Y-98659500D01*
X114100091Y-98745123D01*
X114100091Y-98745124D01*
X114100090Y-98745126D01*
X114074500Y-98840629D01*
X109310500Y-98840629D01*
X109310500Y-92974000D01*
X109330185Y-92906961D01*
X109382989Y-92861206D01*
X109434500Y-92850000D01*
X110950000Y-92850000D01*
X111450000Y-92850000D01*
X112997828Y-92850000D01*
X112997844Y-92849999D01*
X113057372Y-92843598D01*
X113057379Y-92843596D01*
X113192086Y-92793354D01*
X113192093Y-92793350D01*
X113307187Y-92707190D01*
X113307190Y-92707187D01*
X113393350Y-92592093D01*
X113393354Y-92592086D01*
X113443596Y-92457379D01*
X113443598Y-92457372D01*
X113449999Y-92397844D01*
X113450000Y-92397827D01*
X113450000Y-91850000D01*
X111450000Y-91850000D01*
X111450000Y-92850000D01*
X110950000Y-92850000D01*
X110950000Y-91350000D01*
X111450000Y-91350000D01*
X113450000Y-91350000D01*
X113450000Y-90802172D01*
X113449999Y-90802155D01*
X113443598Y-90742627D01*
X113443596Y-90742620D01*
X113393354Y-90607913D01*
X113393350Y-90607906D01*
X113307190Y-90492812D01*
X113307187Y-90492809D01*
X113192093Y-90406649D01*
X113192086Y-90406645D01*
X113057379Y-90356403D01*
X113057372Y-90356401D01*
X112997844Y-90350000D01*
X111450000Y-90350000D01*
X111450000Y-91350000D01*
X110950000Y-91350000D01*
X110950000Y-90350000D01*
X109434500Y-90350000D01*
X109367461Y-90330315D01*
X109321706Y-90277511D01*
X109310500Y-90226000D01*
X109310500Y-88000000D01*
X153994353Y-88000000D01*
X154014834Y-88142456D01*
X154074622Y-88273371D01*
X154074623Y-88273373D01*
X154168872Y-88382143D01*
X154289947Y-88459953D01*
X154289950Y-88459954D01*
X154289949Y-88459954D01*
X154428036Y-88500499D01*
X154428038Y-88500500D01*
X154428039Y-88500500D01*
X154571962Y-88500500D01*
X154571962Y-88500499D01*
X154710053Y-88459953D01*
X154831128Y-88382143D01*
X154925377Y-88273373D01*
X154985165Y-88142457D01*
X155005647Y-88000000D01*
X155994353Y-88000000D01*
X156014834Y-88142456D01*
X156074622Y-88273371D01*
X156074623Y-88273373D01*
X156168872Y-88382143D01*
X156289947Y-88459953D01*
X156289950Y-88459954D01*
X156289949Y-88459954D01*
X156428036Y-88500499D01*
X156428038Y-88500500D01*
X156428039Y-88500500D01*
X156571962Y-88500500D01*
X156571962Y-88500499D01*
X156710053Y-88459953D01*
X156831128Y-88382143D01*
X156925377Y-88273373D01*
X156985165Y-88142457D01*
X157005647Y-88000000D01*
X157003945Y-87988164D01*
X158093386Y-87988164D01*
X158113867Y-88130620D01*
X158173655Y-88261535D01*
X158173656Y-88261537D01*
X158267905Y-88370307D01*
X158388980Y-88448117D01*
X158388983Y-88448118D01*
X158388982Y-88448118D01*
X158527069Y-88488663D01*
X158527071Y-88488664D01*
X158527072Y-88488664D01*
X158670995Y-88488664D01*
X158670995Y-88488663D01*
X158809086Y-88448117D01*
X158930161Y-88370307D01*
X159024410Y-88261537D01*
X159084198Y-88130621D01*
X159102978Y-88000000D01*
X159744353Y-88000000D01*
X159764834Y-88142456D01*
X159824622Y-88273371D01*
X159824623Y-88273373D01*
X159918872Y-88382143D01*
X160039947Y-88459953D01*
X160039950Y-88459954D01*
X160039949Y-88459954D01*
X160178036Y-88500499D01*
X160178038Y-88500500D01*
X160178039Y-88500500D01*
X160321962Y-88500500D01*
X160321962Y-88500499D01*
X160460053Y-88459953D01*
X160581128Y-88382143D01*
X160675377Y-88273373D01*
X160735165Y-88142457D01*
X160755647Y-88000000D01*
X161744353Y-88000000D01*
X161764834Y-88142456D01*
X161824622Y-88273371D01*
X161824623Y-88273373D01*
X161918872Y-88382143D01*
X162039947Y-88459953D01*
X162039950Y-88459954D01*
X162039949Y-88459954D01*
X162178036Y-88500499D01*
X162178038Y-88500500D01*
X162178039Y-88500500D01*
X162321962Y-88500500D01*
X162321962Y-88500499D01*
X162460053Y-88459953D01*
X162581128Y-88382143D01*
X162675377Y-88273373D01*
X162735165Y-88142457D01*
X162755647Y-88000000D01*
X162735165Y-87857543D01*
X162675377Y-87726627D01*
X162581128Y-87617857D01*
X162460053Y-87540047D01*
X162460051Y-87540046D01*
X162460049Y-87540045D01*
X162460050Y-87540045D01*
X162321963Y-87499500D01*
X162321961Y-87499500D01*
X162178039Y-87499500D01*
X162178036Y-87499500D01*
X162039949Y-87540045D01*
X161918873Y-87617856D01*
X161824623Y-87726626D01*
X161824622Y-87726628D01*
X161764834Y-87857543D01*
X161744353Y-88000000D01*
X160755647Y-88000000D01*
X160735165Y-87857543D01*
X160675377Y-87726627D01*
X160581128Y-87617857D01*
X160460053Y-87540047D01*
X160460051Y-87540046D01*
X160460049Y-87540045D01*
X160460050Y-87540045D01*
X160321963Y-87499500D01*
X160321961Y-87499500D01*
X160178039Y-87499500D01*
X160178036Y-87499500D01*
X160039949Y-87540045D01*
X159918873Y-87617856D01*
X159824623Y-87726626D01*
X159824622Y-87726628D01*
X159764834Y-87857543D01*
X159744353Y-88000000D01*
X159102978Y-88000000D01*
X159104680Y-87988164D01*
X159084198Y-87845707D01*
X159024410Y-87714791D01*
X158930161Y-87606021D01*
X158809086Y-87528211D01*
X158809084Y-87528210D01*
X158809082Y-87528209D01*
X158809083Y-87528209D01*
X158670996Y-87487664D01*
X158670994Y-87487664D01*
X158527072Y-87487664D01*
X158527069Y-87487664D01*
X158388982Y-87528209D01*
X158267906Y-87606020D01*
X158173656Y-87714790D01*
X158173655Y-87714792D01*
X158113867Y-87845707D01*
X158093386Y-87988164D01*
X157003945Y-87988164D01*
X156985165Y-87857543D01*
X156925377Y-87726627D01*
X156831128Y-87617857D01*
X156710053Y-87540047D01*
X156710051Y-87540046D01*
X156710049Y-87540045D01*
X156710050Y-87540045D01*
X156571963Y-87499500D01*
X156571961Y-87499500D01*
X156428039Y-87499500D01*
X156428036Y-87499500D01*
X156289949Y-87540045D01*
X156168873Y-87617856D01*
X156074623Y-87726626D01*
X156074622Y-87726628D01*
X156014834Y-87857543D01*
X155994353Y-88000000D01*
X155005647Y-88000000D01*
X154985165Y-87857543D01*
X154925377Y-87726627D01*
X154831128Y-87617857D01*
X154710053Y-87540047D01*
X154710051Y-87540046D01*
X154710049Y-87540045D01*
X154710050Y-87540045D01*
X154571963Y-87499500D01*
X154571961Y-87499500D01*
X154428039Y-87499500D01*
X154428036Y-87499500D01*
X154289949Y-87540045D01*
X154168873Y-87617856D01*
X154074623Y-87726626D01*
X154074622Y-87726628D01*
X154014834Y-87857543D01*
X153994353Y-88000000D01*
X109310500Y-88000000D01*
X109310500Y-87574000D01*
X109330185Y-87506961D01*
X109382989Y-87461206D01*
X109434500Y-87450000D01*
X110950000Y-87450000D01*
X111450000Y-87450000D01*
X112997828Y-87450000D01*
X112997844Y-87449999D01*
X113057372Y-87443598D01*
X113057379Y-87443596D01*
X113192086Y-87393354D01*
X113192093Y-87393350D01*
X113307187Y-87307190D01*
X113307190Y-87307187D01*
X113393350Y-87192093D01*
X113393354Y-87192086D01*
X113443596Y-87057379D01*
X113443598Y-87057372D01*
X113449999Y-86997844D01*
X113450000Y-86997827D01*
X113450000Y-86450000D01*
X111450000Y-86450000D01*
X111450000Y-87450000D01*
X110950000Y-87450000D01*
X110950000Y-86000000D01*
X153994353Y-86000000D01*
X154014834Y-86142456D01*
X154074622Y-86273371D01*
X154074623Y-86273373D01*
X154168872Y-86382143D01*
X154289947Y-86459953D01*
X154289950Y-86459954D01*
X154289949Y-86459954D01*
X154428036Y-86500499D01*
X154428038Y-86500500D01*
X154428039Y-86500500D01*
X154571962Y-86500500D01*
X154571962Y-86500499D01*
X154710053Y-86459953D01*
X154831128Y-86382143D01*
X154925377Y-86273373D01*
X154985165Y-86142457D01*
X155005647Y-86000000D01*
X155994353Y-86000000D01*
X156014834Y-86142456D01*
X156074622Y-86273371D01*
X156074623Y-86273373D01*
X156168872Y-86382143D01*
X156289947Y-86459953D01*
X156289950Y-86459954D01*
X156289949Y-86459954D01*
X156428036Y-86500499D01*
X156428038Y-86500500D01*
X156428039Y-86500500D01*
X156571962Y-86500500D01*
X156571962Y-86500499D01*
X156710053Y-86459953D01*
X156831128Y-86382143D01*
X156925377Y-86273373D01*
X156985165Y-86142457D01*
X157005647Y-86000000D01*
X157003945Y-85988164D01*
X158093386Y-85988164D01*
X158113867Y-86130620D01*
X158119273Y-86142457D01*
X158173656Y-86261537D01*
X158267905Y-86370307D01*
X158388980Y-86448117D01*
X158388983Y-86448118D01*
X158388982Y-86448118D01*
X158527069Y-86488663D01*
X158527071Y-86488664D01*
X158527072Y-86488664D01*
X158670995Y-86488664D01*
X158670995Y-86488663D01*
X158809086Y-86448117D01*
X158930161Y-86370307D01*
X159024410Y-86261537D01*
X159084198Y-86130621D01*
X159102978Y-86000000D01*
X159744353Y-86000000D01*
X159764834Y-86142456D01*
X159824622Y-86273371D01*
X159824623Y-86273373D01*
X159918872Y-86382143D01*
X160039947Y-86459953D01*
X160039950Y-86459954D01*
X160039949Y-86459954D01*
X160178036Y-86500499D01*
X160178038Y-86500500D01*
X160178039Y-86500500D01*
X160321962Y-86500500D01*
X160321962Y-86500499D01*
X160460053Y-86459953D01*
X160581128Y-86382143D01*
X160675377Y-86273373D01*
X160735165Y-86142457D01*
X160755647Y-86000000D01*
X161744353Y-86000000D01*
X161764834Y-86142456D01*
X161824622Y-86273371D01*
X161824623Y-86273373D01*
X161918872Y-86382143D01*
X162039947Y-86459953D01*
X162039950Y-86459954D01*
X162039949Y-86459954D01*
X162178036Y-86500499D01*
X162178038Y-86500500D01*
X162178039Y-86500500D01*
X162321962Y-86500500D01*
X162321962Y-86500499D01*
X162460053Y-86459953D01*
X162581128Y-86382143D01*
X162675377Y-86273373D01*
X162735165Y-86142457D01*
X162755647Y-86000000D01*
X162735165Y-85857543D01*
X162675377Y-85726627D01*
X162581128Y-85617857D01*
X162460053Y-85540047D01*
X162460051Y-85540046D01*
X162460049Y-85540045D01*
X162460050Y-85540045D01*
X162321963Y-85499500D01*
X162321961Y-85499500D01*
X162178039Y-85499500D01*
X162178036Y-85499500D01*
X162039949Y-85540045D01*
X161918873Y-85617856D01*
X161824623Y-85726626D01*
X161824622Y-85726628D01*
X161764834Y-85857543D01*
X161744353Y-86000000D01*
X160755647Y-86000000D01*
X160735165Y-85857543D01*
X160675377Y-85726627D01*
X160581128Y-85617857D01*
X160460053Y-85540047D01*
X160460051Y-85540046D01*
X160460049Y-85540045D01*
X160460050Y-85540045D01*
X160321963Y-85499500D01*
X160321961Y-85499500D01*
X160178039Y-85499500D01*
X160178036Y-85499500D01*
X160039949Y-85540045D01*
X159918873Y-85617856D01*
X159824623Y-85726626D01*
X159824622Y-85726628D01*
X159764834Y-85857543D01*
X159744353Y-86000000D01*
X159102978Y-86000000D01*
X159104680Y-85988164D01*
X159084198Y-85845707D01*
X159024410Y-85714791D01*
X158930161Y-85606021D01*
X158809086Y-85528211D01*
X158809084Y-85528210D01*
X158809082Y-85528209D01*
X158809083Y-85528209D01*
X158670996Y-85487664D01*
X158670994Y-85487664D01*
X158527072Y-85487664D01*
X158527069Y-85487664D01*
X158388982Y-85528209D01*
X158267906Y-85606020D01*
X158173656Y-85714790D01*
X158173655Y-85714792D01*
X158113867Y-85845707D01*
X158093386Y-85988164D01*
X157003945Y-85988164D01*
X156985165Y-85857543D01*
X156925377Y-85726627D01*
X156831128Y-85617857D01*
X156710053Y-85540047D01*
X156710051Y-85540046D01*
X156710049Y-85540045D01*
X156710050Y-85540045D01*
X156571963Y-85499500D01*
X156571961Y-85499500D01*
X156428039Y-85499500D01*
X156428036Y-85499500D01*
X156289949Y-85540045D01*
X156168873Y-85617856D01*
X156074623Y-85726626D01*
X156074622Y-85726628D01*
X156014834Y-85857543D01*
X155994353Y-86000000D01*
X155005647Y-86000000D01*
X154985165Y-85857543D01*
X154925377Y-85726627D01*
X154831128Y-85617857D01*
X154710053Y-85540047D01*
X154710051Y-85540046D01*
X154710049Y-85540045D01*
X154710050Y-85540045D01*
X154571963Y-85499500D01*
X154571961Y-85499500D01*
X154428039Y-85499500D01*
X154428036Y-85499500D01*
X154289949Y-85540045D01*
X154168873Y-85617856D01*
X154074623Y-85726626D01*
X154074622Y-85726628D01*
X154014834Y-85857543D01*
X153994353Y-86000000D01*
X110950000Y-86000000D01*
X110950000Y-85950000D01*
X111450000Y-85950000D01*
X113450000Y-85950000D01*
X113450000Y-85402172D01*
X113449999Y-85402155D01*
X113443598Y-85342627D01*
X113443596Y-85342620D01*
X113393354Y-85207913D01*
X113393350Y-85207906D01*
X113307190Y-85092812D01*
X113307187Y-85092809D01*
X113192093Y-85006649D01*
X113192086Y-85006645D01*
X113057379Y-84956403D01*
X113057372Y-84956401D01*
X112997844Y-84950000D01*
X111450000Y-84950000D01*
X111450000Y-85950000D01*
X110950000Y-85950000D01*
X110950000Y-84950000D01*
X109434500Y-84950000D01*
X109367461Y-84930315D01*
X109321706Y-84877511D01*
X109310500Y-84826000D01*
X109310500Y-84000000D01*
X153994353Y-84000000D01*
X154014834Y-84142456D01*
X154070050Y-84263360D01*
X154074623Y-84273373D01*
X154168872Y-84382143D01*
X154289947Y-84459953D01*
X154289950Y-84459954D01*
X154289949Y-84459954D01*
X154428036Y-84500499D01*
X154428038Y-84500500D01*
X154428039Y-84500500D01*
X154571962Y-84500500D01*
X154571962Y-84500499D01*
X154710053Y-84459953D01*
X154831128Y-84382143D01*
X154925377Y-84273373D01*
X154985165Y-84142457D01*
X155005647Y-84000000D01*
X155994353Y-84000000D01*
X156014834Y-84142456D01*
X156070050Y-84263360D01*
X156074623Y-84273373D01*
X156168872Y-84382143D01*
X156289947Y-84459953D01*
X156289950Y-84459954D01*
X156289949Y-84459954D01*
X156428036Y-84500499D01*
X156428038Y-84500500D01*
X156428039Y-84500500D01*
X156571962Y-84500500D01*
X156571962Y-84500499D01*
X156710053Y-84459953D01*
X156831128Y-84382143D01*
X156925377Y-84273373D01*
X156985165Y-84142457D01*
X157005647Y-84000000D01*
X157994353Y-84000000D01*
X158014834Y-84142456D01*
X158070050Y-84263360D01*
X158074623Y-84273373D01*
X158168872Y-84382143D01*
X158289947Y-84459953D01*
X158289950Y-84459954D01*
X158289949Y-84459954D01*
X158428036Y-84500499D01*
X158428038Y-84500500D01*
X158428039Y-84500500D01*
X158571962Y-84500500D01*
X158571962Y-84500499D01*
X158710053Y-84459953D01*
X158831128Y-84382143D01*
X158925377Y-84273373D01*
X158985165Y-84142457D01*
X159005647Y-84000000D01*
X159744353Y-84000000D01*
X159764834Y-84142456D01*
X159820050Y-84263360D01*
X159824623Y-84273373D01*
X159918872Y-84382143D01*
X160039947Y-84459953D01*
X160039950Y-84459954D01*
X160039949Y-84459954D01*
X160178036Y-84500499D01*
X160178038Y-84500500D01*
X160178039Y-84500500D01*
X160321962Y-84500500D01*
X160321962Y-84500499D01*
X160460053Y-84459953D01*
X160581128Y-84382143D01*
X160675377Y-84273373D01*
X160735165Y-84142457D01*
X160755647Y-84000000D01*
X161744353Y-84000000D01*
X161764834Y-84142456D01*
X161820050Y-84263360D01*
X161824623Y-84273373D01*
X161918872Y-84382143D01*
X162039947Y-84459953D01*
X162039950Y-84459954D01*
X162039949Y-84459954D01*
X162178036Y-84500499D01*
X162178038Y-84500500D01*
X162178039Y-84500500D01*
X162321962Y-84500500D01*
X162321962Y-84500499D01*
X162460053Y-84459953D01*
X162581128Y-84382143D01*
X162675377Y-84273373D01*
X162735165Y-84142457D01*
X162755647Y-84000000D01*
X164494353Y-84000000D01*
X164514834Y-84142456D01*
X164570050Y-84263360D01*
X164574623Y-84273373D01*
X164668872Y-84382143D01*
X164668874Y-84382144D01*
X164668876Y-84382146D01*
X164789941Y-84459950D01*
X164789944Y-84459952D01*
X164789946Y-84459952D01*
X164789947Y-84459953D01*
X164806158Y-84464712D01*
X164858906Y-84496009D01*
X169223181Y-88860284D01*
X169256666Y-88921607D01*
X169259500Y-88947965D01*
X169259500Y-102054663D01*
X169248294Y-102106174D01*
X169224835Y-102157541D01*
X169224834Y-102157542D01*
X169204353Y-102300000D01*
X169224834Y-102442456D01*
X169284622Y-102573371D01*
X169284623Y-102573373D01*
X169378872Y-102682143D01*
X169499947Y-102759953D01*
X169499950Y-102759954D01*
X169499949Y-102759954D01*
X169596084Y-102788181D01*
X169638032Y-102800498D01*
X169638036Y-102800499D01*
X169638038Y-102800500D01*
X169638039Y-102800500D01*
X169781962Y-102800500D01*
X169781962Y-102800499D01*
X169920053Y-102759953D01*
X170041128Y-102682143D01*
X170135377Y-102573373D01*
X170195165Y-102442457D01*
X170215647Y-102300000D01*
X170197505Y-102173819D01*
X170195165Y-102157542D01*
X170195164Y-102157541D01*
X170195001Y-102157185D01*
X170172331Y-102107543D01*
X170171706Y-102106174D01*
X170160500Y-102054663D01*
X170160500Y-88650693D01*
X170160500Y-88650691D01*
X170129799Y-88536114D01*
X170129799Y-88536113D01*
X170070489Y-88433386D01*
X165493014Y-83855911D01*
X165467901Y-83819741D01*
X165425379Y-83726630D01*
X165425376Y-83726626D01*
X165331128Y-83617857D01*
X165210053Y-83540047D01*
X165210051Y-83540046D01*
X165210049Y-83540045D01*
X165210050Y-83540045D01*
X165071963Y-83499500D01*
X165071961Y-83499500D01*
X164928039Y-83499500D01*
X164928036Y-83499500D01*
X164789949Y-83540045D01*
X164668873Y-83617856D01*
X164574623Y-83726626D01*
X164574622Y-83726628D01*
X164514834Y-83857543D01*
X164494353Y-84000000D01*
X162755647Y-84000000D01*
X162735165Y-83857543D01*
X162675377Y-83726627D01*
X162581128Y-83617857D01*
X162460053Y-83540047D01*
X162460051Y-83540046D01*
X162460049Y-83540045D01*
X162460050Y-83540045D01*
X162321963Y-83499500D01*
X162321961Y-83499500D01*
X162178039Y-83499500D01*
X162178036Y-83499500D01*
X162039949Y-83540045D01*
X161918873Y-83617856D01*
X161824623Y-83726626D01*
X161824622Y-83726628D01*
X161764834Y-83857543D01*
X161744353Y-84000000D01*
X160755647Y-84000000D01*
X160735165Y-83857543D01*
X160675377Y-83726627D01*
X160581128Y-83617857D01*
X160460053Y-83540047D01*
X160460051Y-83540046D01*
X160460049Y-83540045D01*
X160460050Y-83540045D01*
X160321963Y-83499500D01*
X160321961Y-83499500D01*
X160178039Y-83499500D01*
X160178036Y-83499500D01*
X160039949Y-83540045D01*
X159918873Y-83617856D01*
X159824623Y-83726626D01*
X159824622Y-83726628D01*
X159764834Y-83857543D01*
X159744353Y-84000000D01*
X159005647Y-84000000D01*
X158985165Y-83857543D01*
X158925377Y-83726627D01*
X158831128Y-83617857D01*
X158710053Y-83540047D01*
X158710051Y-83540046D01*
X158710049Y-83540045D01*
X158710050Y-83540045D01*
X158571963Y-83499500D01*
X158571961Y-83499500D01*
X158428039Y-83499500D01*
X158428036Y-83499500D01*
X158289949Y-83540045D01*
X158168873Y-83617856D01*
X158074623Y-83726626D01*
X158074622Y-83726628D01*
X158014834Y-83857543D01*
X157994353Y-84000000D01*
X157005647Y-84000000D01*
X156985165Y-83857543D01*
X156925377Y-83726627D01*
X156831128Y-83617857D01*
X156710053Y-83540047D01*
X156710051Y-83540046D01*
X156710049Y-83540045D01*
X156710050Y-83540045D01*
X156571963Y-83499500D01*
X156571961Y-83499500D01*
X156428039Y-83499500D01*
X156428036Y-83499500D01*
X156289949Y-83540045D01*
X156168873Y-83617856D01*
X156074623Y-83726626D01*
X156074622Y-83726628D01*
X156014834Y-83857543D01*
X155994353Y-84000000D01*
X155005647Y-84000000D01*
X154985165Y-83857543D01*
X154925377Y-83726627D01*
X154831128Y-83617857D01*
X154710053Y-83540047D01*
X154710051Y-83540046D01*
X154710049Y-83540045D01*
X154710050Y-83540045D01*
X154571963Y-83499500D01*
X154571961Y-83499500D01*
X154428039Y-83499500D01*
X154428036Y-83499500D01*
X154289949Y-83540045D01*
X154168873Y-83617856D01*
X154074623Y-83726626D01*
X154074622Y-83726628D01*
X154014834Y-83857543D01*
X153994353Y-84000000D01*
X109310500Y-84000000D01*
X109310500Y-81970000D01*
X125504353Y-81970000D01*
X125524834Y-82112456D01*
X125582244Y-82238164D01*
X125584623Y-82243373D01*
X125678872Y-82352143D01*
X125799947Y-82429953D01*
X125799950Y-82429954D01*
X125799949Y-82429954D01*
X125938036Y-82470499D01*
X125938038Y-82470500D01*
X125938039Y-82470500D01*
X126081962Y-82470500D01*
X126081962Y-82470499D01*
X126220053Y-82429953D01*
X126320834Y-82365184D01*
X126387874Y-82345500D01*
X131929435Y-82345500D01*
X131929436Y-82345500D01*
X131977186Y-82332705D01*
X132024938Y-82319910D01*
X132110562Y-82270475D01*
X132131037Y-82250000D01*
X153994353Y-82250000D01*
X154014834Y-82392456D01*
X154072890Y-82519579D01*
X154074623Y-82523373D01*
X154168872Y-82632143D01*
X154289947Y-82709953D01*
X154289950Y-82709954D01*
X154289949Y-82709954D01*
X154428036Y-82750499D01*
X154428038Y-82750500D01*
X154428039Y-82750500D01*
X154571962Y-82750500D01*
X154571962Y-82750499D01*
X154710053Y-82709953D01*
X154831128Y-82632143D01*
X154925377Y-82523373D01*
X154985165Y-82392457D01*
X155005647Y-82250000D01*
X155994353Y-82250000D01*
X156014834Y-82392456D01*
X156072890Y-82519579D01*
X156074623Y-82523373D01*
X156168872Y-82632143D01*
X156289947Y-82709953D01*
X156289950Y-82709954D01*
X156289949Y-82709954D01*
X156428036Y-82750499D01*
X156428038Y-82750500D01*
X156428039Y-82750500D01*
X156571962Y-82750500D01*
X156571962Y-82750499D01*
X156710053Y-82709953D01*
X156831128Y-82632143D01*
X156925377Y-82523373D01*
X156985165Y-82392457D01*
X157005647Y-82250000D01*
X157003945Y-82238164D01*
X158093386Y-82238164D01*
X158113867Y-82380620D01*
X158136397Y-82429953D01*
X158173656Y-82511537D01*
X158267905Y-82620307D01*
X158388980Y-82698117D01*
X158388983Y-82698118D01*
X158388982Y-82698118D01*
X158527069Y-82738663D01*
X158527071Y-82738664D01*
X158527072Y-82738664D01*
X158670995Y-82738664D01*
X158670995Y-82738663D01*
X158809086Y-82698117D01*
X158930161Y-82620307D01*
X159024410Y-82511537D01*
X159084198Y-82380621D01*
X159102978Y-82250000D01*
X159744353Y-82250000D01*
X159764834Y-82392456D01*
X159822890Y-82519579D01*
X159824623Y-82523373D01*
X159918872Y-82632143D01*
X160039947Y-82709953D01*
X160039950Y-82709954D01*
X160039949Y-82709954D01*
X160178036Y-82750499D01*
X160178038Y-82750500D01*
X160178039Y-82750500D01*
X160321962Y-82750500D01*
X160321962Y-82750499D01*
X160460053Y-82709953D01*
X160581128Y-82632143D01*
X160675377Y-82523373D01*
X160735165Y-82392457D01*
X160755647Y-82250000D01*
X161744353Y-82250000D01*
X161764834Y-82392456D01*
X161822890Y-82519579D01*
X161824623Y-82523373D01*
X161918872Y-82632143D01*
X162039947Y-82709953D01*
X162039950Y-82709954D01*
X162039949Y-82709954D01*
X162178036Y-82750499D01*
X162178038Y-82750500D01*
X162178039Y-82750500D01*
X162321962Y-82750500D01*
X162321962Y-82750499D01*
X162460053Y-82709953D01*
X162581128Y-82632143D01*
X162675377Y-82523373D01*
X162735165Y-82392457D01*
X162755647Y-82250000D01*
X164494353Y-82250000D01*
X164514834Y-82392456D01*
X164572890Y-82519579D01*
X164574623Y-82523373D01*
X164668872Y-82632143D01*
X164668874Y-82632144D01*
X164668876Y-82632146D01*
X164789941Y-82709950D01*
X164789944Y-82709952D01*
X164789946Y-82709952D01*
X164789947Y-82709953D01*
X164806158Y-82714712D01*
X164858906Y-82746009D01*
X170723181Y-88610284D01*
X170756666Y-88671607D01*
X170759500Y-88697965D01*
X170759500Y-102054663D01*
X170748294Y-102106174D01*
X170724835Y-102157541D01*
X170724834Y-102157542D01*
X170704353Y-102300000D01*
X170724834Y-102442456D01*
X170784622Y-102573371D01*
X170784623Y-102573373D01*
X170878872Y-102682143D01*
X170999947Y-102759953D01*
X170999950Y-102759954D01*
X170999949Y-102759954D01*
X171096084Y-102788181D01*
X171138032Y-102800498D01*
X171138036Y-102800499D01*
X171138038Y-102800500D01*
X171138039Y-102800500D01*
X171281962Y-102800500D01*
X171281962Y-102800499D01*
X171420053Y-102759953D01*
X171541128Y-102682143D01*
X171635377Y-102573373D01*
X171695165Y-102442457D01*
X171715647Y-102300000D01*
X171697505Y-102173819D01*
X171695165Y-102157542D01*
X171695164Y-102157541D01*
X171695001Y-102157185D01*
X171672331Y-102107543D01*
X171671706Y-102106174D01*
X171660500Y-102054663D01*
X171660500Y-96326660D01*
X173096892Y-96326660D01*
X173096892Y-96326661D01*
X173110692Y-96335333D01*
X173110691Y-96335333D01*
X173280861Y-96394878D01*
X173459997Y-96415062D01*
X173460003Y-96415062D01*
X173639138Y-96394878D01*
X173639141Y-96394877D01*
X173809305Y-96335334D01*
X173809306Y-96335334D01*
X173823106Y-96326661D01*
X173823106Y-96326660D01*
X174196892Y-96326660D01*
X174196892Y-96326661D01*
X174210692Y-96335333D01*
X174210691Y-96335333D01*
X174380861Y-96394878D01*
X174559997Y-96415062D01*
X174560003Y-96415062D01*
X174739138Y-96394878D01*
X174739141Y-96394877D01*
X174909305Y-96335334D01*
X174909306Y-96335334D01*
X174923106Y-96326661D01*
X174923106Y-96326660D01*
X174560001Y-95963553D01*
X174560000Y-95963553D01*
X174196892Y-96326660D01*
X173823106Y-96326660D01*
X173460001Y-95963553D01*
X173460000Y-95963553D01*
X173096892Y-96326660D01*
X171660500Y-96326660D01*
X171660500Y-95776660D01*
X172546892Y-95776660D01*
X172546892Y-95776661D01*
X172560692Y-95785333D01*
X172560699Y-95785336D01*
X172633205Y-95810708D01*
X172689981Y-95851430D01*
X172709291Y-95886793D01*
X172734664Y-95959302D01*
X172743338Y-95973107D01*
X173106446Y-95610000D01*
X173086555Y-95590109D01*
X173360000Y-95590109D01*
X173360000Y-95629891D01*
X173375224Y-95666645D01*
X173403355Y-95694776D01*
X173440109Y-95710000D01*
X173479891Y-95710000D01*
X173516645Y-95694776D01*
X173544776Y-95666645D01*
X173560000Y-95629891D01*
X173560000Y-95609999D01*
X173813553Y-95609999D01*
X174010000Y-95806446D01*
X174206446Y-95610000D01*
X174186555Y-95590109D01*
X174460000Y-95590109D01*
X174460000Y-95629891D01*
X174475224Y-95666645D01*
X174503355Y-95694776D01*
X174540109Y-95710000D01*
X174579891Y-95710000D01*
X174616645Y-95694776D01*
X174644776Y-95666645D01*
X174660000Y-95629891D01*
X174660000Y-95610000D01*
X174913553Y-95610000D01*
X175276660Y-95973106D01*
X175276661Y-95973106D01*
X175285334Y-95959306D01*
X175285334Y-95959305D01*
X175310707Y-95886795D01*
X175351429Y-95830019D01*
X175386795Y-95810707D01*
X175459305Y-95785334D01*
X175459306Y-95785334D01*
X175473106Y-95776661D01*
X175473106Y-95776660D01*
X175110000Y-95413553D01*
X175044241Y-95479313D01*
X175044240Y-95479314D01*
X174913553Y-95610000D01*
X174660000Y-95610000D01*
X174660000Y-95590109D01*
X174644776Y-95553355D01*
X174616645Y-95525224D01*
X174579891Y-95510000D01*
X174540109Y-95510000D01*
X174503355Y-95525224D01*
X174475224Y-95553355D01*
X174460000Y-95590109D01*
X174186555Y-95590109D01*
X174075760Y-95479314D01*
X174010000Y-95413553D01*
X173944241Y-95479313D01*
X173944240Y-95479314D01*
X173813553Y-95609999D01*
X173560000Y-95609999D01*
X173560000Y-95590109D01*
X173544776Y-95553355D01*
X173516645Y-95525224D01*
X173479891Y-95510000D01*
X173440109Y-95510000D01*
X173403355Y-95525224D01*
X173375224Y-95553355D01*
X173360000Y-95590109D01*
X173086555Y-95590109D01*
X172909999Y-95413553D01*
X172909998Y-95413553D01*
X172546892Y-95776660D01*
X171660500Y-95776660D01*
X171660500Y-95059997D01*
X172104938Y-95059997D01*
X172104938Y-95060002D01*
X172125121Y-95239138D01*
X172184665Y-95409304D01*
X172193338Y-95423107D01*
X172556446Y-95060000D01*
X172556446Y-95059999D01*
X172536556Y-95040109D01*
X172810000Y-95040109D01*
X172810000Y-95079891D01*
X172825224Y-95116645D01*
X172853355Y-95144776D01*
X172890109Y-95160000D01*
X172929891Y-95160000D01*
X172966645Y-95144776D01*
X172994776Y-95116645D01*
X173010000Y-95079891D01*
X173010000Y-95059999D01*
X173263553Y-95059999D01*
X173263553Y-95060000D01*
X173309645Y-95106091D01*
X173460000Y-95256446D01*
X173656446Y-95060000D01*
X173636555Y-95040109D01*
X173910000Y-95040109D01*
X173910000Y-95079891D01*
X173925224Y-95116645D01*
X173953355Y-95144776D01*
X173990109Y-95160000D01*
X174029891Y-95160000D01*
X174066645Y-95144776D01*
X174094776Y-95116645D01*
X174110000Y-95079891D01*
X174110000Y-95059999D01*
X174363553Y-95059999D01*
X174363553Y-95060000D01*
X174409645Y-95106091D01*
X174560000Y-95256446D01*
X174756446Y-95060000D01*
X174736555Y-95040109D01*
X175010000Y-95040109D01*
X175010000Y-95079891D01*
X175025224Y-95116645D01*
X175053355Y-95144776D01*
X175090109Y-95160000D01*
X175129891Y-95160000D01*
X175166645Y-95144776D01*
X175194776Y-95116645D01*
X175210000Y-95079891D01*
X175210000Y-95060000D01*
X175463553Y-95060000D01*
X175826660Y-95423106D01*
X175826661Y-95423106D01*
X175835334Y-95409306D01*
X175835334Y-95409305D01*
X175894877Y-95239141D01*
X175894878Y-95239138D01*
X175915062Y-95060002D01*
X175915062Y-95059997D01*
X175894878Y-94880861D01*
X175835333Y-94710692D01*
X175826661Y-94696892D01*
X175826660Y-94696892D01*
X175463553Y-95060000D01*
X175210000Y-95060000D01*
X175210000Y-95040109D01*
X175194776Y-95003355D01*
X175166645Y-94975224D01*
X175129891Y-94960000D01*
X175090109Y-94960000D01*
X175053355Y-94975224D01*
X175025224Y-95003355D01*
X175010000Y-95040109D01*
X174736555Y-95040109D01*
X174596445Y-94899999D01*
X174560000Y-94863553D01*
X174523555Y-94899999D01*
X174523554Y-94899999D01*
X174363553Y-95059999D01*
X174110000Y-95059999D01*
X174110000Y-95040109D01*
X174094776Y-95003355D01*
X174066645Y-94975224D01*
X174029891Y-94960000D01*
X173990109Y-94960000D01*
X173953355Y-94975224D01*
X173925224Y-95003355D01*
X173910000Y-95040109D01*
X173636555Y-95040109D01*
X173496445Y-94899999D01*
X173460000Y-94863553D01*
X173423555Y-94899999D01*
X173423554Y-94899999D01*
X173263553Y-95059999D01*
X173010000Y-95059999D01*
X173010000Y-95040109D01*
X172994776Y-95003355D01*
X172966645Y-94975224D01*
X172929891Y-94960000D01*
X172890109Y-94960000D01*
X172853355Y-94975224D01*
X172825224Y-95003355D01*
X172810000Y-95040109D01*
X172536556Y-95040109D01*
X172193338Y-94696891D01*
X172193337Y-94696891D01*
X172184667Y-94710691D01*
X172184662Y-94710701D01*
X172125122Y-94880858D01*
X172125121Y-94880861D01*
X172104938Y-95059997D01*
X171660500Y-95059997D01*
X171660500Y-94510000D01*
X172713553Y-94510000D01*
X172713553Y-94510001D01*
X172909998Y-94706446D01*
X172909999Y-94706446D01*
X173066356Y-94550090D01*
X173106446Y-94510000D01*
X173086555Y-94490109D01*
X173360000Y-94490109D01*
X173360000Y-94529891D01*
X173375224Y-94566645D01*
X173403355Y-94594776D01*
X173440109Y-94610000D01*
X173479891Y-94610000D01*
X173516645Y-94594776D01*
X173544776Y-94566645D01*
X173560000Y-94529891D01*
X173560000Y-94509999D01*
X173813553Y-94509999D01*
X173853644Y-94550089D01*
X173853645Y-94550091D01*
X174010000Y-94706446D01*
X174206446Y-94510000D01*
X174186555Y-94490109D01*
X174460000Y-94490109D01*
X174460000Y-94529891D01*
X174475224Y-94566645D01*
X174503355Y-94594776D01*
X174540109Y-94610000D01*
X174579891Y-94610000D01*
X174616645Y-94594776D01*
X174644776Y-94566645D01*
X174660000Y-94529891D01*
X174660000Y-94509999D01*
X174913553Y-94509999D01*
X174953644Y-94550089D01*
X174953645Y-94550091D01*
X175110000Y-94706446D01*
X175306446Y-94510000D01*
X175110000Y-94313553D01*
X175044241Y-94379313D01*
X175044240Y-94379314D01*
X174913553Y-94509999D01*
X174660000Y-94509999D01*
X174660000Y-94490109D01*
X174644776Y-94453355D01*
X174616645Y-94425224D01*
X174579891Y-94410000D01*
X174540109Y-94410000D01*
X174503355Y-94425224D01*
X174475224Y-94453355D01*
X174460000Y-94490109D01*
X174186555Y-94490109D01*
X174075760Y-94379314D01*
X174010000Y-94313553D01*
X173944241Y-94379313D01*
X173944240Y-94379314D01*
X173813553Y-94509999D01*
X173560000Y-94509999D01*
X173560000Y-94490109D01*
X173544776Y-94453355D01*
X173516645Y-94425224D01*
X173479891Y-94410000D01*
X173440109Y-94410000D01*
X173403355Y-94425224D01*
X173375224Y-94453355D01*
X173360000Y-94490109D01*
X173086555Y-94490109D01*
X172909999Y-94313553D01*
X172713553Y-94510000D01*
X171660500Y-94510000D01*
X171660500Y-93959997D01*
X172104938Y-93959997D01*
X172104938Y-93960002D01*
X172125121Y-94139138D01*
X172184665Y-94309304D01*
X172193338Y-94323107D01*
X172556446Y-93960000D01*
X172556446Y-93959999D01*
X172536556Y-93940109D01*
X172810000Y-93940109D01*
X172810000Y-93979891D01*
X172825224Y-94016645D01*
X172853355Y-94044776D01*
X172890109Y-94060000D01*
X172929891Y-94060000D01*
X172966645Y-94044776D01*
X172994776Y-94016645D01*
X173010000Y-93979891D01*
X173010000Y-93960000D01*
X173263553Y-93960000D01*
X173309645Y-94006091D01*
X173460000Y-94156446D01*
X173656446Y-93960000D01*
X173636555Y-93940109D01*
X173910000Y-93940109D01*
X173910000Y-93979891D01*
X173925224Y-94016645D01*
X173953355Y-94044776D01*
X173990109Y-94060000D01*
X174029891Y-94060000D01*
X174066645Y-94044776D01*
X174094776Y-94016645D01*
X174110000Y-93979891D01*
X174110000Y-93960000D01*
X174363553Y-93960000D01*
X174409645Y-94006091D01*
X174560000Y-94156446D01*
X174756446Y-93960000D01*
X174736555Y-93940109D01*
X175010000Y-93940109D01*
X175010000Y-93979891D01*
X175025224Y-94016645D01*
X175053355Y-94044776D01*
X175090109Y-94060000D01*
X175129891Y-94060000D01*
X175166645Y-94044776D01*
X175194776Y-94016645D01*
X175210000Y-93979891D01*
X175210000Y-93960000D01*
X175463553Y-93960000D01*
X175826660Y-94323106D01*
X175826661Y-94323106D01*
X175835334Y-94309306D01*
X175835334Y-94309305D01*
X175894877Y-94139141D01*
X175894878Y-94139138D01*
X175915062Y-93960002D01*
X175915062Y-93959997D01*
X175894878Y-93780861D01*
X175835333Y-93610692D01*
X175826661Y-93596892D01*
X175826660Y-93596892D01*
X175463553Y-93960000D01*
X175210000Y-93960000D01*
X175210000Y-93940109D01*
X175194776Y-93903355D01*
X175166645Y-93875224D01*
X175129891Y-93860000D01*
X175090109Y-93860000D01*
X175053355Y-93875224D01*
X175025224Y-93903355D01*
X175010000Y-93940109D01*
X174736555Y-93940109D01*
X174625760Y-93829314D01*
X174560000Y-93763553D01*
X174494241Y-93829313D01*
X174494240Y-93829314D01*
X174363553Y-93960000D01*
X174110000Y-93960000D01*
X174110000Y-93940109D01*
X174094776Y-93903355D01*
X174066645Y-93875224D01*
X174029891Y-93860000D01*
X173990109Y-93860000D01*
X173953355Y-93875224D01*
X173925224Y-93903355D01*
X173910000Y-93940109D01*
X173636555Y-93940109D01*
X173525760Y-93829314D01*
X173460000Y-93763553D01*
X173394241Y-93829313D01*
X173394240Y-93829314D01*
X173263553Y-93960000D01*
X173010000Y-93960000D01*
X173010000Y-93940109D01*
X172994776Y-93903355D01*
X172966645Y-93875224D01*
X172929891Y-93860000D01*
X172890109Y-93860000D01*
X172853355Y-93875224D01*
X172825224Y-93903355D01*
X172810000Y-93940109D01*
X172536556Y-93940109D01*
X172193338Y-93596891D01*
X172193337Y-93596891D01*
X172184667Y-93610691D01*
X172184662Y-93610701D01*
X172125122Y-93780858D01*
X172125121Y-93780861D01*
X172104938Y-93959997D01*
X171660500Y-93959997D01*
X171660500Y-93243338D01*
X172546891Y-93243338D01*
X172909998Y-93606446D01*
X173058395Y-93458051D01*
X173106446Y-93409998D01*
X173086557Y-93390109D01*
X173360000Y-93390109D01*
X173360000Y-93429891D01*
X173375224Y-93466645D01*
X173403355Y-93494776D01*
X173440109Y-93510000D01*
X173479891Y-93510000D01*
X173516645Y-93494776D01*
X173544776Y-93466645D01*
X173560000Y-93429891D01*
X173560000Y-93409999D01*
X173813553Y-93409999D01*
X174010000Y-93606446D01*
X174158393Y-93458053D01*
X174206446Y-93409998D01*
X174186557Y-93390109D01*
X174460000Y-93390109D01*
X174460000Y-93429891D01*
X174475224Y-93466645D01*
X174503355Y-93494776D01*
X174540109Y-93510000D01*
X174579891Y-93510000D01*
X174616645Y-93494776D01*
X174644776Y-93466645D01*
X174660000Y-93429891D01*
X174660000Y-93409998D01*
X174913553Y-93409998D01*
X174913553Y-93409999D01*
X175110000Y-93606446D01*
X175110001Y-93606446D01*
X175473107Y-93243338D01*
X175459302Y-93234664D01*
X175386793Y-93209291D01*
X175330017Y-93168569D01*
X175310708Y-93133205D01*
X175285336Y-93060699D01*
X175285333Y-93060692D01*
X175276661Y-93046892D01*
X175276660Y-93046892D01*
X174913553Y-93409998D01*
X174660000Y-93409998D01*
X174660000Y-93390109D01*
X174644776Y-93353355D01*
X174616645Y-93325224D01*
X174579891Y-93310000D01*
X174540109Y-93310000D01*
X174503355Y-93325224D01*
X174475224Y-93353355D01*
X174460000Y-93390109D01*
X174186557Y-93390109D01*
X174010001Y-93213553D01*
X173813553Y-93409999D01*
X173560000Y-93409999D01*
X173560000Y-93390109D01*
X173544776Y-93353355D01*
X173516645Y-93325224D01*
X173479891Y-93310000D01*
X173440109Y-93310000D01*
X173403355Y-93325224D01*
X173375224Y-93353355D01*
X173360000Y-93390109D01*
X173086557Y-93390109D01*
X172743338Y-93046891D01*
X172734664Y-93060695D01*
X172734659Y-93060705D01*
X172709291Y-93133205D01*
X172668569Y-93189981D01*
X172633205Y-93209291D01*
X172560705Y-93234659D01*
X172560695Y-93234664D01*
X172546891Y-93243338D01*
X171660500Y-93243338D01*
X171660500Y-92693337D01*
X173096891Y-92693337D01*
X173096891Y-92693338D01*
X173460000Y-93056446D01*
X173460001Y-93056446D01*
X173823107Y-92693338D01*
X173823105Y-92693337D01*
X174196891Y-92693337D01*
X174196891Y-92693338D01*
X174560000Y-93056446D01*
X174560001Y-93056446D01*
X174923107Y-92693338D01*
X174909304Y-92684665D01*
X174739138Y-92625121D01*
X174560003Y-92604938D01*
X174559997Y-92604938D01*
X174380861Y-92625121D01*
X174380858Y-92625122D01*
X174210701Y-92684662D01*
X174210691Y-92684667D01*
X174196891Y-92693337D01*
X173823105Y-92693337D01*
X173809304Y-92684665D01*
X173639138Y-92625121D01*
X173460003Y-92604938D01*
X173459997Y-92604938D01*
X173280861Y-92625121D01*
X173280858Y-92625122D01*
X173110701Y-92684662D01*
X173110691Y-92684667D01*
X173096891Y-92693337D01*
X171660500Y-92693337D01*
X171660500Y-88400692D01*
X171636286Y-88310325D01*
X171636286Y-88310324D01*
X171633544Y-88300091D01*
X171629799Y-88286113D01*
X171570489Y-88183386D01*
X165493014Y-82105911D01*
X165467901Y-82069741D01*
X165425379Y-81976630D01*
X165425376Y-81976626D01*
X165419635Y-81970000D01*
X165331128Y-81867857D01*
X165210053Y-81790047D01*
X165210051Y-81790046D01*
X165210049Y-81790045D01*
X165210050Y-81790045D01*
X165071963Y-81749500D01*
X165071961Y-81749500D01*
X164928039Y-81749500D01*
X164928036Y-81749500D01*
X164789949Y-81790045D01*
X164668873Y-81867856D01*
X164574623Y-81976626D01*
X164574622Y-81976628D01*
X164514834Y-82107543D01*
X164494353Y-82250000D01*
X162755647Y-82250000D01*
X162735165Y-82107543D01*
X162675377Y-81976627D01*
X162581128Y-81867857D01*
X162460053Y-81790047D01*
X162460051Y-81790046D01*
X162460049Y-81790045D01*
X162460050Y-81790045D01*
X162321963Y-81749500D01*
X162321961Y-81749500D01*
X162178039Y-81749500D01*
X162178036Y-81749500D01*
X162039949Y-81790045D01*
X161918873Y-81867856D01*
X161824623Y-81976626D01*
X161824622Y-81976628D01*
X161764834Y-82107543D01*
X161744353Y-82250000D01*
X160755647Y-82250000D01*
X160735165Y-82107543D01*
X160675377Y-81976627D01*
X160581128Y-81867857D01*
X160460053Y-81790047D01*
X160460051Y-81790046D01*
X160460049Y-81790045D01*
X160460050Y-81790045D01*
X160321963Y-81749500D01*
X160321961Y-81749500D01*
X160178039Y-81749500D01*
X160178036Y-81749500D01*
X160039949Y-81790045D01*
X159918873Y-81867856D01*
X159824623Y-81976626D01*
X159824622Y-81976628D01*
X159764834Y-82107543D01*
X159744353Y-82250000D01*
X159102978Y-82250000D01*
X159104680Y-82238164D01*
X159084198Y-82095707D01*
X159024410Y-81964791D01*
X158930161Y-81856021D01*
X158809086Y-81778211D01*
X158809084Y-81778210D01*
X158809082Y-81778209D01*
X158809083Y-81778209D01*
X158670996Y-81737664D01*
X158670994Y-81737664D01*
X158527072Y-81737664D01*
X158527069Y-81737664D01*
X158388982Y-81778209D01*
X158267906Y-81856020D01*
X158173656Y-81964790D01*
X158173655Y-81964792D01*
X158113867Y-82095707D01*
X158093386Y-82238164D01*
X157003945Y-82238164D01*
X156985165Y-82107543D01*
X156925377Y-81976627D01*
X156831128Y-81867857D01*
X156710053Y-81790047D01*
X156710051Y-81790046D01*
X156710049Y-81790045D01*
X156710050Y-81790045D01*
X156571963Y-81749500D01*
X156571961Y-81749500D01*
X156428039Y-81749500D01*
X156428036Y-81749500D01*
X156289949Y-81790045D01*
X156168873Y-81867856D01*
X156074623Y-81976626D01*
X156074622Y-81976628D01*
X156014834Y-82107543D01*
X155994353Y-82250000D01*
X155005647Y-82250000D01*
X154985165Y-82107543D01*
X154925377Y-81976627D01*
X154831128Y-81867857D01*
X154710053Y-81790047D01*
X154710051Y-81790046D01*
X154710049Y-81790045D01*
X154710050Y-81790045D01*
X154571963Y-81749500D01*
X154571961Y-81749500D01*
X154428039Y-81749500D01*
X154428036Y-81749500D01*
X154289949Y-81790045D01*
X154168873Y-81867856D01*
X154074623Y-81976626D01*
X154074622Y-81976628D01*
X154014834Y-82107543D01*
X153994353Y-82250000D01*
X132131037Y-82250000D01*
X132180475Y-82200562D01*
X134131037Y-80250000D01*
X153994353Y-80250000D01*
X154014834Y-80392456D01*
X154019832Y-80403399D01*
X154074623Y-80523373D01*
X154168872Y-80632143D01*
X154289947Y-80709953D01*
X154289950Y-80709954D01*
X154289949Y-80709954D01*
X154428036Y-80750499D01*
X154428038Y-80750500D01*
X154428039Y-80750500D01*
X154571962Y-80750500D01*
X154571962Y-80750499D01*
X154703160Y-80711977D01*
X154710050Y-80709954D01*
X154710050Y-80709953D01*
X154710053Y-80709953D01*
X154831128Y-80632143D01*
X154925377Y-80523373D01*
X154985165Y-80392457D01*
X155005647Y-80250000D01*
X155994353Y-80250000D01*
X156014834Y-80392456D01*
X156019832Y-80403399D01*
X156074623Y-80523373D01*
X156168872Y-80632143D01*
X156289947Y-80709953D01*
X156289950Y-80709954D01*
X156289949Y-80709954D01*
X156428036Y-80750499D01*
X156428038Y-80750500D01*
X156428039Y-80750500D01*
X156571962Y-80750500D01*
X156571962Y-80750499D01*
X156703160Y-80711977D01*
X156710050Y-80709954D01*
X156710050Y-80709953D01*
X156710053Y-80709953D01*
X156831128Y-80632143D01*
X156925377Y-80523373D01*
X156985165Y-80392457D01*
X157005647Y-80250000D01*
X157994353Y-80250000D01*
X158014834Y-80392456D01*
X158019832Y-80403399D01*
X158074623Y-80523373D01*
X158168872Y-80632143D01*
X158289947Y-80709953D01*
X158289950Y-80709954D01*
X158289949Y-80709954D01*
X158428036Y-80750499D01*
X158428038Y-80750500D01*
X158428039Y-80750500D01*
X158571962Y-80750500D01*
X158571962Y-80750499D01*
X158703160Y-80711977D01*
X158710050Y-80709954D01*
X158710050Y-80709953D01*
X158710053Y-80709953D01*
X158831128Y-80632143D01*
X158925377Y-80523373D01*
X158985165Y-80392457D01*
X159005647Y-80250000D01*
X159744353Y-80250000D01*
X159764834Y-80392456D01*
X159769832Y-80403399D01*
X159824623Y-80523373D01*
X159918872Y-80632143D01*
X160039947Y-80709953D01*
X160039950Y-80709954D01*
X160039949Y-80709954D01*
X160178036Y-80750499D01*
X160178038Y-80750500D01*
X160178039Y-80750500D01*
X160321962Y-80750500D01*
X160321962Y-80750499D01*
X160453160Y-80711977D01*
X160460050Y-80709954D01*
X160460050Y-80709953D01*
X160460053Y-80709953D01*
X160581128Y-80632143D01*
X160675377Y-80523373D01*
X160735165Y-80392457D01*
X160755647Y-80250000D01*
X161744353Y-80250000D01*
X161764834Y-80392456D01*
X161769832Y-80403399D01*
X161824623Y-80523373D01*
X161918872Y-80632143D01*
X162039947Y-80709953D01*
X162039950Y-80709954D01*
X162039949Y-80709954D01*
X162178036Y-80750499D01*
X162178038Y-80750500D01*
X162178039Y-80750500D01*
X162321962Y-80750500D01*
X162321962Y-80750499D01*
X162453160Y-80711977D01*
X162460050Y-80709954D01*
X162460050Y-80709953D01*
X162460053Y-80709953D01*
X162581128Y-80632143D01*
X162675377Y-80523373D01*
X162735165Y-80392457D01*
X162755647Y-80250000D01*
X162735165Y-80107543D01*
X162675377Y-79976627D01*
X162581128Y-79867857D01*
X162460053Y-79790047D01*
X162460051Y-79790046D01*
X162460049Y-79790045D01*
X162460050Y-79790045D01*
X162321963Y-79749500D01*
X162321961Y-79749500D01*
X162178039Y-79749500D01*
X162178036Y-79749500D01*
X162039949Y-79790045D01*
X161918873Y-79867856D01*
X161824623Y-79976626D01*
X161824622Y-79976628D01*
X161764834Y-80107543D01*
X161744353Y-80250000D01*
X160755647Y-80250000D01*
X160735165Y-80107543D01*
X160675377Y-79976627D01*
X160581128Y-79867857D01*
X160460053Y-79790047D01*
X160460051Y-79790046D01*
X160460049Y-79790045D01*
X160460050Y-79790045D01*
X160321963Y-79749500D01*
X160321961Y-79749500D01*
X160178039Y-79749500D01*
X160178036Y-79749500D01*
X160039949Y-79790045D01*
X159918873Y-79867856D01*
X159824623Y-79976626D01*
X159824622Y-79976628D01*
X159764834Y-80107543D01*
X159744353Y-80250000D01*
X159005647Y-80250000D01*
X158985165Y-80107543D01*
X158925377Y-79976627D01*
X158831128Y-79867857D01*
X158710053Y-79790047D01*
X158710051Y-79790046D01*
X158710049Y-79790045D01*
X158710050Y-79790045D01*
X158571963Y-79749500D01*
X158571961Y-79749500D01*
X158428039Y-79749500D01*
X158428036Y-79749500D01*
X158289949Y-79790045D01*
X158168873Y-79867856D01*
X158074623Y-79976626D01*
X158074622Y-79976628D01*
X158014834Y-80107543D01*
X157994353Y-80250000D01*
X157005647Y-80250000D01*
X156985165Y-80107543D01*
X156925377Y-79976627D01*
X156831128Y-79867857D01*
X156710053Y-79790047D01*
X156710051Y-79790046D01*
X156710049Y-79790045D01*
X156710050Y-79790045D01*
X156571963Y-79749500D01*
X156571961Y-79749500D01*
X156428039Y-79749500D01*
X156428036Y-79749500D01*
X156289949Y-79790045D01*
X156168873Y-79867856D01*
X156074623Y-79976626D01*
X156074622Y-79976628D01*
X156014834Y-80107543D01*
X155994353Y-80250000D01*
X155005647Y-80250000D01*
X154985165Y-80107543D01*
X154925377Y-79976627D01*
X154831128Y-79867857D01*
X154710053Y-79790047D01*
X154710051Y-79790046D01*
X154710049Y-79790045D01*
X154710050Y-79790045D01*
X154571963Y-79749500D01*
X154571961Y-79749500D01*
X154428039Y-79749500D01*
X154428036Y-79749500D01*
X154289949Y-79790045D01*
X154168873Y-79867856D01*
X154074623Y-79976626D01*
X154074622Y-79976628D01*
X154014834Y-80107543D01*
X153994353Y-80250000D01*
X134131037Y-80250000D01*
X135752774Y-78628263D01*
X136738908Y-78628263D01*
X136738908Y-78765332D01*
X136765645Y-78899747D01*
X136765648Y-78899759D01*
X136818094Y-79026376D01*
X136818101Y-79026389D01*
X136894244Y-79140344D01*
X136894247Y-79140348D01*
X136991157Y-79237258D01*
X136991161Y-79237261D01*
X137105116Y-79313404D01*
X137105129Y-79313411D01*
X137231746Y-79365857D01*
X137231751Y-79365859D01*
X137366173Y-79392597D01*
X137366177Y-79392598D01*
X137366178Y-79392598D01*
X137503239Y-79392598D01*
X137503240Y-79392597D01*
X137637665Y-79365859D01*
X137764293Y-79313408D01*
X137878255Y-79237261D01*
X137975171Y-79140345D01*
X138051318Y-79026383D01*
X138103769Y-78899755D01*
X138130508Y-78765328D01*
X138130508Y-78628268D01*
X138130507Y-78628263D01*
X144738908Y-78628263D01*
X144738908Y-78765332D01*
X144765645Y-78899747D01*
X144765648Y-78899759D01*
X144818094Y-79026376D01*
X144818101Y-79026389D01*
X144894244Y-79140344D01*
X144894247Y-79140348D01*
X144991157Y-79237258D01*
X144991161Y-79237261D01*
X145105116Y-79313404D01*
X145105129Y-79313411D01*
X145231746Y-79365857D01*
X145231751Y-79365859D01*
X145366173Y-79392597D01*
X145366177Y-79392598D01*
X145366178Y-79392598D01*
X145503239Y-79392598D01*
X145503240Y-79392597D01*
X145637665Y-79365859D01*
X145764293Y-79313408D01*
X145878255Y-79237261D01*
X145975171Y-79140345D01*
X146051318Y-79026383D01*
X146103769Y-78899755D01*
X146130508Y-78765328D01*
X146130508Y-78628268D01*
X146103769Y-78493841D01*
X146097980Y-78479866D01*
X146051321Y-78367219D01*
X146051314Y-78367206D01*
X145975171Y-78253251D01*
X145975168Y-78253247D01*
X145878258Y-78156337D01*
X145878254Y-78156334D01*
X145764299Y-78080191D01*
X145764286Y-78080184D01*
X145637669Y-78027738D01*
X145637657Y-78027735D01*
X145503242Y-78000998D01*
X145503238Y-78000998D01*
X145366178Y-78000998D01*
X145366173Y-78000998D01*
X145231758Y-78027735D01*
X145231746Y-78027738D01*
X145105129Y-78080184D01*
X145105116Y-78080191D01*
X144991161Y-78156334D01*
X144991157Y-78156337D01*
X144894247Y-78253247D01*
X144894244Y-78253251D01*
X144818101Y-78367206D01*
X144818094Y-78367219D01*
X144765648Y-78493836D01*
X144765645Y-78493848D01*
X144738908Y-78628263D01*
X138130507Y-78628263D01*
X138103769Y-78493841D01*
X138097980Y-78479866D01*
X138051321Y-78367219D01*
X138051314Y-78367206D01*
X137975171Y-78253251D01*
X137975168Y-78253247D01*
X137878258Y-78156337D01*
X137878254Y-78156334D01*
X137764299Y-78080191D01*
X137764286Y-78080184D01*
X137637669Y-78027738D01*
X137637657Y-78027735D01*
X137503242Y-78000998D01*
X137503238Y-78000998D01*
X137366178Y-78000998D01*
X137366173Y-78000998D01*
X137231758Y-78027735D01*
X137231746Y-78027738D01*
X137105129Y-78080184D01*
X137105116Y-78080191D01*
X136991161Y-78156334D01*
X136991157Y-78156337D01*
X136894247Y-78253247D01*
X136894244Y-78253251D01*
X136818101Y-78367206D01*
X136818094Y-78367219D01*
X136765648Y-78493836D01*
X136765645Y-78493848D01*
X136738908Y-78628263D01*
X135752774Y-78628263D01*
X138471218Y-75909819D01*
X138532541Y-75876334D01*
X138558899Y-75873500D01*
X149424628Y-75873500D01*
X149486629Y-75890114D01*
X149507057Y-75901908D01*
X149507058Y-75901908D01*
X149507063Y-75901911D01*
X149602564Y-75927500D01*
X149602565Y-75927500D01*
X156281557Y-75927500D01*
X156343559Y-75944114D01*
X156357062Y-75951910D01*
X156372979Y-75956175D01*
X156404811Y-75964705D01*
X156404812Y-75964705D01*
X156414903Y-75967408D01*
X156452564Y-75977500D01*
X156452565Y-75977500D01*
X163398564Y-75977500D01*
X163442628Y-75977500D01*
X163442629Y-75977500D01*
X164684101Y-75977500D01*
X164751140Y-75997185D01*
X164771782Y-76013819D01*
X169073681Y-80315718D01*
X169107166Y-80377041D01*
X169110000Y-80403399D01*
X169110000Y-81341988D01*
X169052993Y-81309075D01*
X168925826Y-81275000D01*
X168794174Y-81275000D01*
X168667007Y-81309075D01*
X168610000Y-81341988D01*
X168610000Y-80425000D01*
X167962155Y-80425000D01*
X167902627Y-80431401D01*
X167902620Y-80431403D01*
X167767913Y-80481645D01*
X167767906Y-80481649D01*
X167652812Y-80567809D01*
X167652809Y-80567812D01*
X167566649Y-80682906D01*
X167566645Y-80682913D01*
X167516403Y-80817620D01*
X167516401Y-80817627D01*
X167510000Y-80877155D01*
X167510000Y-81525000D01*
X168426988Y-81525000D01*
X168394075Y-81582007D01*
X168360000Y-81709174D01*
X168360000Y-81840826D01*
X168394075Y-81967993D01*
X168426988Y-82025000D01*
X167510000Y-82025000D01*
X167510000Y-82672844D01*
X167516401Y-82732372D01*
X167516403Y-82732379D01*
X167566645Y-82867086D01*
X167566649Y-82867093D01*
X167652809Y-82982187D01*
X167652812Y-82982190D01*
X167767906Y-83068350D01*
X167767913Y-83068354D01*
X167902620Y-83118596D01*
X167902627Y-83118598D01*
X167962155Y-83124999D01*
X167962172Y-83125000D01*
X168610000Y-83125000D01*
X168610000Y-82208012D01*
X168667007Y-82240925D01*
X168794174Y-82275000D01*
X168925826Y-82275000D01*
X169052993Y-82240925D01*
X169110000Y-82208012D01*
X169110000Y-83125000D01*
X169757828Y-83125000D01*
X169757844Y-83124999D01*
X169817372Y-83118598D01*
X169817379Y-83118596D01*
X169952086Y-83068354D01*
X169952093Y-83068350D01*
X170067186Y-82982190D01*
X170124404Y-82905759D01*
X170180338Y-82863888D01*
X170250030Y-82858904D01*
X170311351Y-82892388D01*
X171274873Y-83855911D01*
X172219432Y-84800470D01*
X172252917Y-84861793D01*
X172254489Y-84870503D01*
X172264834Y-84942453D01*
X172264835Y-84942458D01*
X172271203Y-84956401D01*
X172324623Y-85073373D01*
X172418872Y-85182143D01*
X172539947Y-85259953D01*
X172539950Y-85259954D01*
X172539949Y-85259954D01*
X172678036Y-85300499D01*
X172678038Y-85300500D01*
X172678039Y-85300500D01*
X172821962Y-85300500D01*
X172821962Y-85300499D01*
X172960053Y-85259953D01*
X173081128Y-85182143D01*
X173175377Y-85073373D01*
X173235165Y-84942457D01*
X173255647Y-84800000D01*
X173235165Y-84657543D01*
X173175377Y-84526627D01*
X173081128Y-84417857D01*
X172960053Y-84340047D01*
X172960051Y-84340046D01*
X172960049Y-84340045D01*
X172960050Y-84340045D01*
X172821958Y-84299498D01*
X172814429Y-84298416D01*
X172750874Y-84269390D01*
X172744398Y-84263360D01*
X171545786Y-83064748D01*
X171512301Y-83003425D01*
X171517285Y-82933733D01*
X171559157Y-82877800D01*
X171610678Y-82855180D01*
X171702456Y-82838024D01*
X171892637Y-82764348D01*
X172066041Y-82656981D01*
X172212602Y-82523373D01*
X172216762Y-82519581D01*
X172222837Y-82511537D01*
X172339673Y-82356821D01*
X172430582Y-82174250D01*
X172486397Y-81978083D01*
X172505215Y-81775000D01*
X172499115Y-81709174D01*
X172486397Y-81571917D01*
X172457256Y-81469500D01*
X172430582Y-81375750D01*
X172430159Y-81374901D01*
X172380415Y-81275000D01*
X172339673Y-81193179D01*
X172216764Y-81030421D01*
X172216762Y-81030418D01*
X172066041Y-80893019D01*
X172066039Y-80893017D01*
X171892642Y-80785655D01*
X171892635Y-80785651D01*
X171797546Y-80748814D01*
X171702456Y-80711976D01*
X171501976Y-80674500D01*
X171298024Y-80674500D01*
X171097544Y-80711976D01*
X171097541Y-80711976D01*
X171097541Y-80711977D01*
X170907364Y-80785651D01*
X170907357Y-80785655D01*
X170791611Y-80857322D01*
X170724251Y-80875877D01*
X170657551Y-80855069D01*
X170618947Y-80813895D01*
X170598477Y-80778440D01*
X170598473Y-80778435D01*
X165121563Y-75301526D01*
X165121562Y-75301525D01*
X165035940Y-75252091D01*
X165035939Y-75252090D01*
X164953714Y-75230058D01*
X164940436Y-75226500D01*
X164940435Y-75226500D01*
X164940434Y-75226500D01*
X163618017Y-75226500D01*
X163585923Y-75222275D01*
X163519468Y-75204468D01*
X163420596Y-75204468D01*
X163354141Y-75222275D01*
X163322047Y-75226500D01*
X156673906Y-75226500D01*
X156611906Y-75209887D01*
X156594939Y-75200091D01*
X156594938Y-75200090D01*
X156563103Y-75191560D01*
X156499436Y-75174500D01*
X156400564Y-75174500D01*
X156400561Y-75174500D01*
X156393436Y-75175439D01*
X156377248Y-75176500D01*
X149825371Y-75176500D01*
X149763371Y-75159887D01*
X149742940Y-75148091D01*
X149742939Y-75148090D01*
X149742938Y-75148090D01*
X149695186Y-75135295D01*
X149695184Y-75135294D01*
X149695182Y-75135293D01*
X149647436Y-75122500D01*
X149647435Y-75122500D01*
X138401436Y-75122500D01*
X138302564Y-75122500D01*
X138254812Y-75135295D01*
X138254811Y-75135294D01*
X138207063Y-75148089D01*
X138207062Y-75148089D01*
X138121435Y-75197527D01*
X131760782Y-81558181D01*
X131699459Y-81591666D01*
X131673101Y-81594500D01*
X126387874Y-81594500D01*
X126320835Y-81574815D01*
X126320834Y-81574815D01*
X126220051Y-81510046D01*
X126220050Y-81510045D01*
X126081963Y-81469500D01*
X126081961Y-81469500D01*
X125938039Y-81469500D01*
X125938036Y-81469500D01*
X125799949Y-81510045D01*
X125678873Y-81587856D01*
X125584623Y-81696626D01*
X125584622Y-81696628D01*
X125524834Y-81827543D01*
X125504353Y-81970000D01*
X109310500Y-81970000D01*
X109310500Y-78591803D01*
X109330185Y-78524764D01*
X109382989Y-78479009D01*
X109452147Y-78469065D01*
X109515703Y-78498090D01*
X109553477Y-78556868D01*
X109553628Y-78557386D01*
X109574049Y-78628267D01*
X109626146Y-78809101D01*
X109716149Y-79026389D01*
X109757264Y-79125648D01*
X109818949Y-79237258D01*
X109922998Y-79425521D01*
X110121269Y-79704959D01*
X110349570Y-79960426D01*
X110349573Y-79960429D01*
X110605040Y-80188730D01*
X110605046Y-80188734D01*
X110605047Y-80188735D01*
X110884479Y-80387002D01*
X111184352Y-80552736D01*
X111500896Y-80683853D01*
X111830130Y-80778704D01*
X112167914Y-80836096D01*
X112510000Y-80855307D01*
X112852086Y-80836096D01*
X113189870Y-80778704D01*
X113519104Y-80683853D01*
X113835648Y-80552736D01*
X114135521Y-80387002D01*
X114414953Y-80188735D01*
X114670428Y-79960428D01*
X114898735Y-79704953D01*
X115097002Y-79425521D01*
X115262736Y-79125648D01*
X115393853Y-78809104D01*
X115488704Y-78479870D01*
X115546096Y-78142086D01*
X115565307Y-77800000D01*
X115546096Y-77457914D01*
X115488704Y-77120130D01*
X115393853Y-76790896D01*
X115262736Y-76474352D01*
X115097002Y-76174479D01*
X114898735Y-75895047D01*
X114898734Y-75895046D01*
X114898730Y-75895040D01*
X114670429Y-75639573D01*
X114670426Y-75639570D01*
X114414959Y-75411269D01*
X114135521Y-75212998D01*
X113835646Y-75047263D01*
X113770087Y-75020108D01*
X113519104Y-74916147D01*
X113267475Y-74843653D01*
X113208506Y-74806180D01*
X113179158Y-74742773D01*
X113188748Y-74673564D01*
X113234233Y-74620528D01*
X113301172Y-74600502D01*
X113301804Y-74600500D01*
X176718196Y-74600500D01*
X176785235Y-74620185D01*
G37*
%TD.AperFunction*%
%TD*%
M02*
