M48
; DRILL file {KiCad 8.0.2} date 2024-05-15T15:04:29-0400
; FORMAT={-:-/ absolute / inch / decimal}
; #@! TF.CreationDate,2024-05-15T15:04:29-04:00
; #@! TF.GenerationSoftware,Kicad,Pcbnew,8.0.2
; #@! TF.FileFunction,Plated,1,2,PTH
FMAT,2
INCH
; #@! TA.AperFunction,Plated,PTH,ComponentDrill
T1C0.0079
; #@! TA.AperFunction,Plated,PTH,ViaDrill
T2C0.0089
; #@! TA.AperFunction,Plated,PTH,ComponentDrill
T3C0.0197
; #@! TA.AperFunction,Plated,PTH,ComponentDrill
T4C0.0394
; #@! TA.AperFunction,Plated,PTH,ComponentDrill
T5C0.0512
; #@! TA.AperFunction,Plated,PTH,ComponentDrill
T6C0.1260
%
G90
G05
T1
X6.8075Y-3.6992
X6.8075Y-3.7425
X6.8291Y-3.6776
X6.8291Y-3.7209
X6.8291Y-3.7642
X6.8508Y-3.6992
X6.8508Y-3.7425
X6.8724Y-3.6776
X6.8724Y-3.7209
X6.8724Y-3.7642
X6.8941Y-3.6992
X6.8941Y-3.7425
T2
X4.3701Y-3.2441
X4.3799Y-3.6909
X4.3858Y-3.9016
X4.3917Y-4.122
X4.4882Y-3.4154
X4.502Y-3.2598
X4.5335Y-3.8937
X4.563Y-4.1713
X4.6358Y-3.5433
X4.6654Y-3.6024
X4.7106Y-4.0512
X4.7244Y-3.8228
X4.7441Y-3.7362
X4.7835Y-3.2244
X4.8031Y-4.2913
X4.813Y-3.0807
X4.8465Y-3.4016
X4.874Y-3.9803
X4.8839Y-3.2185
X4.9409Y-3.9311
X4.9409Y-4.1437
X4.9409Y-4.4488
X4.961Y-3.2272
X4.9705Y-3.5433
X5.0787Y-3.3976
X5.1234Y-3.7362
X5.1234Y-3.815
X5.1234Y-3.8937
X5.1234Y-3.9724
X5.124Y-3.6575
X5.126Y-4.2579
X5.1476Y-2.9823
X5.1476Y-4.3898
X5.2382Y-4.0157
X5.2677Y-3.626
X5.3169Y-3.8701
X5.3327Y-4.2677
X5.3484Y-3.9547
X5.3583Y-3.2461
X5.3681Y-3.002
X5.3701Y-3.7047
X5.374Y-3.5531
X5.4035Y-4.0059
X5.4213Y-3.876
X5.4626Y-3.6909
X5.4817Y-3.602
X5.5059Y-3.3898
X5.5295Y-3.6024
X5.5413Y-3.9665
X5.561Y-4.0059
X5.5886Y-3.8031
X5.6063Y-3.935
X5.6181Y-4.25
X5.624Y-3.065
X5.6437Y-3.8287
X5.6713Y-3.6024
X5.6713Y-3.6929
X5.687Y-3.8484
X5.7067Y-3.2559
X5.7185Y-3.6024
X5.7283Y-3.7795
X5.7776Y-4.3799
X5.7874Y-4.1339
X5.7992Y-4.3071
X5.8742Y-3.5283
X5.876Y-3.9961
X5.8799Y-2.9921
X5.8996Y-3.7657
X5.9252Y-3.937
X5.9646Y-4.252
X5.9744Y-3.7008
X5.9803Y-2.9547
X6.0177Y-3.7835
X6.0236Y-4.3898
X6.0433Y-4.4567
X6.0827Y-3.1594
X6.0827Y-3.2382
X6.0827Y-3.3071
X6.0827Y-3.3858
X6.0827Y-3.4646
X6.0925Y-4.2126
X6.1224Y-3.8386
X6.1614Y-3.1594
X6.1614Y-3.2382
X6.1614Y-3.3071
X6.1614Y-3.3858
X6.1614Y-3.4646
X6.1693Y-2.9567
X6.2402Y-3.1594
X6.2402Y-3.3071
X6.2441Y-3.2377
X6.2441Y-3.3854
X6.2441Y-3.4641
X6.25Y-3.7205
X6.25Y-3.8091
X6.25Y-3.8976
X6.2524Y-4.0323
X6.3091Y-3.1594
X6.3091Y-3.2382
X6.3091Y-3.3071
X6.3091Y-3.3858
X6.3091Y-3.4646
X6.3114Y-3.5709
X6.3169Y-4.4449
X6.3189Y-3.6614
X6.3583Y-3.8189
X6.3602Y-4.0571
X6.3681Y-3.6909
X6.3681Y-3.9075
X6.3862Y-4.1397
X6.3878Y-3.1594
X6.3878Y-3.2382
X6.3878Y-3.3071
X6.3878Y-3.3858
X6.3878Y-3.4646
X6.3976Y-3.8189
X6.4449Y-2.9567
X6.4469Y-4.4685
X6.4744Y-3.0571
X6.4961Y-3.2382
X6.4961Y-3.3071
X6.5Y-3.5571
X6.6024Y-3.5039
X6.6161Y-3.061
X6.624Y-4.0295
X6.6673Y-2.9587
X6.6815Y-4.0276
X6.7406Y-4.0276
X6.8012Y-3.3386
X6.815Y-4.2126
X6.8524Y-2.9921
X6.8602Y-3.8583
X6.874Y-4.2618
X6.8898Y-3.25
X6.9094Y-3.5827
X6.9177Y-4.0276
X6.9803Y-4.0256
X7.0354Y-4.0276
X7.0374Y-3.5728
X7.0374Y-3.8386
X7.0374Y-4.1929
X7.0571Y-3.2382
X7.0669Y-4.2067
T4
X6.648Y-3.2195
X6.748Y-3.2195
T5
X5.6836Y-4.3543
X5.8804Y-4.3543
X6.1776Y-4.3563
X6.3744Y-4.3563
T6
X4.4295Y-3.063
X4.4295Y-4.3917
X6.9886Y-3.063
X6.9886Y-4.3917
T3
G00X6.5476Y-4.4626
M15
G01X6.5476Y-4.4902
M16
G05
G00X6.8075Y-4.4626
M15
G01X6.8075Y-4.4902
M16
G05
M30
