%TF.GenerationSoftware,KiCad,Pcbnew,8.0.2*%
%TF.CreationDate,2024-05-15T15:04:29-04:00*%
%TF.ProjectId,stargazer,73746172-6761-47a6-9572-2e6b69636164,rev?*%
%TF.SameCoordinates,Original*%
%TF.FileFunction,Drillmap*%
%TF.FilePolarity,Positive*%
%FSLAX45Y45*%
G04 Gerber Fmt 4.5, Leading zero omitted, Abs format (unit mm)*
G04 Created by KiCad (PCBNEW 8.0.2) date 2024-05-15 15:04:29*
%MOMM*%
%LPD*%
G01*
G04 APERTURE LIST*
%ADD10C,0.100000*%
%ADD11C,0.200000*%
%ADD12C,0.130000*%
%ADD13C,0.320000*%
G04 APERTURE END LIST*
D10*
X11251000Y-7430000D02*
X17751000Y-7430000D01*
X11251000Y-11505000D02*
G75*
G02*
X10901000Y-11155000I0J350000D01*
G01*
X17751000Y-7430000D02*
G75*
G02*
X18101000Y-7780000I0J-350000D01*
G01*
X18101000Y-11155000D02*
G75*
G02*
X17751000Y-11505000I-350000J0D01*
G01*
X18101000Y-7780000D02*
X18101000Y-11155000D01*
X10901000Y-11155000D02*
X10901000Y-7780000D01*
X17751000Y-11505000D02*
X11251000Y-11505000D01*
X10901000Y-7780000D02*
G75*
G02*
X11251000Y-7430000I350000J0D01*
G01*
D11*
D10*
X17281000Y-9386000D02*
X17301000Y-9406000D01*
X17301000Y-9386000D02*
X17281000Y-9406000D01*
X17281000Y-9496000D02*
X17301000Y-9516000D01*
X17301000Y-9496000D02*
X17281000Y-9516000D01*
X17336000Y-9331000D02*
X17356000Y-9351000D01*
X17356000Y-9331000D02*
X17336000Y-9351000D01*
X17336000Y-9441000D02*
X17356000Y-9461000D01*
X17356000Y-9441000D02*
X17336000Y-9461000D01*
X17336000Y-9551000D02*
X17356000Y-9571000D01*
X17356000Y-9551000D02*
X17336000Y-9571000D01*
X17391000Y-9386000D02*
X17411000Y-9406000D01*
X17411000Y-9386000D02*
X17391000Y-9406000D01*
X17391000Y-9496000D02*
X17411000Y-9516000D01*
X17411000Y-9496000D02*
X17391000Y-9516000D01*
X17446000Y-9331000D02*
X17466000Y-9351000D01*
X17466000Y-9331000D02*
X17446000Y-9351000D01*
X17446000Y-9441000D02*
X17466000Y-9461000D01*
X17466000Y-9441000D02*
X17446000Y-9461000D01*
X17446000Y-9551000D02*
X17466000Y-9571000D01*
X17466000Y-9551000D02*
X17446000Y-9571000D01*
X17501000Y-9386000D02*
X17521000Y-9406000D01*
X17521000Y-9386000D02*
X17501000Y-9406000D01*
X17501000Y-9496000D02*
X17521000Y-9516000D01*
X17521000Y-9496000D02*
X17501000Y-9516000D01*
X11111250Y-8240000D02*
G75*
G02*
X11088750Y-8240000I-11250J0D01*
G01*
X11088750Y-8240000D02*
G75*
G02*
X11111250Y-8240000I11250J0D01*
G01*
X11136250Y-9375000D02*
G75*
G02*
X11113750Y-9375000I-11250J0D01*
G01*
X11113750Y-9375000D02*
G75*
G02*
X11136250Y-9375000I11250J0D01*
G01*
X11151250Y-9910000D02*
G75*
G02*
X11128750Y-9910000I-11250J0D01*
G01*
X11128750Y-9910000D02*
G75*
G02*
X11151250Y-9910000I11250J0D01*
G01*
X11166250Y-10470000D02*
G75*
G02*
X11143750Y-10470000I-11250J0D01*
G01*
X11143750Y-10470000D02*
G75*
G02*
X11166250Y-10470000I11250J0D01*
G01*
X11411250Y-8675000D02*
G75*
G02*
X11388750Y-8675000I-11250J0D01*
G01*
X11388750Y-8675000D02*
G75*
G02*
X11411250Y-8675000I11250J0D01*
G01*
X11446250Y-8280000D02*
G75*
G02*
X11423750Y-8280000I-11250J0D01*
G01*
X11423750Y-8280000D02*
G75*
G02*
X11446250Y-8280000I11250J0D01*
G01*
X11526250Y-9890000D02*
G75*
G02*
X11503750Y-9890000I-11250J0D01*
G01*
X11503750Y-9890000D02*
G75*
G02*
X11526250Y-9890000I11250J0D01*
G01*
X11601250Y-10595000D02*
G75*
G02*
X11578750Y-10595000I-11250J0D01*
G01*
X11578750Y-10595000D02*
G75*
G02*
X11601250Y-10595000I11250J0D01*
G01*
X11786250Y-9000000D02*
G75*
G02*
X11763750Y-9000000I-11250J0D01*
G01*
X11763750Y-9000000D02*
G75*
G02*
X11786250Y-9000000I11250J0D01*
G01*
X11861250Y-9150000D02*
G75*
G02*
X11838750Y-9150000I-11250J0D01*
G01*
X11838750Y-9150000D02*
G75*
G02*
X11861250Y-9150000I11250J0D01*
G01*
X11976250Y-10290000D02*
G75*
G02*
X11953750Y-10290000I-11250J0D01*
G01*
X11953750Y-10290000D02*
G75*
G02*
X11976250Y-10290000I11250J0D01*
G01*
X12011250Y-9710000D02*
G75*
G02*
X11988750Y-9710000I-11250J0D01*
G01*
X11988750Y-9710000D02*
G75*
G02*
X12011250Y-9710000I11250J0D01*
G01*
X12061250Y-9490000D02*
G75*
G02*
X12038750Y-9490000I-11250J0D01*
G01*
X12038750Y-9490000D02*
G75*
G02*
X12061250Y-9490000I11250J0D01*
G01*
X12161250Y-8190000D02*
G75*
G02*
X12138750Y-8190000I-11250J0D01*
G01*
X12138750Y-8190000D02*
G75*
G02*
X12161250Y-8190000I11250J0D01*
G01*
X12211250Y-10900000D02*
G75*
G02*
X12188750Y-10900000I-11250J0D01*
G01*
X12188750Y-10900000D02*
G75*
G02*
X12211250Y-10900000I11250J0D01*
G01*
X12236250Y-7825000D02*
G75*
G02*
X12213750Y-7825000I-11250J0D01*
G01*
X12213750Y-7825000D02*
G75*
G02*
X12236250Y-7825000I11250J0D01*
G01*
X12321250Y-8640000D02*
G75*
G02*
X12298750Y-8640000I-11250J0D01*
G01*
X12298750Y-8640000D02*
G75*
G02*
X12321250Y-8640000I11250J0D01*
G01*
X12391250Y-10110000D02*
G75*
G02*
X12368750Y-10110000I-11250J0D01*
G01*
X12368750Y-10110000D02*
G75*
G02*
X12391250Y-10110000I11250J0D01*
G01*
X12416250Y-8175000D02*
G75*
G02*
X12393750Y-8175000I-11250J0D01*
G01*
X12393750Y-8175000D02*
G75*
G02*
X12416250Y-8175000I11250J0D01*
G01*
X12561250Y-9985000D02*
G75*
G02*
X12538750Y-9985000I-11250J0D01*
G01*
X12538750Y-9985000D02*
G75*
G02*
X12561250Y-9985000I11250J0D01*
G01*
X12561250Y-10525000D02*
G75*
G02*
X12538750Y-10525000I-11250J0D01*
G01*
X12538750Y-10525000D02*
G75*
G02*
X12561250Y-10525000I11250J0D01*
G01*
X12561250Y-11300000D02*
G75*
G02*
X12538750Y-11300000I-11250J0D01*
G01*
X12538750Y-11300000D02*
G75*
G02*
X12561250Y-11300000I11250J0D01*
G01*
X12612250Y-8197000D02*
G75*
G02*
X12589750Y-8197000I-11250J0D01*
G01*
X12589750Y-8197000D02*
G75*
G02*
X12612250Y-8197000I11250J0D01*
G01*
X12636250Y-9000000D02*
G75*
G02*
X12613750Y-9000000I-11250J0D01*
G01*
X12613750Y-9000000D02*
G75*
G02*
X12636250Y-9000000I11250J0D01*
G01*
X12911250Y-8630000D02*
G75*
G02*
X12888750Y-8630000I-11250J0D01*
G01*
X12888750Y-8630000D02*
G75*
G02*
X12911250Y-8630000I11250J0D01*
G01*
X13024750Y-9490000D02*
G75*
G02*
X13002250Y-9490000I-11250J0D01*
G01*
X13002250Y-9490000D02*
G75*
G02*
X13024750Y-9490000I11250J0D01*
G01*
X13024750Y-9690000D02*
G75*
G02*
X13002250Y-9690000I-11250J0D01*
G01*
X13002250Y-9690000D02*
G75*
G02*
X13024750Y-9690000I11250J0D01*
G01*
X13024750Y-9890000D02*
G75*
G02*
X13002250Y-9890000I-11250J0D01*
G01*
X13002250Y-9890000D02*
G75*
G02*
X13024750Y-9890000I11250J0D01*
G01*
X13024750Y-10090000D02*
G75*
G02*
X13002250Y-10090000I-11250J0D01*
G01*
X13002250Y-10090000D02*
G75*
G02*
X13024750Y-10090000I11250J0D01*
G01*
X13026250Y-9290000D02*
G75*
G02*
X13003750Y-9290000I-11250J0D01*
G01*
X13003750Y-9290000D02*
G75*
G02*
X13026250Y-9290000I11250J0D01*
G01*
X13031250Y-10815000D02*
G75*
G02*
X13008750Y-10815000I-11250J0D01*
G01*
X13008750Y-10815000D02*
G75*
G02*
X13031250Y-10815000I11250J0D01*
G01*
X13086250Y-7575000D02*
G75*
G02*
X13063750Y-7575000I-11250J0D01*
G01*
X13063750Y-7575000D02*
G75*
G02*
X13086250Y-7575000I11250J0D01*
G01*
X13086250Y-11150000D02*
G75*
G02*
X13063750Y-11150000I-11250J0D01*
G01*
X13063750Y-11150000D02*
G75*
G02*
X13086250Y-11150000I11250J0D01*
G01*
X13316250Y-10200000D02*
G75*
G02*
X13293750Y-10200000I-11250J0D01*
G01*
X13293750Y-10200000D02*
G75*
G02*
X13316250Y-10200000I11250J0D01*
G01*
X13391250Y-9210000D02*
G75*
G02*
X13368750Y-9210000I-11250J0D01*
G01*
X13368750Y-9210000D02*
G75*
G02*
X13391250Y-9210000I11250J0D01*
G01*
X13516250Y-9830000D02*
G75*
G02*
X13493750Y-9830000I-11250J0D01*
G01*
X13493750Y-9830000D02*
G75*
G02*
X13516250Y-9830000I11250J0D01*
G01*
X13556250Y-10840000D02*
G75*
G02*
X13533750Y-10840000I-11250J0D01*
G01*
X13533750Y-10840000D02*
G75*
G02*
X13556250Y-10840000I11250J0D01*
G01*
X13596250Y-10045000D02*
G75*
G02*
X13573750Y-10045000I-11250J0D01*
G01*
X13573750Y-10045000D02*
G75*
G02*
X13596250Y-10045000I11250J0D01*
G01*
X13621250Y-8245000D02*
G75*
G02*
X13598750Y-8245000I-11250J0D01*
G01*
X13598750Y-8245000D02*
G75*
G02*
X13621250Y-8245000I11250J0D01*
G01*
X13646250Y-7625000D02*
G75*
G02*
X13623750Y-7625000I-11250J0D01*
G01*
X13623750Y-7625000D02*
G75*
G02*
X13646250Y-7625000I11250J0D01*
G01*
X13651250Y-9410000D02*
G75*
G02*
X13628750Y-9410000I-11250J0D01*
G01*
X13628750Y-9410000D02*
G75*
G02*
X13651250Y-9410000I11250J0D01*
G01*
X13661250Y-9025000D02*
G75*
G02*
X13638750Y-9025000I-11250J0D01*
G01*
X13638750Y-9025000D02*
G75*
G02*
X13661250Y-9025000I11250J0D01*
G01*
X13736250Y-10175000D02*
G75*
G02*
X13713750Y-10175000I-11250J0D01*
G01*
X13713750Y-10175000D02*
G75*
G02*
X13736250Y-10175000I11250J0D01*
G01*
X13781250Y-9845000D02*
G75*
G02*
X13758750Y-9845000I-11250J0D01*
G01*
X13758750Y-9845000D02*
G75*
G02*
X13781250Y-9845000I11250J0D01*
G01*
X13886250Y-9375000D02*
G75*
G02*
X13863750Y-9375000I-11250J0D01*
G01*
X13863750Y-9375000D02*
G75*
G02*
X13886250Y-9375000I11250J0D01*
G01*
X13934720Y-9149000D02*
G75*
G02*
X13912220Y-9149000I-11250J0D01*
G01*
X13912220Y-9149000D02*
G75*
G02*
X13934720Y-9149000I11250J0D01*
G01*
X13996250Y-8610000D02*
G75*
G02*
X13973750Y-8610000I-11250J0D01*
G01*
X13973750Y-8610000D02*
G75*
G02*
X13996250Y-8610000I11250J0D01*
G01*
X14056250Y-9150000D02*
G75*
G02*
X14033750Y-9150000I-11250J0D01*
G01*
X14033750Y-9150000D02*
G75*
G02*
X14056250Y-9150000I11250J0D01*
G01*
X14086250Y-10075000D02*
G75*
G02*
X14063750Y-10075000I-11250J0D01*
G01*
X14063750Y-10075000D02*
G75*
G02*
X14086250Y-10075000I11250J0D01*
G01*
X14136250Y-10175000D02*
G75*
G02*
X14113750Y-10175000I-11250J0D01*
G01*
X14113750Y-10175000D02*
G75*
G02*
X14136250Y-10175000I11250J0D01*
G01*
X14206250Y-9660000D02*
G75*
G02*
X14183750Y-9660000I-11250J0D01*
G01*
X14183750Y-9660000D02*
G75*
G02*
X14206250Y-9660000I11250J0D01*
G01*
X14251250Y-9995000D02*
G75*
G02*
X14228750Y-9995000I-11250J0D01*
G01*
X14228750Y-9995000D02*
G75*
G02*
X14251250Y-9995000I11250J0D01*
G01*
X14281250Y-10795000D02*
G75*
G02*
X14258750Y-10795000I-11250J0D01*
G01*
X14258750Y-10795000D02*
G75*
G02*
X14281250Y-10795000I11250J0D01*
G01*
X14296250Y-7785000D02*
G75*
G02*
X14273750Y-7785000I-11250J0D01*
G01*
X14273750Y-7785000D02*
G75*
G02*
X14296250Y-7785000I11250J0D01*
G01*
X14346250Y-9725000D02*
G75*
G02*
X14323750Y-9725000I-11250J0D01*
G01*
X14323750Y-9725000D02*
G75*
G02*
X14346250Y-9725000I11250J0D01*
G01*
X14416250Y-9150000D02*
G75*
G02*
X14393750Y-9150000I-11250J0D01*
G01*
X14393750Y-9150000D02*
G75*
G02*
X14416250Y-9150000I11250J0D01*
G01*
X14416250Y-9380000D02*
G75*
G02*
X14393750Y-9380000I-11250J0D01*
G01*
X14393750Y-9380000D02*
G75*
G02*
X14416250Y-9380000I11250J0D01*
G01*
X14456250Y-9775000D02*
G75*
G02*
X14433750Y-9775000I-11250J0D01*
G01*
X14433750Y-9775000D02*
G75*
G02*
X14456250Y-9775000I11250J0D01*
G01*
X14506250Y-8270000D02*
G75*
G02*
X14483750Y-8270000I-11250J0D01*
G01*
X14483750Y-8270000D02*
G75*
G02*
X14506250Y-8270000I11250J0D01*
G01*
X14536250Y-9150000D02*
G75*
G02*
X14513750Y-9150000I-11250J0D01*
G01*
X14513750Y-9150000D02*
G75*
G02*
X14536250Y-9150000I11250J0D01*
G01*
X14561250Y-9600000D02*
G75*
G02*
X14538750Y-9600000I-11250J0D01*
G01*
X14538750Y-9600000D02*
G75*
G02*
X14561250Y-9600000I11250J0D01*
G01*
X14686250Y-11125000D02*
G75*
G02*
X14663750Y-11125000I-11250J0D01*
G01*
X14663750Y-11125000D02*
G75*
G02*
X14686250Y-11125000I11250J0D01*
G01*
X14711250Y-10500000D02*
G75*
G02*
X14688750Y-10500000I-11250J0D01*
G01*
X14688750Y-10500000D02*
G75*
G02*
X14711250Y-10500000I11250J0D01*
G01*
X14741250Y-10940000D02*
G75*
G02*
X14718750Y-10940000I-11250J0D01*
G01*
X14718750Y-10940000D02*
G75*
G02*
X14741250Y-10940000I11250J0D01*
G01*
X14931800Y-8961900D02*
G75*
G02*
X14909300Y-8961900I-11250J0D01*
G01*
X14909300Y-8961900D02*
G75*
G02*
X14931800Y-8961900I11250J0D01*
G01*
X14936250Y-10150000D02*
G75*
G02*
X14913750Y-10150000I-11250J0D01*
G01*
X14913750Y-10150000D02*
G75*
G02*
X14936250Y-10150000I11250J0D01*
G01*
X14946250Y-7600000D02*
G75*
G02*
X14923750Y-7600000I-11250J0D01*
G01*
X14923750Y-7600000D02*
G75*
G02*
X14946250Y-7600000I11250J0D01*
G01*
X14996250Y-9565000D02*
G75*
G02*
X14973750Y-9565000I-11250J0D01*
G01*
X14973750Y-9565000D02*
G75*
G02*
X14996250Y-9565000I11250J0D01*
G01*
X15061250Y-10000000D02*
G75*
G02*
X15038750Y-10000000I-11250J0D01*
G01*
X15038750Y-10000000D02*
G75*
G02*
X15061250Y-10000000I11250J0D01*
G01*
X15161250Y-10800000D02*
G75*
G02*
X15138750Y-10800000I-11250J0D01*
G01*
X15138750Y-10800000D02*
G75*
G02*
X15161250Y-10800000I11250J0D01*
G01*
X15186250Y-9400000D02*
G75*
G02*
X15163750Y-9400000I-11250J0D01*
G01*
X15163750Y-9400000D02*
G75*
G02*
X15186250Y-9400000I11250J0D01*
G01*
X15201250Y-7505000D02*
G75*
G02*
X15178750Y-7505000I-11250J0D01*
G01*
X15178750Y-7505000D02*
G75*
G02*
X15201250Y-7505000I11250J0D01*
G01*
X15296250Y-9610000D02*
G75*
G02*
X15273750Y-9610000I-11250J0D01*
G01*
X15273750Y-9610000D02*
G75*
G02*
X15296250Y-9610000I11250J0D01*
G01*
X15311250Y-11150000D02*
G75*
G02*
X15288750Y-11150000I-11250J0D01*
G01*
X15288750Y-11150000D02*
G75*
G02*
X15311250Y-11150000I11250J0D01*
G01*
X15361250Y-11320000D02*
G75*
G02*
X15338750Y-11320000I-11250J0D01*
G01*
X15338750Y-11320000D02*
G75*
G02*
X15361250Y-11320000I11250J0D01*
G01*
X15461250Y-8025000D02*
G75*
G02*
X15438750Y-8025000I-11250J0D01*
G01*
X15438750Y-8025000D02*
G75*
G02*
X15461250Y-8025000I11250J0D01*
G01*
X15461250Y-8225000D02*
G75*
G02*
X15438750Y-8225000I-11250J0D01*
G01*
X15438750Y-8225000D02*
G75*
G02*
X15461250Y-8225000I11250J0D01*
G01*
X15461250Y-8400000D02*
G75*
G02*
X15438750Y-8400000I-11250J0D01*
G01*
X15438750Y-8400000D02*
G75*
G02*
X15461250Y-8400000I11250J0D01*
G01*
X15461250Y-8600000D02*
G75*
G02*
X15438750Y-8600000I-11250J0D01*
G01*
X15438750Y-8600000D02*
G75*
G02*
X15461250Y-8600000I11250J0D01*
G01*
X15461250Y-8800000D02*
G75*
G02*
X15438750Y-8800000I-11250J0D01*
G01*
X15438750Y-8800000D02*
G75*
G02*
X15461250Y-8800000I11250J0D01*
G01*
X15486250Y-10700000D02*
G75*
G02*
X15463750Y-10700000I-11250J0D01*
G01*
X15463750Y-10700000D02*
G75*
G02*
X15486250Y-10700000I11250J0D01*
G01*
X15562250Y-9750000D02*
G75*
G02*
X15539750Y-9750000I-11250J0D01*
G01*
X15539750Y-9750000D02*
G75*
G02*
X15562250Y-9750000I11250J0D01*
G01*
X15661250Y-8025000D02*
G75*
G02*
X15638750Y-8025000I-11250J0D01*
G01*
X15638750Y-8025000D02*
G75*
G02*
X15661250Y-8025000I11250J0D01*
G01*
X15661250Y-8225000D02*
G75*
G02*
X15638750Y-8225000I-11250J0D01*
G01*
X15638750Y-8225000D02*
G75*
G02*
X15661250Y-8225000I11250J0D01*
G01*
X15661250Y-8400000D02*
G75*
G02*
X15638750Y-8400000I-11250J0D01*
G01*
X15638750Y-8400000D02*
G75*
G02*
X15661250Y-8400000I11250J0D01*
G01*
X15661250Y-8600000D02*
G75*
G02*
X15638750Y-8600000I-11250J0D01*
G01*
X15638750Y-8600000D02*
G75*
G02*
X15661250Y-8600000I11250J0D01*
G01*
X15661250Y-8800000D02*
G75*
G02*
X15638750Y-8800000I-11250J0D01*
G01*
X15638750Y-8800000D02*
G75*
G02*
X15661250Y-8800000I11250J0D01*
G01*
X15681250Y-7510000D02*
G75*
G02*
X15658750Y-7510000I-11250J0D01*
G01*
X15658750Y-7510000D02*
G75*
G02*
X15681250Y-7510000I11250J0D01*
G01*
X15861250Y-8025000D02*
G75*
G02*
X15838750Y-8025000I-11250J0D01*
G01*
X15838750Y-8025000D02*
G75*
G02*
X15861250Y-8025000I11250J0D01*
G01*
X15861250Y-8400000D02*
G75*
G02*
X15838750Y-8400000I-11250J0D01*
G01*
X15838750Y-8400000D02*
G75*
G02*
X15861250Y-8400000I11250J0D01*
G01*
X15871153Y-8223816D02*
G75*
G02*
X15848653Y-8223816I-11250J0D01*
G01*
X15848653Y-8223816D02*
G75*
G02*
X15871153Y-8223816I11250J0D01*
G01*
X15871153Y-8598816D02*
G75*
G02*
X15848653Y-8598816I-11250J0D01*
G01*
X15848653Y-8598816D02*
G75*
G02*
X15871153Y-8598816I11250J0D01*
G01*
X15871153Y-8798816D02*
G75*
G02*
X15848653Y-8798816I-11250J0D01*
G01*
X15848653Y-8798816D02*
G75*
G02*
X15871153Y-8798816I11250J0D01*
G01*
X15886250Y-9450000D02*
G75*
G02*
X15863750Y-9450000I-11250J0D01*
G01*
X15863750Y-9450000D02*
G75*
G02*
X15886250Y-9450000I11250J0D01*
G01*
X15886250Y-9675000D02*
G75*
G02*
X15863750Y-9675000I-11250J0D01*
G01*
X15863750Y-9675000D02*
G75*
G02*
X15886250Y-9675000I11250J0D01*
G01*
X15886250Y-9900000D02*
G75*
G02*
X15863750Y-9900000I-11250J0D01*
G01*
X15863750Y-9900000D02*
G75*
G02*
X15886250Y-9900000I11250J0D01*
G01*
X15892250Y-10242000D02*
G75*
G02*
X15869750Y-10242000I-11250J0D01*
G01*
X15869750Y-10242000D02*
G75*
G02*
X15892250Y-10242000I11250J0D01*
G01*
X16036250Y-8025000D02*
G75*
G02*
X16013750Y-8025000I-11250J0D01*
G01*
X16013750Y-8025000D02*
G75*
G02*
X16036250Y-8025000I11250J0D01*
G01*
X16036250Y-8225000D02*
G75*
G02*
X16013750Y-8225000I-11250J0D01*
G01*
X16013750Y-8225000D02*
G75*
G02*
X16036250Y-8225000I11250J0D01*
G01*
X16036250Y-8400000D02*
G75*
G02*
X16013750Y-8400000I-11250J0D01*
G01*
X16013750Y-8400000D02*
G75*
G02*
X16036250Y-8400000I11250J0D01*
G01*
X16036250Y-8600000D02*
G75*
G02*
X16013750Y-8600000I-11250J0D01*
G01*
X16013750Y-8600000D02*
G75*
G02*
X16036250Y-8600000I11250J0D01*
G01*
X16036250Y-8800000D02*
G75*
G02*
X16013750Y-8800000I-11250J0D01*
G01*
X16013750Y-8800000D02*
G75*
G02*
X16036250Y-8800000I11250J0D01*
G01*
X16042250Y-9070000D02*
G75*
G02*
X16019750Y-9070000I-11250J0D01*
G01*
X16019750Y-9070000D02*
G75*
G02*
X16042250Y-9070000I11250J0D01*
G01*
X16056250Y-11290000D02*
G75*
G02*
X16033750Y-11290000I-11250J0D01*
G01*
X16033750Y-11290000D02*
G75*
G02*
X16056250Y-11290000I11250J0D01*
G01*
X16061250Y-9300000D02*
G75*
G02*
X16038750Y-9300000I-11250J0D01*
G01*
X16038750Y-9300000D02*
G75*
G02*
X16061250Y-9300000I11250J0D01*
G01*
X16161250Y-9700000D02*
G75*
G02*
X16138750Y-9700000I-11250J0D01*
G01*
X16138750Y-9700000D02*
G75*
G02*
X16161250Y-9700000I11250J0D01*
G01*
X16166250Y-10305000D02*
G75*
G02*
X16143750Y-10305000I-11250J0D01*
G01*
X16143750Y-10305000D02*
G75*
G02*
X16166250Y-10305000I11250J0D01*
G01*
X16186250Y-9375000D02*
G75*
G02*
X16163750Y-9375000I-11250J0D01*
G01*
X16163750Y-9375000D02*
G75*
G02*
X16186250Y-9375000I11250J0D01*
G01*
X16186250Y-9925000D02*
G75*
G02*
X16163750Y-9925000I-11250J0D01*
G01*
X16163750Y-9925000D02*
G75*
G02*
X16186250Y-9925000I11250J0D01*
G01*
X16232250Y-10514800D02*
G75*
G02*
X16209750Y-10514800I-11250J0D01*
G01*
X16209750Y-10514800D02*
G75*
G02*
X16232250Y-10514800I11250J0D01*
G01*
X16236250Y-8025000D02*
G75*
G02*
X16213750Y-8025000I-11250J0D01*
G01*
X16213750Y-8025000D02*
G75*
G02*
X16236250Y-8025000I11250J0D01*
G01*
X16236250Y-8225000D02*
G75*
G02*
X16213750Y-8225000I-11250J0D01*
G01*
X16213750Y-8225000D02*
G75*
G02*
X16236250Y-8225000I11250J0D01*
G01*
X16236250Y-8400000D02*
G75*
G02*
X16213750Y-8400000I-11250J0D01*
G01*
X16213750Y-8400000D02*
G75*
G02*
X16236250Y-8400000I11250J0D01*
G01*
X16236250Y-8600000D02*
G75*
G02*
X16213750Y-8600000I-11250J0D01*
G01*
X16213750Y-8600000D02*
G75*
G02*
X16236250Y-8600000I11250J0D01*
G01*
X16236250Y-8800000D02*
G75*
G02*
X16213750Y-8800000I-11250J0D01*
G01*
X16213750Y-8800000D02*
G75*
G02*
X16236250Y-8800000I11250J0D01*
G01*
X16261250Y-9700000D02*
G75*
G02*
X16238750Y-9700000I-11250J0D01*
G01*
X16238750Y-9700000D02*
G75*
G02*
X16261250Y-9700000I11250J0D01*
G01*
X16381250Y-7510000D02*
G75*
G02*
X16358750Y-7510000I-11250J0D01*
G01*
X16358750Y-7510000D02*
G75*
G02*
X16381250Y-7510000I11250J0D01*
G01*
X16386250Y-11350000D02*
G75*
G02*
X16363750Y-11350000I-11250J0D01*
G01*
X16363750Y-11350000D02*
G75*
G02*
X16386250Y-11350000I11250J0D01*
G01*
X16456250Y-7765000D02*
G75*
G02*
X16433750Y-7765000I-11250J0D01*
G01*
X16433750Y-7765000D02*
G75*
G02*
X16456250Y-7765000I11250J0D01*
G01*
X16511250Y-8225000D02*
G75*
G02*
X16488750Y-8225000I-11250J0D01*
G01*
X16488750Y-8225000D02*
G75*
G02*
X16511250Y-8225000I11250J0D01*
G01*
X16511250Y-8400000D02*
G75*
G02*
X16488750Y-8400000I-11250J0D01*
G01*
X16488750Y-8400000D02*
G75*
G02*
X16511250Y-8400000I11250J0D01*
G01*
X16521250Y-9035000D02*
G75*
G02*
X16498750Y-9035000I-11250J0D01*
G01*
X16498750Y-9035000D02*
G75*
G02*
X16521250Y-9035000I11250J0D01*
G01*
X16781250Y-8900000D02*
G75*
G02*
X16758750Y-8900000I-11250J0D01*
G01*
X16758750Y-8900000D02*
G75*
G02*
X16781250Y-8900000I11250J0D01*
G01*
X16816250Y-7775000D02*
G75*
G02*
X16793750Y-7775000I-11250J0D01*
G01*
X16793750Y-7775000D02*
G75*
G02*
X16816250Y-7775000I11250J0D01*
G01*
X16836250Y-10235000D02*
G75*
G02*
X16813750Y-10235000I-11250J0D01*
G01*
X16813750Y-10235000D02*
G75*
G02*
X16836250Y-10235000I11250J0D01*
G01*
X16946250Y-7515000D02*
G75*
G02*
X16923750Y-7515000I-11250J0D01*
G01*
X16923750Y-7515000D02*
G75*
G02*
X16946250Y-7515000I11250J0D01*
G01*
X16982250Y-10230000D02*
G75*
G02*
X16959750Y-10230000I-11250J0D01*
G01*
X16959750Y-10230000D02*
G75*
G02*
X16982250Y-10230000I11250J0D01*
G01*
X17132250Y-10230000D02*
G75*
G02*
X17109750Y-10230000I-11250J0D01*
G01*
X17109750Y-10230000D02*
G75*
G02*
X17132250Y-10230000I11250J0D01*
G01*
X17286250Y-8480000D02*
G75*
G02*
X17263750Y-8480000I-11250J0D01*
G01*
X17263750Y-8480000D02*
G75*
G02*
X17286250Y-8480000I11250J0D01*
G01*
X17321250Y-10700000D02*
G75*
G02*
X17298750Y-10700000I-11250J0D01*
G01*
X17298750Y-10700000D02*
G75*
G02*
X17321250Y-10700000I11250J0D01*
G01*
X17416250Y-7600000D02*
G75*
G02*
X17393750Y-7600000I-11250J0D01*
G01*
X17393750Y-7600000D02*
G75*
G02*
X17416250Y-7600000I11250J0D01*
G01*
X17436250Y-9800000D02*
G75*
G02*
X17413750Y-9800000I-11250J0D01*
G01*
X17413750Y-9800000D02*
G75*
G02*
X17436250Y-9800000I11250J0D01*
G01*
X17471250Y-10825000D02*
G75*
G02*
X17448750Y-10825000I-11250J0D01*
G01*
X17448750Y-10825000D02*
G75*
G02*
X17471250Y-10825000I11250J0D01*
G01*
X17511250Y-8255000D02*
G75*
G02*
X17488750Y-8255000I-11250J0D01*
G01*
X17488750Y-8255000D02*
G75*
G02*
X17511250Y-8255000I11250J0D01*
G01*
X17561250Y-9100000D02*
G75*
G02*
X17538750Y-9100000I-11250J0D01*
G01*
X17538750Y-9100000D02*
G75*
G02*
X17561250Y-9100000I11250J0D01*
G01*
X17582250Y-10230000D02*
G75*
G02*
X17559750Y-10230000I-11250J0D01*
G01*
X17559750Y-10230000D02*
G75*
G02*
X17582250Y-10230000I11250J0D01*
G01*
X17741250Y-10225000D02*
G75*
G02*
X17718750Y-10225000I-11250J0D01*
G01*
X17718750Y-10225000D02*
G75*
G02*
X17741250Y-10225000I11250J0D01*
G01*
X17881250Y-10230000D02*
G75*
G02*
X17858750Y-10230000I-11250J0D01*
G01*
X17858750Y-10230000D02*
G75*
G02*
X17881250Y-10230000I11250J0D01*
G01*
X17886250Y-9075000D02*
G75*
G02*
X17863750Y-9075000I-11250J0D01*
G01*
X17863750Y-9075000D02*
G75*
G02*
X17886250Y-9075000I11250J0D01*
G01*
X17886250Y-9750000D02*
G75*
G02*
X17863750Y-9750000I-11250J0D01*
G01*
X17863750Y-9750000D02*
G75*
G02*
X17886250Y-9750000I11250J0D01*
G01*
X17886250Y-10650000D02*
G75*
G02*
X17863750Y-10650000I-11250J0D01*
G01*
X17863750Y-10650000D02*
G75*
G02*
X17886250Y-10650000I11250J0D01*
G01*
X17936250Y-8225000D02*
G75*
G02*
X17913750Y-8225000I-11250J0D01*
G01*
X17913750Y-8225000D02*
G75*
G02*
X17936250Y-8225000I11250J0D01*
G01*
X17961250Y-10685000D02*
G75*
G02*
X17938750Y-10685000I-11250J0D01*
G01*
X17938750Y-10685000D02*
G75*
G02*
X17961250Y-10685000I11250J0D01*
G01*
X16631000Y-11345000D02*
X16631000Y-11395000D01*
X16606000Y-11370000D02*
X16656000Y-11370000D01*
X16606000Y-11335000D02*
X16606000Y-11405000D01*
X16656000Y-11405000D02*
G75*
G02*
X16606000Y-11405000I-25000J0D01*
G01*
X16656000Y-11405000D02*
X16656000Y-11335000D01*
X16656000Y-11335000D02*
G75*
G03*
X16606000Y-11335000I-25000J0D01*
G01*
X17291000Y-11345000D02*
X17291000Y-11395000D01*
X17266000Y-11370000D02*
X17316000Y-11370000D01*
X17266000Y-11335000D02*
X17266000Y-11405000D01*
X17316000Y-11405000D02*
G75*
G02*
X17266000Y-11405000I-25000J0D01*
G01*
X17316000Y-11405000D02*
X17316000Y-11335000D01*
X17316000Y-11335000D02*
G75*
G03*
X17266000Y-11335000I-25000J0D01*
G01*
X16921356Y-8212856D02*
X16921356Y-8142144D01*
X16850644Y-8142144D01*
X16850644Y-8212856D01*
X16921356Y-8212856D01*
X17175356Y-8212856D02*
X17175356Y-8142144D01*
X17104644Y-8142144D01*
X17104644Y-8212856D01*
X17175356Y-8212856D01*
D12*
X14436250Y-11125000D02*
X14501250Y-11060000D01*
X14436250Y-10995000D01*
X14371250Y-11060000D01*
X14436250Y-11125000D01*
X14936250Y-11125000D02*
X15001250Y-11060000D01*
X14936250Y-10995000D01*
X14871250Y-11060000D01*
X14936250Y-11125000D01*
X15691000Y-11130000D02*
X15756000Y-11065000D01*
X15691000Y-11000000D01*
X15626000Y-11065000D01*
X15691000Y-11130000D01*
X16191000Y-11130000D02*
X16256000Y-11065000D01*
X16191000Y-11000000D01*
X16126000Y-11065000D01*
X16191000Y-11130000D01*
D13*
X11091000Y-7620000D02*
X11411000Y-7940000D01*
X11411000Y-7620000D02*
X11091000Y-7940000D01*
X11411000Y-7780000D02*
G75*
G02*
X11091000Y-7780000I-160000J0D01*
G01*
X11091000Y-7780000D02*
G75*
G02*
X11411000Y-7780000I160000J0D01*
G01*
X11091000Y-10995000D02*
X11411000Y-11315000D01*
X11411000Y-10995000D02*
X11091000Y-11315000D01*
X11411000Y-11155000D02*
G75*
G02*
X11091000Y-11155000I-160000J0D01*
G01*
X11091000Y-11155000D02*
G75*
G02*
X11411000Y-11155000I160000J0D01*
G01*
X17591000Y-7620000D02*
X17911000Y-7940000D01*
X17911000Y-7620000D02*
X17591000Y-7940000D01*
X17911000Y-7780000D02*
G75*
G02*
X17591000Y-7780000I-160000J0D01*
G01*
X17591000Y-7780000D02*
G75*
G02*
X17911000Y-7780000I160000J0D01*
G01*
X17591000Y-10995000D02*
X17911000Y-11315000D01*
X17911000Y-10995000D02*
X17591000Y-11315000D01*
X17911000Y-11155000D02*
G75*
G02*
X17591000Y-11155000I-160000J0D01*
G01*
X17591000Y-11155000D02*
G75*
G02*
X17911000Y-11155000I160000J0D01*
G01*
D11*
X11156777Y-11821484D02*
X11156777Y-11621484D01*
X11156777Y-11621484D02*
X11204396Y-11621484D01*
X11204396Y-11621484D02*
X11232967Y-11631008D01*
X11232967Y-11631008D02*
X11252015Y-11650055D01*
X11252015Y-11650055D02*
X11261539Y-11669103D01*
X11261539Y-11669103D02*
X11271062Y-11707198D01*
X11271062Y-11707198D02*
X11271062Y-11735769D01*
X11271062Y-11735769D02*
X11261539Y-11773865D01*
X11261539Y-11773865D02*
X11252015Y-11792912D01*
X11252015Y-11792912D02*
X11232967Y-11811960D01*
X11232967Y-11811960D02*
X11204396Y-11821484D01*
X11204396Y-11821484D02*
X11156777Y-11821484D01*
X11356777Y-11821484D02*
X11356777Y-11688150D01*
X11356777Y-11726246D02*
X11366301Y-11707198D01*
X11366301Y-11707198D02*
X11375824Y-11697674D01*
X11375824Y-11697674D02*
X11394872Y-11688150D01*
X11394872Y-11688150D02*
X11413920Y-11688150D01*
X11480586Y-11821484D02*
X11480586Y-11688150D01*
X11480586Y-11621484D02*
X11471062Y-11631008D01*
X11471062Y-11631008D02*
X11480586Y-11640531D01*
X11480586Y-11640531D02*
X11490110Y-11631008D01*
X11490110Y-11631008D02*
X11480586Y-11621484D01*
X11480586Y-11621484D02*
X11480586Y-11640531D01*
X11604396Y-11821484D02*
X11585348Y-11811960D01*
X11585348Y-11811960D02*
X11575824Y-11792912D01*
X11575824Y-11792912D02*
X11575824Y-11621484D01*
X11709158Y-11821484D02*
X11690110Y-11811960D01*
X11690110Y-11811960D02*
X11680586Y-11792912D01*
X11680586Y-11792912D02*
X11680586Y-11621484D01*
X11937729Y-11821484D02*
X11937729Y-11621484D01*
X11937729Y-11621484D02*
X12004396Y-11764341D01*
X12004396Y-11764341D02*
X12071062Y-11621484D01*
X12071062Y-11621484D02*
X12071062Y-11821484D01*
X12252015Y-11821484D02*
X12252015Y-11716722D01*
X12252015Y-11716722D02*
X12242491Y-11697674D01*
X12242491Y-11697674D02*
X12223443Y-11688150D01*
X12223443Y-11688150D02*
X12185348Y-11688150D01*
X12185348Y-11688150D02*
X12166301Y-11697674D01*
X12252015Y-11811960D02*
X12232967Y-11821484D01*
X12232967Y-11821484D02*
X12185348Y-11821484D01*
X12185348Y-11821484D02*
X12166301Y-11811960D01*
X12166301Y-11811960D02*
X12156777Y-11792912D01*
X12156777Y-11792912D02*
X12156777Y-11773865D01*
X12156777Y-11773865D02*
X12166301Y-11754817D01*
X12166301Y-11754817D02*
X12185348Y-11745293D01*
X12185348Y-11745293D02*
X12232967Y-11745293D01*
X12232967Y-11745293D02*
X12252015Y-11735769D01*
X12347253Y-11688150D02*
X12347253Y-11888150D01*
X12347253Y-11697674D02*
X12366301Y-11688150D01*
X12366301Y-11688150D02*
X12404396Y-11688150D01*
X12404396Y-11688150D02*
X12423443Y-11697674D01*
X12423443Y-11697674D02*
X12432967Y-11707198D01*
X12432967Y-11707198D02*
X12442491Y-11726246D01*
X12442491Y-11726246D02*
X12442491Y-11783388D01*
X12442491Y-11783388D02*
X12432967Y-11802436D01*
X12432967Y-11802436D02*
X12423443Y-11811960D01*
X12423443Y-11811960D02*
X12404396Y-11821484D01*
X12404396Y-11821484D02*
X12366301Y-11821484D01*
X12366301Y-11821484D02*
X12347253Y-11811960D01*
X12528205Y-11802436D02*
X12537729Y-11811960D01*
X12537729Y-11811960D02*
X12528205Y-11821484D01*
X12528205Y-11821484D02*
X12518682Y-11811960D01*
X12518682Y-11811960D02*
X12528205Y-11802436D01*
X12528205Y-11802436D02*
X12528205Y-11821484D01*
X12528205Y-11697674D02*
X12537729Y-11707198D01*
X12537729Y-11707198D02*
X12528205Y-11716722D01*
X12528205Y-11716722D02*
X12518682Y-11707198D01*
X12518682Y-11707198D02*
X12528205Y-11697674D01*
X12528205Y-11697674D02*
X12528205Y-11716722D01*
D10*
X10876000Y-12140000D02*
X10896000Y-12160000D01*
X10896000Y-12140000D02*
X10876000Y-12160000D01*
D11*
X11194872Y-12041484D02*
X11213920Y-12041484D01*
X11213920Y-12041484D02*
X11232967Y-12051008D01*
X11232967Y-12051008D02*
X11242491Y-12060531D01*
X11242491Y-12060531D02*
X11252015Y-12079579D01*
X11252015Y-12079579D02*
X11261539Y-12117674D01*
X11261539Y-12117674D02*
X11261539Y-12165293D01*
X11261539Y-12165293D02*
X11252015Y-12203388D01*
X11252015Y-12203388D02*
X11242491Y-12222436D01*
X11242491Y-12222436D02*
X11232967Y-12231960D01*
X11232967Y-12231960D02*
X11213920Y-12241484D01*
X11213920Y-12241484D02*
X11194872Y-12241484D01*
X11194872Y-12241484D02*
X11175824Y-12231960D01*
X11175824Y-12231960D02*
X11166301Y-12222436D01*
X11166301Y-12222436D02*
X11156777Y-12203388D01*
X11156777Y-12203388D02*
X11147253Y-12165293D01*
X11147253Y-12165293D02*
X11147253Y-12117674D01*
X11147253Y-12117674D02*
X11156777Y-12079579D01*
X11156777Y-12079579D02*
X11166301Y-12060531D01*
X11166301Y-12060531D02*
X11175824Y-12051008D01*
X11175824Y-12051008D02*
X11194872Y-12041484D01*
X11347253Y-12222436D02*
X11356777Y-12231960D01*
X11356777Y-12231960D02*
X11347253Y-12241484D01*
X11347253Y-12241484D02*
X11337729Y-12231960D01*
X11337729Y-12231960D02*
X11347253Y-12222436D01*
X11347253Y-12222436D02*
X11347253Y-12241484D01*
X11432967Y-12060531D02*
X11442491Y-12051008D01*
X11442491Y-12051008D02*
X11461539Y-12041484D01*
X11461539Y-12041484D02*
X11509158Y-12041484D01*
X11509158Y-12041484D02*
X11528205Y-12051008D01*
X11528205Y-12051008D02*
X11537729Y-12060531D01*
X11537729Y-12060531D02*
X11547253Y-12079579D01*
X11547253Y-12079579D02*
X11547253Y-12098627D01*
X11547253Y-12098627D02*
X11537729Y-12127198D01*
X11537729Y-12127198D02*
X11423443Y-12241484D01*
X11423443Y-12241484D02*
X11547253Y-12241484D01*
X11671062Y-12041484D02*
X11690110Y-12041484D01*
X11690110Y-12041484D02*
X11709158Y-12051008D01*
X11709158Y-12051008D02*
X11718682Y-12060531D01*
X11718682Y-12060531D02*
X11728205Y-12079579D01*
X11728205Y-12079579D02*
X11737729Y-12117674D01*
X11737729Y-12117674D02*
X11737729Y-12165293D01*
X11737729Y-12165293D02*
X11728205Y-12203388D01*
X11728205Y-12203388D02*
X11718682Y-12222436D01*
X11718682Y-12222436D02*
X11709158Y-12231960D01*
X11709158Y-12231960D02*
X11690110Y-12241484D01*
X11690110Y-12241484D02*
X11671062Y-12241484D01*
X11671062Y-12241484D02*
X11652015Y-12231960D01*
X11652015Y-12231960D02*
X11642491Y-12222436D01*
X11642491Y-12222436D02*
X11632967Y-12203388D01*
X11632967Y-12203388D02*
X11623443Y-12165293D01*
X11623443Y-12165293D02*
X11623443Y-12117674D01*
X11623443Y-12117674D02*
X11632967Y-12079579D01*
X11632967Y-12079579D02*
X11642491Y-12060531D01*
X11642491Y-12060531D02*
X11652015Y-12051008D01*
X11652015Y-12051008D02*
X11671062Y-12041484D01*
X11861539Y-12041484D02*
X11880586Y-12041484D01*
X11880586Y-12041484D02*
X11899634Y-12051008D01*
X11899634Y-12051008D02*
X11909158Y-12060531D01*
X11909158Y-12060531D02*
X11918682Y-12079579D01*
X11918682Y-12079579D02*
X11928205Y-12117674D01*
X11928205Y-12117674D02*
X11928205Y-12165293D01*
X11928205Y-12165293D02*
X11918682Y-12203388D01*
X11918682Y-12203388D02*
X11909158Y-12222436D01*
X11909158Y-12222436D02*
X11899634Y-12231960D01*
X11899634Y-12231960D02*
X11880586Y-12241484D01*
X11880586Y-12241484D02*
X11861539Y-12241484D01*
X11861539Y-12241484D02*
X11842491Y-12231960D01*
X11842491Y-12231960D02*
X11832967Y-12222436D01*
X11832967Y-12222436D02*
X11823443Y-12203388D01*
X11823443Y-12203388D02*
X11813920Y-12165293D01*
X11813920Y-12165293D02*
X11813920Y-12117674D01*
X11813920Y-12117674D02*
X11823443Y-12079579D01*
X11823443Y-12079579D02*
X11832967Y-12060531D01*
X11832967Y-12060531D02*
X11842491Y-12051008D01*
X11842491Y-12051008D02*
X11861539Y-12041484D01*
X12013920Y-12241484D02*
X12013920Y-12108150D01*
X12013920Y-12127198D02*
X12023443Y-12117674D01*
X12023443Y-12117674D02*
X12042491Y-12108150D01*
X12042491Y-12108150D02*
X12071063Y-12108150D01*
X12071063Y-12108150D02*
X12090110Y-12117674D01*
X12090110Y-12117674D02*
X12099634Y-12136722D01*
X12099634Y-12136722D02*
X12099634Y-12241484D01*
X12099634Y-12136722D02*
X12109158Y-12117674D01*
X12109158Y-12117674D02*
X12128205Y-12108150D01*
X12128205Y-12108150D02*
X12156777Y-12108150D01*
X12156777Y-12108150D02*
X12175824Y-12117674D01*
X12175824Y-12117674D02*
X12185348Y-12136722D01*
X12185348Y-12136722D02*
X12185348Y-12241484D01*
X12280586Y-12241484D02*
X12280586Y-12108150D01*
X12280586Y-12127198D02*
X12290110Y-12117674D01*
X12290110Y-12117674D02*
X12309158Y-12108150D01*
X12309158Y-12108150D02*
X12337729Y-12108150D01*
X12337729Y-12108150D02*
X12356777Y-12117674D01*
X12356777Y-12117674D02*
X12366301Y-12136722D01*
X12366301Y-12136722D02*
X12366301Y-12241484D01*
X12366301Y-12136722D02*
X12375824Y-12117674D01*
X12375824Y-12117674D02*
X12394872Y-12108150D01*
X12394872Y-12108150D02*
X12423443Y-12108150D01*
X12423443Y-12108150D02*
X12442491Y-12117674D01*
X12442491Y-12117674D02*
X12452015Y-12136722D01*
X12452015Y-12136722D02*
X12452015Y-12241484D01*
X12842491Y-12031960D02*
X12671063Y-12289103D01*
X13099634Y-12041484D02*
X13118682Y-12041484D01*
X13118682Y-12041484D02*
X13137729Y-12051008D01*
X13137729Y-12051008D02*
X13147253Y-12060531D01*
X13147253Y-12060531D02*
X13156777Y-12079579D01*
X13156777Y-12079579D02*
X13166301Y-12117674D01*
X13166301Y-12117674D02*
X13166301Y-12165293D01*
X13166301Y-12165293D02*
X13156777Y-12203388D01*
X13156777Y-12203388D02*
X13147253Y-12222436D01*
X13147253Y-12222436D02*
X13137729Y-12231960D01*
X13137729Y-12231960D02*
X13118682Y-12241484D01*
X13118682Y-12241484D02*
X13099634Y-12241484D01*
X13099634Y-12241484D02*
X13080586Y-12231960D01*
X13080586Y-12231960D02*
X13071063Y-12222436D01*
X13071063Y-12222436D02*
X13061539Y-12203388D01*
X13061539Y-12203388D02*
X13052015Y-12165293D01*
X13052015Y-12165293D02*
X13052015Y-12117674D01*
X13052015Y-12117674D02*
X13061539Y-12079579D01*
X13061539Y-12079579D02*
X13071063Y-12060531D01*
X13071063Y-12060531D02*
X13080586Y-12051008D01*
X13080586Y-12051008D02*
X13099634Y-12041484D01*
X13252015Y-12222436D02*
X13261539Y-12231960D01*
X13261539Y-12231960D02*
X13252015Y-12241484D01*
X13252015Y-12241484D02*
X13242491Y-12231960D01*
X13242491Y-12231960D02*
X13252015Y-12222436D01*
X13252015Y-12222436D02*
X13252015Y-12241484D01*
X13385348Y-12041484D02*
X13404396Y-12041484D01*
X13404396Y-12041484D02*
X13423444Y-12051008D01*
X13423444Y-12051008D02*
X13432967Y-12060531D01*
X13432967Y-12060531D02*
X13442491Y-12079579D01*
X13442491Y-12079579D02*
X13452015Y-12117674D01*
X13452015Y-12117674D02*
X13452015Y-12165293D01*
X13452015Y-12165293D02*
X13442491Y-12203388D01*
X13442491Y-12203388D02*
X13432967Y-12222436D01*
X13432967Y-12222436D02*
X13423444Y-12231960D01*
X13423444Y-12231960D02*
X13404396Y-12241484D01*
X13404396Y-12241484D02*
X13385348Y-12241484D01*
X13385348Y-12241484D02*
X13366301Y-12231960D01*
X13366301Y-12231960D02*
X13356777Y-12222436D01*
X13356777Y-12222436D02*
X13347253Y-12203388D01*
X13347253Y-12203388D02*
X13337729Y-12165293D01*
X13337729Y-12165293D02*
X13337729Y-12117674D01*
X13337729Y-12117674D02*
X13347253Y-12079579D01*
X13347253Y-12079579D02*
X13356777Y-12060531D01*
X13356777Y-12060531D02*
X13366301Y-12051008D01*
X13366301Y-12051008D02*
X13385348Y-12041484D01*
X13575825Y-12041484D02*
X13594872Y-12041484D01*
X13594872Y-12041484D02*
X13613920Y-12051008D01*
X13613920Y-12051008D02*
X13623444Y-12060531D01*
X13623444Y-12060531D02*
X13632967Y-12079579D01*
X13632967Y-12079579D02*
X13642491Y-12117674D01*
X13642491Y-12117674D02*
X13642491Y-12165293D01*
X13642491Y-12165293D02*
X13632967Y-12203388D01*
X13632967Y-12203388D02*
X13623444Y-12222436D01*
X13623444Y-12222436D02*
X13613920Y-12231960D01*
X13613920Y-12231960D02*
X13594872Y-12241484D01*
X13594872Y-12241484D02*
X13575825Y-12241484D01*
X13575825Y-12241484D02*
X13556777Y-12231960D01*
X13556777Y-12231960D02*
X13547253Y-12222436D01*
X13547253Y-12222436D02*
X13537729Y-12203388D01*
X13537729Y-12203388D02*
X13528206Y-12165293D01*
X13528206Y-12165293D02*
X13528206Y-12117674D01*
X13528206Y-12117674D02*
X13537729Y-12079579D01*
X13537729Y-12079579D02*
X13547253Y-12060531D01*
X13547253Y-12060531D02*
X13556777Y-12051008D01*
X13556777Y-12051008D02*
X13575825Y-12041484D01*
X13709158Y-12041484D02*
X13842491Y-12041484D01*
X13842491Y-12041484D02*
X13756777Y-12241484D01*
X13928206Y-12241484D02*
X13966301Y-12241484D01*
X13966301Y-12241484D02*
X13985348Y-12231960D01*
X13985348Y-12231960D02*
X13994872Y-12222436D01*
X13994872Y-12222436D02*
X14013920Y-12193865D01*
X14013920Y-12193865D02*
X14023444Y-12155769D01*
X14023444Y-12155769D02*
X14023444Y-12079579D01*
X14023444Y-12079579D02*
X14013920Y-12060531D01*
X14013920Y-12060531D02*
X14004396Y-12051008D01*
X14004396Y-12051008D02*
X13985348Y-12041484D01*
X13985348Y-12041484D02*
X13947253Y-12041484D01*
X13947253Y-12041484D02*
X13928206Y-12051008D01*
X13928206Y-12051008D02*
X13918682Y-12060531D01*
X13918682Y-12060531D02*
X13909158Y-12079579D01*
X13909158Y-12079579D02*
X13909158Y-12127198D01*
X13909158Y-12127198D02*
X13918682Y-12146246D01*
X13918682Y-12146246D02*
X13928206Y-12155769D01*
X13928206Y-12155769D02*
X13947253Y-12165293D01*
X13947253Y-12165293D02*
X13985348Y-12165293D01*
X13985348Y-12165293D02*
X14004396Y-12155769D01*
X14004396Y-12155769D02*
X14013920Y-12146246D01*
X14013920Y-12146246D02*
X14023444Y-12127198D01*
X14099634Y-12041484D02*
X14099634Y-12079579D01*
X14175825Y-12041484D02*
X14175825Y-12079579D01*
X14471063Y-12317674D02*
X14461539Y-12308150D01*
X14461539Y-12308150D02*
X14442491Y-12279579D01*
X14442491Y-12279579D02*
X14432968Y-12260531D01*
X14432968Y-12260531D02*
X14423444Y-12231960D01*
X14423444Y-12231960D02*
X14413920Y-12184341D01*
X14413920Y-12184341D02*
X14413920Y-12146246D01*
X14413920Y-12146246D02*
X14423444Y-12098627D01*
X14423444Y-12098627D02*
X14432968Y-12070055D01*
X14432968Y-12070055D02*
X14442491Y-12051008D01*
X14442491Y-12051008D02*
X14461539Y-12022436D01*
X14461539Y-12022436D02*
X14471063Y-12012912D01*
X14652015Y-12241484D02*
X14537729Y-12241484D01*
X14594872Y-12241484D02*
X14594872Y-12041484D01*
X14594872Y-12041484D02*
X14575825Y-12070055D01*
X14575825Y-12070055D02*
X14556777Y-12089103D01*
X14556777Y-12089103D02*
X14537729Y-12098627D01*
X14728206Y-12060531D02*
X14737729Y-12051008D01*
X14737729Y-12051008D02*
X14756777Y-12041484D01*
X14756777Y-12041484D02*
X14804396Y-12041484D01*
X14804396Y-12041484D02*
X14823444Y-12051008D01*
X14823444Y-12051008D02*
X14832968Y-12060531D01*
X14832968Y-12060531D02*
X14842491Y-12079579D01*
X14842491Y-12079579D02*
X14842491Y-12098627D01*
X14842491Y-12098627D02*
X14832968Y-12127198D01*
X14832968Y-12127198D02*
X14718682Y-12241484D01*
X14718682Y-12241484D02*
X14842491Y-12241484D01*
X15080587Y-12241484D02*
X15080587Y-12041484D01*
X15166301Y-12241484D02*
X15166301Y-12136722D01*
X15166301Y-12136722D02*
X15156777Y-12117674D01*
X15156777Y-12117674D02*
X15137730Y-12108150D01*
X15137730Y-12108150D02*
X15109158Y-12108150D01*
X15109158Y-12108150D02*
X15090110Y-12117674D01*
X15090110Y-12117674D02*
X15080587Y-12127198D01*
X15290110Y-12241484D02*
X15271063Y-12231960D01*
X15271063Y-12231960D02*
X15261539Y-12222436D01*
X15261539Y-12222436D02*
X15252015Y-12203388D01*
X15252015Y-12203388D02*
X15252015Y-12146246D01*
X15252015Y-12146246D02*
X15261539Y-12127198D01*
X15261539Y-12127198D02*
X15271063Y-12117674D01*
X15271063Y-12117674D02*
X15290110Y-12108150D01*
X15290110Y-12108150D02*
X15318682Y-12108150D01*
X15318682Y-12108150D02*
X15337730Y-12117674D01*
X15337730Y-12117674D02*
X15347253Y-12127198D01*
X15347253Y-12127198D02*
X15356777Y-12146246D01*
X15356777Y-12146246D02*
X15356777Y-12203388D01*
X15356777Y-12203388D02*
X15347253Y-12222436D01*
X15347253Y-12222436D02*
X15337730Y-12231960D01*
X15337730Y-12231960D02*
X15318682Y-12241484D01*
X15318682Y-12241484D02*
X15290110Y-12241484D01*
X15471063Y-12241484D02*
X15452015Y-12231960D01*
X15452015Y-12231960D02*
X15442491Y-12212912D01*
X15442491Y-12212912D02*
X15442491Y-12041484D01*
X15623444Y-12231960D02*
X15604396Y-12241484D01*
X15604396Y-12241484D02*
X15566301Y-12241484D01*
X15566301Y-12241484D02*
X15547253Y-12231960D01*
X15547253Y-12231960D02*
X15537730Y-12212912D01*
X15537730Y-12212912D02*
X15537730Y-12136722D01*
X15537730Y-12136722D02*
X15547253Y-12117674D01*
X15547253Y-12117674D02*
X15566301Y-12108150D01*
X15566301Y-12108150D02*
X15604396Y-12108150D01*
X15604396Y-12108150D02*
X15623444Y-12117674D01*
X15623444Y-12117674D02*
X15632968Y-12136722D01*
X15632968Y-12136722D02*
X15632968Y-12155769D01*
X15632968Y-12155769D02*
X15537730Y-12174817D01*
X15709158Y-12231960D02*
X15728206Y-12241484D01*
X15728206Y-12241484D02*
X15766301Y-12241484D01*
X15766301Y-12241484D02*
X15785349Y-12231960D01*
X15785349Y-12231960D02*
X15794872Y-12212912D01*
X15794872Y-12212912D02*
X15794872Y-12203388D01*
X15794872Y-12203388D02*
X15785349Y-12184341D01*
X15785349Y-12184341D02*
X15766301Y-12174817D01*
X15766301Y-12174817D02*
X15737730Y-12174817D01*
X15737730Y-12174817D02*
X15718682Y-12165293D01*
X15718682Y-12165293D02*
X15709158Y-12146246D01*
X15709158Y-12146246D02*
X15709158Y-12136722D01*
X15709158Y-12136722D02*
X15718682Y-12117674D01*
X15718682Y-12117674D02*
X15737730Y-12108150D01*
X15737730Y-12108150D02*
X15766301Y-12108150D01*
X15766301Y-12108150D02*
X15785349Y-12117674D01*
X15861539Y-12317674D02*
X15871063Y-12308150D01*
X15871063Y-12308150D02*
X15890111Y-12279579D01*
X15890111Y-12279579D02*
X15899634Y-12260531D01*
X15899634Y-12260531D02*
X15909158Y-12231960D01*
X15909158Y-12231960D02*
X15918682Y-12184341D01*
X15918682Y-12184341D02*
X15918682Y-12146246D01*
X15918682Y-12146246D02*
X15909158Y-12098627D01*
X15909158Y-12098627D02*
X15899634Y-12070055D01*
X15899634Y-12070055D02*
X15890111Y-12051008D01*
X15890111Y-12051008D02*
X15871063Y-12022436D01*
X15871063Y-12022436D02*
X15861539Y-12012912D01*
D10*
X10896000Y-12414000D02*
G75*
G02*
X10873500Y-12414000I-11250J0D01*
G01*
X10873500Y-12414000D02*
G75*
G02*
X10896000Y-12414000I11250J0D01*
G01*
D11*
X11194872Y-12305484D02*
X11213920Y-12305484D01*
X11213920Y-12305484D02*
X11232967Y-12315008D01*
X11232967Y-12315008D02*
X11242491Y-12324531D01*
X11242491Y-12324531D02*
X11252015Y-12343579D01*
X11252015Y-12343579D02*
X11261539Y-12381674D01*
X11261539Y-12381674D02*
X11261539Y-12429293D01*
X11261539Y-12429293D02*
X11252015Y-12467388D01*
X11252015Y-12467388D02*
X11242491Y-12486436D01*
X11242491Y-12486436D02*
X11232967Y-12495960D01*
X11232967Y-12495960D02*
X11213920Y-12505484D01*
X11213920Y-12505484D02*
X11194872Y-12505484D01*
X11194872Y-12505484D02*
X11175824Y-12495960D01*
X11175824Y-12495960D02*
X11166301Y-12486436D01*
X11166301Y-12486436D02*
X11156777Y-12467388D01*
X11156777Y-12467388D02*
X11147253Y-12429293D01*
X11147253Y-12429293D02*
X11147253Y-12381674D01*
X11147253Y-12381674D02*
X11156777Y-12343579D01*
X11156777Y-12343579D02*
X11166301Y-12324531D01*
X11166301Y-12324531D02*
X11175824Y-12315008D01*
X11175824Y-12315008D02*
X11194872Y-12305484D01*
X11347253Y-12486436D02*
X11356777Y-12495960D01*
X11356777Y-12495960D02*
X11347253Y-12505484D01*
X11347253Y-12505484D02*
X11337729Y-12495960D01*
X11337729Y-12495960D02*
X11347253Y-12486436D01*
X11347253Y-12486436D02*
X11347253Y-12505484D01*
X11432967Y-12324531D02*
X11442491Y-12315008D01*
X11442491Y-12315008D02*
X11461539Y-12305484D01*
X11461539Y-12305484D02*
X11509158Y-12305484D01*
X11509158Y-12305484D02*
X11528205Y-12315008D01*
X11528205Y-12315008D02*
X11537729Y-12324531D01*
X11537729Y-12324531D02*
X11547253Y-12343579D01*
X11547253Y-12343579D02*
X11547253Y-12362627D01*
X11547253Y-12362627D02*
X11537729Y-12391198D01*
X11537729Y-12391198D02*
X11423443Y-12505484D01*
X11423443Y-12505484D02*
X11547253Y-12505484D01*
X11623443Y-12324531D02*
X11632967Y-12315008D01*
X11632967Y-12315008D02*
X11652015Y-12305484D01*
X11652015Y-12305484D02*
X11699634Y-12305484D01*
X11699634Y-12305484D02*
X11718682Y-12315008D01*
X11718682Y-12315008D02*
X11728205Y-12324531D01*
X11728205Y-12324531D02*
X11737729Y-12343579D01*
X11737729Y-12343579D02*
X11737729Y-12362627D01*
X11737729Y-12362627D02*
X11728205Y-12391198D01*
X11728205Y-12391198D02*
X11613920Y-12505484D01*
X11613920Y-12505484D02*
X11737729Y-12505484D01*
X11918682Y-12305484D02*
X11823443Y-12305484D01*
X11823443Y-12305484D02*
X11813920Y-12400722D01*
X11813920Y-12400722D02*
X11823443Y-12391198D01*
X11823443Y-12391198D02*
X11842491Y-12381674D01*
X11842491Y-12381674D02*
X11890110Y-12381674D01*
X11890110Y-12381674D02*
X11909158Y-12391198D01*
X11909158Y-12391198D02*
X11918682Y-12400722D01*
X11918682Y-12400722D02*
X11928205Y-12419769D01*
X11928205Y-12419769D02*
X11928205Y-12467388D01*
X11928205Y-12467388D02*
X11918682Y-12486436D01*
X11918682Y-12486436D02*
X11909158Y-12495960D01*
X11909158Y-12495960D02*
X11890110Y-12505484D01*
X11890110Y-12505484D02*
X11842491Y-12505484D01*
X11842491Y-12505484D02*
X11823443Y-12495960D01*
X11823443Y-12495960D02*
X11813920Y-12486436D01*
X12013920Y-12505484D02*
X12013920Y-12372150D01*
X12013920Y-12391198D02*
X12023443Y-12381674D01*
X12023443Y-12381674D02*
X12042491Y-12372150D01*
X12042491Y-12372150D02*
X12071063Y-12372150D01*
X12071063Y-12372150D02*
X12090110Y-12381674D01*
X12090110Y-12381674D02*
X12099634Y-12400722D01*
X12099634Y-12400722D02*
X12099634Y-12505484D01*
X12099634Y-12400722D02*
X12109158Y-12381674D01*
X12109158Y-12381674D02*
X12128205Y-12372150D01*
X12128205Y-12372150D02*
X12156777Y-12372150D01*
X12156777Y-12372150D02*
X12175824Y-12381674D01*
X12175824Y-12381674D02*
X12185348Y-12400722D01*
X12185348Y-12400722D02*
X12185348Y-12505484D01*
X12280586Y-12505484D02*
X12280586Y-12372150D01*
X12280586Y-12391198D02*
X12290110Y-12381674D01*
X12290110Y-12381674D02*
X12309158Y-12372150D01*
X12309158Y-12372150D02*
X12337729Y-12372150D01*
X12337729Y-12372150D02*
X12356777Y-12381674D01*
X12356777Y-12381674D02*
X12366301Y-12400722D01*
X12366301Y-12400722D02*
X12366301Y-12505484D01*
X12366301Y-12400722D02*
X12375824Y-12381674D01*
X12375824Y-12381674D02*
X12394872Y-12372150D01*
X12394872Y-12372150D02*
X12423443Y-12372150D01*
X12423443Y-12372150D02*
X12442491Y-12381674D01*
X12442491Y-12381674D02*
X12452015Y-12400722D01*
X12452015Y-12400722D02*
X12452015Y-12505484D01*
X12842491Y-12295960D02*
X12671063Y-12553103D01*
X13099634Y-12305484D02*
X13118682Y-12305484D01*
X13118682Y-12305484D02*
X13137729Y-12315008D01*
X13137729Y-12315008D02*
X13147253Y-12324531D01*
X13147253Y-12324531D02*
X13156777Y-12343579D01*
X13156777Y-12343579D02*
X13166301Y-12381674D01*
X13166301Y-12381674D02*
X13166301Y-12429293D01*
X13166301Y-12429293D02*
X13156777Y-12467388D01*
X13156777Y-12467388D02*
X13147253Y-12486436D01*
X13147253Y-12486436D02*
X13137729Y-12495960D01*
X13137729Y-12495960D02*
X13118682Y-12505484D01*
X13118682Y-12505484D02*
X13099634Y-12505484D01*
X13099634Y-12505484D02*
X13080586Y-12495960D01*
X13080586Y-12495960D02*
X13071063Y-12486436D01*
X13071063Y-12486436D02*
X13061539Y-12467388D01*
X13061539Y-12467388D02*
X13052015Y-12429293D01*
X13052015Y-12429293D02*
X13052015Y-12381674D01*
X13052015Y-12381674D02*
X13061539Y-12343579D01*
X13061539Y-12343579D02*
X13071063Y-12324531D01*
X13071063Y-12324531D02*
X13080586Y-12315008D01*
X13080586Y-12315008D02*
X13099634Y-12305484D01*
X13252015Y-12486436D02*
X13261539Y-12495960D01*
X13261539Y-12495960D02*
X13252015Y-12505484D01*
X13252015Y-12505484D02*
X13242491Y-12495960D01*
X13242491Y-12495960D02*
X13252015Y-12486436D01*
X13252015Y-12486436D02*
X13252015Y-12505484D01*
X13385348Y-12305484D02*
X13404396Y-12305484D01*
X13404396Y-12305484D02*
X13423444Y-12315008D01*
X13423444Y-12315008D02*
X13432967Y-12324531D01*
X13432967Y-12324531D02*
X13442491Y-12343579D01*
X13442491Y-12343579D02*
X13452015Y-12381674D01*
X13452015Y-12381674D02*
X13452015Y-12429293D01*
X13452015Y-12429293D02*
X13442491Y-12467388D01*
X13442491Y-12467388D02*
X13432967Y-12486436D01*
X13432967Y-12486436D02*
X13423444Y-12495960D01*
X13423444Y-12495960D02*
X13404396Y-12505484D01*
X13404396Y-12505484D02*
X13385348Y-12505484D01*
X13385348Y-12505484D02*
X13366301Y-12495960D01*
X13366301Y-12495960D02*
X13356777Y-12486436D01*
X13356777Y-12486436D02*
X13347253Y-12467388D01*
X13347253Y-12467388D02*
X13337729Y-12429293D01*
X13337729Y-12429293D02*
X13337729Y-12381674D01*
X13337729Y-12381674D02*
X13347253Y-12343579D01*
X13347253Y-12343579D02*
X13356777Y-12324531D01*
X13356777Y-12324531D02*
X13366301Y-12315008D01*
X13366301Y-12315008D02*
X13385348Y-12305484D01*
X13575825Y-12305484D02*
X13594872Y-12305484D01*
X13594872Y-12305484D02*
X13613920Y-12315008D01*
X13613920Y-12315008D02*
X13623444Y-12324531D01*
X13623444Y-12324531D02*
X13632967Y-12343579D01*
X13632967Y-12343579D02*
X13642491Y-12381674D01*
X13642491Y-12381674D02*
X13642491Y-12429293D01*
X13642491Y-12429293D02*
X13632967Y-12467388D01*
X13632967Y-12467388D02*
X13623444Y-12486436D01*
X13623444Y-12486436D02*
X13613920Y-12495960D01*
X13613920Y-12495960D02*
X13594872Y-12505484D01*
X13594872Y-12505484D02*
X13575825Y-12505484D01*
X13575825Y-12505484D02*
X13556777Y-12495960D01*
X13556777Y-12495960D02*
X13547253Y-12486436D01*
X13547253Y-12486436D02*
X13537729Y-12467388D01*
X13537729Y-12467388D02*
X13528206Y-12429293D01*
X13528206Y-12429293D02*
X13528206Y-12381674D01*
X13528206Y-12381674D02*
X13537729Y-12343579D01*
X13537729Y-12343579D02*
X13547253Y-12324531D01*
X13547253Y-12324531D02*
X13556777Y-12315008D01*
X13556777Y-12315008D02*
X13575825Y-12305484D01*
X13756777Y-12391198D02*
X13737729Y-12381674D01*
X13737729Y-12381674D02*
X13728206Y-12372150D01*
X13728206Y-12372150D02*
X13718682Y-12353103D01*
X13718682Y-12353103D02*
X13718682Y-12343579D01*
X13718682Y-12343579D02*
X13728206Y-12324531D01*
X13728206Y-12324531D02*
X13737729Y-12315008D01*
X13737729Y-12315008D02*
X13756777Y-12305484D01*
X13756777Y-12305484D02*
X13794872Y-12305484D01*
X13794872Y-12305484D02*
X13813920Y-12315008D01*
X13813920Y-12315008D02*
X13823444Y-12324531D01*
X13823444Y-12324531D02*
X13832967Y-12343579D01*
X13832967Y-12343579D02*
X13832967Y-12353103D01*
X13832967Y-12353103D02*
X13823444Y-12372150D01*
X13823444Y-12372150D02*
X13813920Y-12381674D01*
X13813920Y-12381674D02*
X13794872Y-12391198D01*
X13794872Y-12391198D02*
X13756777Y-12391198D01*
X13756777Y-12391198D02*
X13737729Y-12400722D01*
X13737729Y-12400722D02*
X13728206Y-12410246D01*
X13728206Y-12410246D02*
X13718682Y-12429293D01*
X13718682Y-12429293D02*
X13718682Y-12467388D01*
X13718682Y-12467388D02*
X13728206Y-12486436D01*
X13728206Y-12486436D02*
X13737729Y-12495960D01*
X13737729Y-12495960D02*
X13756777Y-12505484D01*
X13756777Y-12505484D02*
X13794872Y-12505484D01*
X13794872Y-12505484D02*
X13813920Y-12495960D01*
X13813920Y-12495960D02*
X13823444Y-12486436D01*
X13823444Y-12486436D02*
X13832967Y-12467388D01*
X13832967Y-12467388D02*
X13832967Y-12429293D01*
X13832967Y-12429293D02*
X13823444Y-12410246D01*
X13823444Y-12410246D02*
X13813920Y-12400722D01*
X13813920Y-12400722D02*
X13794872Y-12391198D01*
X13928206Y-12505484D02*
X13966301Y-12505484D01*
X13966301Y-12505484D02*
X13985348Y-12495960D01*
X13985348Y-12495960D02*
X13994872Y-12486436D01*
X13994872Y-12486436D02*
X14013920Y-12457865D01*
X14013920Y-12457865D02*
X14023444Y-12419769D01*
X14023444Y-12419769D02*
X14023444Y-12343579D01*
X14023444Y-12343579D02*
X14013920Y-12324531D01*
X14013920Y-12324531D02*
X14004396Y-12315008D01*
X14004396Y-12315008D02*
X13985348Y-12305484D01*
X13985348Y-12305484D02*
X13947253Y-12305484D01*
X13947253Y-12305484D02*
X13928206Y-12315008D01*
X13928206Y-12315008D02*
X13918682Y-12324531D01*
X13918682Y-12324531D02*
X13909158Y-12343579D01*
X13909158Y-12343579D02*
X13909158Y-12391198D01*
X13909158Y-12391198D02*
X13918682Y-12410246D01*
X13918682Y-12410246D02*
X13928206Y-12419769D01*
X13928206Y-12419769D02*
X13947253Y-12429293D01*
X13947253Y-12429293D02*
X13985348Y-12429293D01*
X13985348Y-12429293D02*
X14004396Y-12419769D01*
X14004396Y-12419769D02*
X14013920Y-12410246D01*
X14013920Y-12410246D02*
X14023444Y-12391198D01*
X14099634Y-12305484D02*
X14099634Y-12343579D01*
X14175825Y-12305484D02*
X14175825Y-12343579D01*
X14471063Y-12581674D02*
X14461539Y-12572150D01*
X14461539Y-12572150D02*
X14442491Y-12543579D01*
X14442491Y-12543579D02*
X14432968Y-12524531D01*
X14432968Y-12524531D02*
X14423444Y-12495960D01*
X14423444Y-12495960D02*
X14413920Y-12448341D01*
X14413920Y-12448341D02*
X14413920Y-12410246D01*
X14413920Y-12410246D02*
X14423444Y-12362627D01*
X14423444Y-12362627D02*
X14432968Y-12334055D01*
X14432968Y-12334055D02*
X14442491Y-12315008D01*
X14442491Y-12315008D02*
X14461539Y-12286436D01*
X14461539Y-12286436D02*
X14471063Y-12276912D01*
X14652015Y-12505484D02*
X14537729Y-12505484D01*
X14594872Y-12505484D02*
X14594872Y-12305484D01*
X14594872Y-12305484D02*
X14575825Y-12334055D01*
X14575825Y-12334055D02*
X14556777Y-12353103D01*
X14556777Y-12353103D02*
X14537729Y-12362627D01*
X14823444Y-12372150D02*
X14823444Y-12505484D01*
X14775825Y-12295960D02*
X14728206Y-12438817D01*
X14728206Y-12438817D02*
X14852015Y-12438817D01*
X14909158Y-12305484D02*
X15032968Y-12305484D01*
X15032968Y-12305484D02*
X14966301Y-12381674D01*
X14966301Y-12381674D02*
X14994872Y-12381674D01*
X14994872Y-12381674D02*
X15013920Y-12391198D01*
X15013920Y-12391198D02*
X15023444Y-12400722D01*
X15023444Y-12400722D02*
X15032968Y-12419769D01*
X15032968Y-12419769D02*
X15032968Y-12467388D01*
X15032968Y-12467388D02*
X15023444Y-12486436D01*
X15023444Y-12486436D02*
X15013920Y-12495960D01*
X15013920Y-12495960D02*
X14994872Y-12505484D01*
X14994872Y-12505484D02*
X14937729Y-12505484D01*
X14937729Y-12505484D02*
X14918682Y-12495960D01*
X14918682Y-12495960D02*
X14909158Y-12486436D01*
X15271063Y-12505484D02*
X15271063Y-12305484D01*
X15356777Y-12505484D02*
X15356777Y-12400722D01*
X15356777Y-12400722D02*
X15347253Y-12381674D01*
X15347253Y-12381674D02*
X15328206Y-12372150D01*
X15328206Y-12372150D02*
X15299634Y-12372150D01*
X15299634Y-12372150D02*
X15280587Y-12381674D01*
X15280587Y-12381674D02*
X15271063Y-12391198D01*
X15480587Y-12505484D02*
X15461539Y-12495960D01*
X15461539Y-12495960D02*
X15452015Y-12486436D01*
X15452015Y-12486436D02*
X15442491Y-12467388D01*
X15442491Y-12467388D02*
X15442491Y-12410246D01*
X15442491Y-12410246D02*
X15452015Y-12391198D01*
X15452015Y-12391198D02*
X15461539Y-12381674D01*
X15461539Y-12381674D02*
X15480587Y-12372150D01*
X15480587Y-12372150D02*
X15509158Y-12372150D01*
X15509158Y-12372150D02*
X15528206Y-12381674D01*
X15528206Y-12381674D02*
X15537730Y-12391198D01*
X15537730Y-12391198D02*
X15547253Y-12410246D01*
X15547253Y-12410246D02*
X15547253Y-12467388D01*
X15547253Y-12467388D02*
X15537730Y-12486436D01*
X15537730Y-12486436D02*
X15528206Y-12495960D01*
X15528206Y-12495960D02*
X15509158Y-12505484D01*
X15509158Y-12505484D02*
X15480587Y-12505484D01*
X15661539Y-12505484D02*
X15642491Y-12495960D01*
X15642491Y-12495960D02*
X15632968Y-12476912D01*
X15632968Y-12476912D02*
X15632968Y-12305484D01*
X15813920Y-12495960D02*
X15794872Y-12505484D01*
X15794872Y-12505484D02*
X15756777Y-12505484D01*
X15756777Y-12505484D02*
X15737730Y-12495960D01*
X15737730Y-12495960D02*
X15728206Y-12476912D01*
X15728206Y-12476912D02*
X15728206Y-12400722D01*
X15728206Y-12400722D02*
X15737730Y-12381674D01*
X15737730Y-12381674D02*
X15756777Y-12372150D01*
X15756777Y-12372150D02*
X15794872Y-12372150D01*
X15794872Y-12372150D02*
X15813920Y-12381674D01*
X15813920Y-12381674D02*
X15823444Y-12400722D01*
X15823444Y-12400722D02*
X15823444Y-12419769D01*
X15823444Y-12419769D02*
X15728206Y-12438817D01*
X15899634Y-12495960D02*
X15918682Y-12505484D01*
X15918682Y-12505484D02*
X15956777Y-12505484D01*
X15956777Y-12505484D02*
X15975825Y-12495960D01*
X15975825Y-12495960D02*
X15985349Y-12476912D01*
X15985349Y-12476912D02*
X15985349Y-12467388D01*
X15985349Y-12467388D02*
X15975825Y-12448341D01*
X15975825Y-12448341D02*
X15956777Y-12438817D01*
X15956777Y-12438817D02*
X15928206Y-12438817D01*
X15928206Y-12438817D02*
X15909158Y-12429293D01*
X15909158Y-12429293D02*
X15899634Y-12410246D01*
X15899634Y-12410246D02*
X15899634Y-12400722D01*
X15899634Y-12400722D02*
X15909158Y-12381674D01*
X15909158Y-12381674D02*
X15928206Y-12372150D01*
X15928206Y-12372150D02*
X15956777Y-12372150D01*
X15956777Y-12372150D02*
X15975825Y-12381674D01*
X16052015Y-12581674D02*
X16061539Y-12572150D01*
X16061539Y-12572150D02*
X16080587Y-12543579D01*
X16080587Y-12543579D02*
X16090111Y-12524531D01*
X16090111Y-12524531D02*
X16099634Y-12495960D01*
X16099634Y-12495960D02*
X16109158Y-12448341D01*
X16109158Y-12448341D02*
X16109158Y-12410246D01*
X16109158Y-12410246D02*
X16099634Y-12362627D01*
X16099634Y-12362627D02*
X16090111Y-12334055D01*
X16090111Y-12334055D02*
X16080587Y-12315008D01*
X16080587Y-12315008D02*
X16061539Y-12286436D01*
X16061539Y-12286436D02*
X16052015Y-12276912D01*
D10*
X10871000Y-12653000D02*
X10871000Y-12703000D01*
X10846000Y-12678000D02*
X10896000Y-12678000D01*
D11*
X11194872Y-12569484D02*
X11213920Y-12569484D01*
X11213920Y-12569484D02*
X11232967Y-12579008D01*
X11232967Y-12579008D02*
X11242491Y-12588531D01*
X11242491Y-12588531D02*
X11252015Y-12607579D01*
X11252015Y-12607579D02*
X11261539Y-12645674D01*
X11261539Y-12645674D02*
X11261539Y-12693293D01*
X11261539Y-12693293D02*
X11252015Y-12731388D01*
X11252015Y-12731388D02*
X11242491Y-12750436D01*
X11242491Y-12750436D02*
X11232967Y-12759960D01*
X11232967Y-12759960D02*
X11213920Y-12769484D01*
X11213920Y-12769484D02*
X11194872Y-12769484D01*
X11194872Y-12769484D02*
X11175824Y-12759960D01*
X11175824Y-12759960D02*
X11166301Y-12750436D01*
X11166301Y-12750436D02*
X11156777Y-12731388D01*
X11156777Y-12731388D02*
X11147253Y-12693293D01*
X11147253Y-12693293D02*
X11147253Y-12645674D01*
X11147253Y-12645674D02*
X11156777Y-12607579D01*
X11156777Y-12607579D02*
X11166301Y-12588531D01*
X11166301Y-12588531D02*
X11175824Y-12579008D01*
X11175824Y-12579008D02*
X11194872Y-12569484D01*
X11347253Y-12750436D02*
X11356777Y-12759960D01*
X11356777Y-12759960D02*
X11347253Y-12769484D01*
X11347253Y-12769484D02*
X11337729Y-12759960D01*
X11337729Y-12759960D02*
X11347253Y-12750436D01*
X11347253Y-12750436D02*
X11347253Y-12769484D01*
X11537729Y-12569484D02*
X11442491Y-12569484D01*
X11442491Y-12569484D02*
X11432967Y-12664722D01*
X11432967Y-12664722D02*
X11442491Y-12655198D01*
X11442491Y-12655198D02*
X11461539Y-12645674D01*
X11461539Y-12645674D02*
X11509158Y-12645674D01*
X11509158Y-12645674D02*
X11528205Y-12655198D01*
X11528205Y-12655198D02*
X11537729Y-12664722D01*
X11537729Y-12664722D02*
X11547253Y-12683769D01*
X11547253Y-12683769D02*
X11547253Y-12731388D01*
X11547253Y-12731388D02*
X11537729Y-12750436D01*
X11537729Y-12750436D02*
X11528205Y-12759960D01*
X11528205Y-12759960D02*
X11509158Y-12769484D01*
X11509158Y-12769484D02*
X11461539Y-12769484D01*
X11461539Y-12769484D02*
X11442491Y-12759960D01*
X11442491Y-12759960D02*
X11432967Y-12750436D01*
X11671062Y-12569484D02*
X11690110Y-12569484D01*
X11690110Y-12569484D02*
X11709158Y-12579008D01*
X11709158Y-12579008D02*
X11718682Y-12588531D01*
X11718682Y-12588531D02*
X11728205Y-12607579D01*
X11728205Y-12607579D02*
X11737729Y-12645674D01*
X11737729Y-12645674D02*
X11737729Y-12693293D01*
X11737729Y-12693293D02*
X11728205Y-12731388D01*
X11728205Y-12731388D02*
X11718682Y-12750436D01*
X11718682Y-12750436D02*
X11709158Y-12759960D01*
X11709158Y-12759960D02*
X11690110Y-12769484D01*
X11690110Y-12769484D02*
X11671062Y-12769484D01*
X11671062Y-12769484D02*
X11652015Y-12759960D01*
X11652015Y-12759960D02*
X11642491Y-12750436D01*
X11642491Y-12750436D02*
X11632967Y-12731388D01*
X11632967Y-12731388D02*
X11623443Y-12693293D01*
X11623443Y-12693293D02*
X11623443Y-12645674D01*
X11623443Y-12645674D02*
X11632967Y-12607579D01*
X11632967Y-12607579D02*
X11642491Y-12588531D01*
X11642491Y-12588531D02*
X11652015Y-12579008D01*
X11652015Y-12579008D02*
X11671062Y-12569484D01*
X11861539Y-12569484D02*
X11880586Y-12569484D01*
X11880586Y-12569484D02*
X11899634Y-12579008D01*
X11899634Y-12579008D02*
X11909158Y-12588531D01*
X11909158Y-12588531D02*
X11918682Y-12607579D01*
X11918682Y-12607579D02*
X11928205Y-12645674D01*
X11928205Y-12645674D02*
X11928205Y-12693293D01*
X11928205Y-12693293D02*
X11918682Y-12731388D01*
X11918682Y-12731388D02*
X11909158Y-12750436D01*
X11909158Y-12750436D02*
X11899634Y-12759960D01*
X11899634Y-12759960D02*
X11880586Y-12769484D01*
X11880586Y-12769484D02*
X11861539Y-12769484D01*
X11861539Y-12769484D02*
X11842491Y-12759960D01*
X11842491Y-12759960D02*
X11832967Y-12750436D01*
X11832967Y-12750436D02*
X11823443Y-12731388D01*
X11823443Y-12731388D02*
X11813920Y-12693293D01*
X11813920Y-12693293D02*
X11813920Y-12645674D01*
X11813920Y-12645674D02*
X11823443Y-12607579D01*
X11823443Y-12607579D02*
X11832967Y-12588531D01*
X11832967Y-12588531D02*
X11842491Y-12579008D01*
X11842491Y-12579008D02*
X11861539Y-12569484D01*
X12013920Y-12769484D02*
X12013920Y-12636150D01*
X12013920Y-12655198D02*
X12023443Y-12645674D01*
X12023443Y-12645674D02*
X12042491Y-12636150D01*
X12042491Y-12636150D02*
X12071063Y-12636150D01*
X12071063Y-12636150D02*
X12090110Y-12645674D01*
X12090110Y-12645674D02*
X12099634Y-12664722D01*
X12099634Y-12664722D02*
X12099634Y-12769484D01*
X12099634Y-12664722D02*
X12109158Y-12645674D01*
X12109158Y-12645674D02*
X12128205Y-12636150D01*
X12128205Y-12636150D02*
X12156777Y-12636150D01*
X12156777Y-12636150D02*
X12175824Y-12645674D01*
X12175824Y-12645674D02*
X12185348Y-12664722D01*
X12185348Y-12664722D02*
X12185348Y-12769484D01*
X12280586Y-12769484D02*
X12280586Y-12636150D01*
X12280586Y-12655198D02*
X12290110Y-12645674D01*
X12290110Y-12645674D02*
X12309158Y-12636150D01*
X12309158Y-12636150D02*
X12337729Y-12636150D01*
X12337729Y-12636150D02*
X12356777Y-12645674D01*
X12356777Y-12645674D02*
X12366301Y-12664722D01*
X12366301Y-12664722D02*
X12366301Y-12769484D01*
X12366301Y-12664722D02*
X12375824Y-12645674D01*
X12375824Y-12645674D02*
X12394872Y-12636150D01*
X12394872Y-12636150D02*
X12423443Y-12636150D01*
X12423443Y-12636150D02*
X12442491Y-12645674D01*
X12442491Y-12645674D02*
X12452015Y-12664722D01*
X12452015Y-12664722D02*
X12452015Y-12769484D01*
X12842491Y-12559960D02*
X12671063Y-12817103D01*
X13099634Y-12569484D02*
X13118682Y-12569484D01*
X13118682Y-12569484D02*
X13137729Y-12579008D01*
X13137729Y-12579008D02*
X13147253Y-12588531D01*
X13147253Y-12588531D02*
X13156777Y-12607579D01*
X13156777Y-12607579D02*
X13166301Y-12645674D01*
X13166301Y-12645674D02*
X13166301Y-12693293D01*
X13166301Y-12693293D02*
X13156777Y-12731388D01*
X13156777Y-12731388D02*
X13147253Y-12750436D01*
X13147253Y-12750436D02*
X13137729Y-12759960D01*
X13137729Y-12759960D02*
X13118682Y-12769484D01*
X13118682Y-12769484D02*
X13099634Y-12769484D01*
X13099634Y-12769484D02*
X13080586Y-12759960D01*
X13080586Y-12759960D02*
X13071063Y-12750436D01*
X13071063Y-12750436D02*
X13061539Y-12731388D01*
X13061539Y-12731388D02*
X13052015Y-12693293D01*
X13052015Y-12693293D02*
X13052015Y-12645674D01*
X13052015Y-12645674D02*
X13061539Y-12607579D01*
X13061539Y-12607579D02*
X13071063Y-12588531D01*
X13071063Y-12588531D02*
X13080586Y-12579008D01*
X13080586Y-12579008D02*
X13099634Y-12569484D01*
X13252015Y-12750436D02*
X13261539Y-12759960D01*
X13261539Y-12759960D02*
X13252015Y-12769484D01*
X13252015Y-12769484D02*
X13242491Y-12759960D01*
X13242491Y-12759960D02*
X13252015Y-12750436D01*
X13252015Y-12750436D02*
X13252015Y-12769484D01*
X13385348Y-12569484D02*
X13404396Y-12569484D01*
X13404396Y-12569484D02*
X13423444Y-12579008D01*
X13423444Y-12579008D02*
X13432967Y-12588531D01*
X13432967Y-12588531D02*
X13442491Y-12607579D01*
X13442491Y-12607579D02*
X13452015Y-12645674D01*
X13452015Y-12645674D02*
X13452015Y-12693293D01*
X13452015Y-12693293D02*
X13442491Y-12731388D01*
X13442491Y-12731388D02*
X13432967Y-12750436D01*
X13432967Y-12750436D02*
X13423444Y-12759960D01*
X13423444Y-12759960D02*
X13404396Y-12769484D01*
X13404396Y-12769484D02*
X13385348Y-12769484D01*
X13385348Y-12769484D02*
X13366301Y-12759960D01*
X13366301Y-12759960D02*
X13356777Y-12750436D01*
X13356777Y-12750436D02*
X13347253Y-12731388D01*
X13347253Y-12731388D02*
X13337729Y-12693293D01*
X13337729Y-12693293D02*
X13337729Y-12645674D01*
X13337729Y-12645674D02*
X13347253Y-12607579D01*
X13347253Y-12607579D02*
X13356777Y-12588531D01*
X13356777Y-12588531D02*
X13366301Y-12579008D01*
X13366301Y-12579008D02*
X13385348Y-12569484D01*
X13642491Y-12769484D02*
X13528206Y-12769484D01*
X13585348Y-12769484D02*
X13585348Y-12569484D01*
X13585348Y-12569484D02*
X13566301Y-12598055D01*
X13566301Y-12598055D02*
X13547253Y-12617103D01*
X13547253Y-12617103D02*
X13528206Y-12626627D01*
X13737729Y-12769484D02*
X13775825Y-12769484D01*
X13775825Y-12769484D02*
X13794872Y-12759960D01*
X13794872Y-12759960D02*
X13804396Y-12750436D01*
X13804396Y-12750436D02*
X13823444Y-12721865D01*
X13823444Y-12721865D02*
X13832967Y-12683769D01*
X13832967Y-12683769D02*
X13832967Y-12607579D01*
X13832967Y-12607579D02*
X13823444Y-12588531D01*
X13823444Y-12588531D02*
X13813920Y-12579008D01*
X13813920Y-12579008D02*
X13794872Y-12569484D01*
X13794872Y-12569484D02*
X13756777Y-12569484D01*
X13756777Y-12569484D02*
X13737729Y-12579008D01*
X13737729Y-12579008D02*
X13728206Y-12588531D01*
X13728206Y-12588531D02*
X13718682Y-12607579D01*
X13718682Y-12607579D02*
X13718682Y-12655198D01*
X13718682Y-12655198D02*
X13728206Y-12674246D01*
X13728206Y-12674246D02*
X13737729Y-12683769D01*
X13737729Y-12683769D02*
X13756777Y-12693293D01*
X13756777Y-12693293D02*
X13794872Y-12693293D01*
X13794872Y-12693293D02*
X13813920Y-12683769D01*
X13813920Y-12683769D02*
X13823444Y-12674246D01*
X13823444Y-12674246D02*
X13832967Y-12655198D01*
X13899634Y-12569484D02*
X14032967Y-12569484D01*
X14032967Y-12569484D02*
X13947253Y-12769484D01*
X14099634Y-12569484D02*
X14099634Y-12607579D01*
X14175825Y-12569484D02*
X14175825Y-12607579D01*
X14471063Y-12845674D02*
X14461539Y-12836150D01*
X14461539Y-12836150D02*
X14442491Y-12807579D01*
X14442491Y-12807579D02*
X14432968Y-12788531D01*
X14432968Y-12788531D02*
X14423444Y-12759960D01*
X14423444Y-12759960D02*
X14413920Y-12712341D01*
X14413920Y-12712341D02*
X14413920Y-12674246D01*
X14413920Y-12674246D02*
X14423444Y-12626627D01*
X14423444Y-12626627D02*
X14432968Y-12598055D01*
X14432968Y-12598055D02*
X14442491Y-12579008D01*
X14442491Y-12579008D02*
X14461539Y-12550436D01*
X14461539Y-12550436D02*
X14471063Y-12540912D01*
X14585348Y-12569484D02*
X14604396Y-12569484D01*
X14604396Y-12569484D02*
X14623444Y-12579008D01*
X14623444Y-12579008D02*
X14632968Y-12588531D01*
X14632968Y-12588531D02*
X14642491Y-12607579D01*
X14642491Y-12607579D02*
X14652015Y-12645674D01*
X14652015Y-12645674D02*
X14652015Y-12693293D01*
X14652015Y-12693293D02*
X14642491Y-12731388D01*
X14642491Y-12731388D02*
X14632968Y-12750436D01*
X14632968Y-12750436D02*
X14623444Y-12759960D01*
X14623444Y-12759960D02*
X14604396Y-12769484D01*
X14604396Y-12769484D02*
X14585348Y-12769484D01*
X14585348Y-12769484D02*
X14566301Y-12759960D01*
X14566301Y-12759960D02*
X14556777Y-12750436D01*
X14556777Y-12750436D02*
X14547253Y-12731388D01*
X14547253Y-12731388D02*
X14537729Y-12693293D01*
X14537729Y-12693293D02*
X14537729Y-12645674D01*
X14537729Y-12645674D02*
X14547253Y-12607579D01*
X14547253Y-12607579D02*
X14556777Y-12588531D01*
X14556777Y-12588531D02*
X14566301Y-12579008D01*
X14566301Y-12579008D02*
X14585348Y-12569484D01*
X14890110Y-12769484D02*
X14890110Y-12569484D01*
X14975825Y-12769484D02*
X14975825Y-12664722D01*
X14975825Y-12664722D02*
X14966301Y-12645674D01*
X14966301Y-12645674D02*
X14947253Y-12636150D01*
X14947253Y-12636150D02*
X14918682Y-12636150D01*
X14918682Y-12636150D02*
X14899634Y-12645674D01*
X14899634Y-12645674D02*
X14890110Y-12655198D01*
X15099634Y-12769484D02*
X15080587Y-12759960D01*
X15080587Y-12759960D02*
X15071063Y-12750436D01*
X15071063Y-12750436D02*
X15061539Y-12731388D01*
X15061539Y-12731388D02*
X15061539Y-12674246D01*
X15061539Y-12674246D02*
X15071063Y-12655198D01*
X15071063Y-12655198D02*
X15080587Y-12645674D01*
X15080587Y-12645674D02*
X15099634Y-12636150D01*
X15099634Y-12636150D02*
X15128206Y-12636150D01*
X15128206Y-12636150D02*
X15147253Y-12645674D01*
X15147253Y-12645674D02*
X15156777Y-12655198D01*
X15156777Y-12655198D02*
X15166301Y-12674246D01*
X15166301Y-12674246D02*
X15166301Y-12731388D01*
X15166301Y-12731388D02*
X15156777Y-12750436D01*
X15156777Y-12750436D02*
X15147253Y-12759960D01*
X15147253Y-12759960D02*
X15128206Y-12769484D01*
X15128206Y-12769484D02*
X15099634Y-12769484D01*
X15280587Y-12769484D02*
X15261539Y-12759960D01*
X15261539Y-12759960D02*
X15252015Y-12740912D01*
X15252015Y-12740912D02*
X15252015Y-12569484D01*
X15432968Y-12759960D02*
X15413920Y-12769484D01*
X15413920Y-12769484D02*
X15375825Y-12769484D01*
X15375825Y-12769484D02*
X15356777Y-12759960D01*
X15356777Y-12759960D02*
X15347253Y-12740912D01*
X15347253Y-12740912D02*
X15347253Y-12664722D01*
X15347253Y-12664722D02*
X15356777Y-12645674D01*
X15356777Y-12645674D02*
X15375825Y-12636150D01*
X15375825Y-12636150D02*
X15413920Y-12636150D01*
X15413920Y-12636150D02*
X15432968Y-12645674D01*
X15432968Y-12645674D02*
X15442491Y-12664722D01*
X15442491Y-12664722D02*
X15442491Y-12683769D01*
X15442491Y-12683769D02*
X15347253Y-12702817D01*
X15518682Y-12759960D02*
X15537730Y-12769484D01*
X15537730Y-12769484D02*
X15575825Y-12769484D01*
X15575825Y-12769484D02*
X15594872Y-12759960D01*
X15594872Y-12759960D02*
X15604396Y-12740912D01*
X15604396Y-12740912D02*
X15604396Y-12731388D01*
X15604396Y-12731388D02*
X15594872Y-12712341D01*
X15594872Y-12712341D02*
X15575825Y-12702817D01*
X15575825Y-12702817D02*
X15547253Y-12702817D01*
X15547253Y-12702817D02*
X15528206Y-12693293D01*
X15528206Y-12693293D02*
X15518682Y-12674246D01*
X15518682Y-12674246D02*
X15518682Y-12664722D01*
X15518682Y-12664722D02*
X15528206Y-12645674D01*
X15528206Y-12645674D02*
X15547253Y-12636150D01*
X15547253Y-12636150D02*
X15575825Y-12636150D01*
X15575825Y-12636150D02*
X15594872Y-12645674D01*
X15842492Y-12693293D02*
X15994873Y-12693293D01*
X15918682Y-12769484D02*
X15918682Y-12617103D01*
X16232968Y-12588531D02*
X16242492Y-12579008D01*
X16242492Y-12579008D02*
X16261539Y-12569484D01*
X16261539Y-12569484D02*
X16309158Y-12569484D01*
X16309158Y-12569484D02*
X16328206Y-12579008D01*
X16328206Y-12579008D02*
X16337730Y-12588531D01*
X16337730Y-12588531D02*
X16347253Y-12607579D01*
X16347253Y-12607579D02*
X16347253Y-12626627D01*
X16347253Y-12626627D02*
X16337730Y-12655198D01*
X16337730Y-12655198D02*
X16223444Y-12769484D01*
X16223444Y-12769484D02*
X16347253Y-12769484D01*
X16575825Y-12759960D02*
X16594873Y-12769484D01*
X16594873Y-12769484D02*
X16632968Y-12769484D01*
X16632968Y-12769484D02*
X16652015Y-12759960D01*
X16652015Y-12759960D02*
X16661539Y-12740912D01*
X16661539Y-12740912D02*
X16661539Y-12731388D01*
X16661539Y-12731388D02*
X16652015Y-12712341D01*
X16652015Y-12712341D02*
X16632968Y-12702817D01*
X16632968Y-12702817D02*
X16604396Y-12702817D01*
X16604396Y-12702817D02*
X16585349Y-12693293D01*
X16585349Y-12693293D02*
X16575825Y-12674246D01*
X16575825Y-12674246D02*
X16575825Y-12664722D01*
X16575825Y-12664722D02*
X16585349Y-12645674D01*
X16585349Y-12645674D02*
X16604396Y-12636150D01*
X16604396Y-12636150D02*
X16632968Y-12636150D01*
X16632968Y-12636150D02*
X16652015Y-12645674D01*
X16775825Y-12769484D02*
X16756777Y-12759960D01*
X16756777Y-12759960D02*
X16747254Y-12740912D01*
X16747254Y-12740912D02*
X16747254Y-12569484D01*
X16880587Y-12769484D02*
X16861539Y-12759960D01*
X16861539Y-12759960D02*
X16852016Y-12750436D01*
X16852016Y-12750436D02*
X16842492Y-12731388D01*
X16842492Y-12731388D02*
X16842492Y-12674246D01*
X16842492Y-12674246D02*
X16852016Y-12655198D01*
X16852016Y-12655198D02*
X16861539Y-12645674D01*
X16861539Y-12645674D02*
X16880587Y-12636150D01*
X16880587Y-12636150D02*
X16909158Y-12636150D01*
X16909158Y-12636150D02*
X16928206Y-12645674D01*
X16928206Y-12645674D02*
X16937730Y-12655198D01*
X16937730Y-12655198D02*
X16947254Y-12674246D01*
X16947254Y-12674246D02*
X16947254Y-12731388D01*
X16947254Y-12731388D02*
X16937730Y-12750436D01*
X16937730Y-12750436D02*
X16928206Y-12759960D01*
X16928206Y-12759960D02*
X16909158Y-12769484D01*
X16909158Y-12769484D02*
X16880587Y-12769484D01*
X17004397Y-12636150D02*
X17080587Y-12636150D01*
X17032968Y-12569484D02*
X17032968Y-12740912D01*
X17032968Y-12740912D02*
X17042492Y-12759960D01*
X17042492Y-12759960D02*
X17061539Y-12769484D01*
X17061539Y-12769484D02*
X17080587Y-12769484D01*
X17137730Y-12759960D02*
X17156777Y-12769484D01*
X17156777Y-12769484D02*
X17194873Y-12769484D01*
X17194873Y-12769484D02*
X17213920Y-12759960D01*
X17213920Y-12759960D02*
X17223444Y-12740912D01*
X17223444Y-12740912D02*
X17223444Y-12731388D01*
X17223444Y-12731388D02*
X17213920Y-12712341D01*
X17213920Y-12712341D02*
X17194873Y-12702817D01*
X17194873Y-12702817D02*
X17166301Y-12702817D01*
X17166301Y-12702817D02*
X17147254Y-12693293D01*
X17147254Y-12693293D02*
X17137730Y-12674246D01*
X17137730Y-12674246D02*
X17137730Y-12664722D01*
X17137730Y-12664722D02*
X17147254Y-12645674D01*
X17147254Y-12645674D02*
X17166301Y-12636150D01*
X17166301Y-12636150D02*
X17194873Y-12636150D01*
X17194873Y-12636150D02*
X17213920Y-12645674D01*
X17290111Y-12845674D02*
X17299635Y-12836150D01*
X17299635Y-12836150D02*
X17318682Y-12807579D01*
X17318682Y-12807579D02*
X17328206Y-12788531D01*
X17328206Y-12788531D02*
X17337730Y-12759960D01*
X17337730Y-12759960D02*
X17347254Y-12712341D01*
X17347254Y-12712341D02*
X17347254Y-12674246D01*
X17347254Y-12674246D02*
X17337730Y-12626627D01*
X17337730Y-12626627D02*
X17328206Y-12598055D01*
X17328206Y-12598055D02*
X17318682Y-12579008D01*
X17318682Y-12579008D02*
X17299635Y-12550436D01*
X17299635Y-12550436D02*
X17290111Y-12540912D01*
D10*
X10881356Y-12977356D02*
X10881356Y-12906644D01*
X10810644Y-12906644D01*
X10810644Y-12977356D01*
X10881356Y-12977356D01*
D11*
X11261539Y-13033484D02*
X11147253Y-13033484D01*
X11204396Y-13033484D02*
X11204396Y-12833484D01*
X11204396Y-12833484D02*
X11185348Y-12862055D01*
X11185348Y-12862055D02*
X11166301Y-12881103D01*
X11166301Y-12881103D02*
X11147253Y-12890627D01*
X11347253Y-13014436D02*
X11356777Y-13023960D01*
X11356777Y-13023960D02*
X11347253Y-13033484D01*
X11347253Y-13033484D02*
X11337729Y-13023960D01*
X11337729Y-13023960D02*
X11347253Y-13014436D01*
X11347253Y-13014436D02*
X11347253Y-13033484D01*
X11480586Y-12833484D02*
X11499634Y-12833484D01*
X11499634Y-12833484D02*
X11518682Y-12843008D01*
X11518682Y-12843008D02*
X11528205Y-12852531D01*
X11528205Y-12852531D02*
X11537729Y-12871579D01*
X11537729Y-12871579D02*
X11547253Y-12909674D01*
X11547253Y-12909674D02*
X11547253Y-12957293D01*
X11547253Y-12957293D02*
X11537729Y-12995388D01*
X11537729Y-12995388D02*
X11528205Y-13014436D01*
X11528205Y-13014436D02*
X11518682Y-13023960D01*
X11518682Y-13023960D02*
X11499634Y-13033484D01*
X11499634Y-13033484D02*
X11480586Y-13033484D01*
X11480586Y-13033484D02*
X11461539Y-13023960D01*
X11461539Y-13023960D02*
X11452015Y-13014436D01*
X11452015Y-13014436D02*
X11442491Y-12995388D01*
X11442491Y-12995388D02*
X11432967Y-12957293D01*
X11432967Y-12957293D02*
X11432967Y-12909674D01*
X11432967Y-12909674D02*
X11442491Y-12871579D01*
X11442491Y-12871579D02*
X11452015Y-12852531D01*
X11452015Y-12852531D02*
X11461539Y-12843008D01*
X11461539Y-12843008D02*
X11480586Y-12833484D01*
X11671062Y-12833484D02*
X11690110Y-12833484D01*
X11690110Y-12833484D02*
X11709158Y-12843008D01*
X11709158Y-12843008D02*
X11718682Y-12852531D01*
X11718682Y-12852531D02*
X11728205Y-12871579D01*
X11728205Y-12871579D02*
X11737729Y-12909674D01*
X11737729Y-12909674D02*
X11737729Y-12957293D01*
X11737729Y-12957293D02*
X11728205Y-12995388D01*
X11728205Y-12995388D02*
X11718682Y-13014436D01*
X11718682Y-13014436D02*
X11709158Y-13023960D01*
X11709158Y-13023960D02*
X11690110Y-13033484D01*
X11690110Y-13033484D02*
X11671062Y-13033484D01*
X11671062Y-13033484D02*
X11652015Y-13023960D01*
X11652015Y-13023960D02*
X11642491Y-13014436D01*
X11642491Y-13014436D02*
X11632967Y-12995388D01*
X11632967Y-12995388D02*
X11623443Y-12957293D01*
X11623443Y-12957293D02*
X11623443Y-12909674D01*
X11623443Y-12909674D02*
X11632967Y-12871579D01*
X11632967Y-12871579D02*
X11642491Y-12852531D01*
X11642491Y-12852531D02*
X11652015Y-12843008D01*
X11652015Y-12843008D02*
X11671062Y-12833484D01*
X11861539Y-12833484D02*
X11880586Y-12833484D01*
X11880586Y-12833484D02*
X11899634Y-12843008D01*
X11899634Y-12843008D02*
X11909158Y-12852531D01*
X11909158Y-12852531D02*
X11918682Y-12871579D01*
X11918682Y-12871579D02*
X11928205Y-12909674D01*
X11928205Y-12909674D02*
X11928205Y-12957293D01*
X11928205Y-12957293D02*
X11918682Y-12995388D01*
X11918682Y-12995388D02*
X11909158Y-13014436D01*
X11909158Y-13014436D02*
X11899634Y-13023960D01*
X11899634Y-13023960D02*
X11880586Y-13033484D01*
X11880586Y-13033484D02*
X11861539Y-13033484D01*
X11861539Y-13033484D02*
X11842491Y-13023960D01*
X11842491Y-13023960D02*
X11832967Y-13014436D01*
X11832967Y-13014436D02*
X11823443Y-12995388D01*
X11823443Y-12995388D02*
X11813920Y-12957293D01*
X11813920Y-12957293D02*
X11813920Y-12909674D01*
X11813920Y-12909674D02*
X11823443Y-12871579D01*
X11823443Y-12871579D02*
X11832967Y-12852531D01*
X11832967Y-12852531D02*
X11842491Y-12843008D01*
X11842491Y-12843008D02*
X11861539Y-12833484D01*
X12013920Y-13033484D02*
X12013920Y-12900150D01*
X12013920Y-12919198D02*
X12023443Y-12909674D01*
X12023443Y-12909674D02*
X12042491Y-12900150D01*
X12042491Y-12900150D02*
X12071063Y-12900150D01*
X12071063Y-12900150D02*
X12090110Y-12909674D01*
X12090110Y-12909674D02*
X12099634Y-12928722D01*
X12099634Y-12928722D02*
X12099634Y-13033484D01*
X12099634Y-12928722D02*
X12109158Y-12909674D01*
X12109158Y-12909674D02*
X12128205Y-12900150D01*
X12128205Y-12900150D02*
X12156777Y-12900150D01*
X12156777Y-12900150D02*
X12175824Y-12909674D01*
X12175824Y-12909674D02*
X12185348Y-12928722D01*
X12185348Y-12928722D02*
X12185348Y-13033484D01*
X12280586Y-13033484D02*
X12280586Y-12900150D01*
X12280586Y-12919198D02*
X12290110Y-12909674D01*
X12290110Y-12909674D02*
X12309158Y-12900150D01*
X12309158Y-12900150D02*
X12337729Y-12900150D01*
X12337729Y-12900150D02*
X12356777Y-12909674D01*
X12356777Y-12909674D02*
X12366301Y-12928722D01*
X12366301Y-12928722D02*
X12366301Y-13033484D01*
X12366301Y-12928722D02*
X12375824Y-12909674D01*
X12375824Y-12909674D02*
X12394872Y-12900150D01*
X12394872Y-12900150D02*
X12423443Y-12900150D01*
X12423443Y-12900150D02*
X12442491Y-12909674D01*
X12442491Y-12909674D02*
X12452015Y-12928722D01*
X12452015Y-12928722D02*
X12452015Y-13033484D01*
X12842491Y-12823960D02*
X12671063Y-13081103D01*
X13099634Y-12833484D02*
X13118682Y-12833484D01*
X13118682Y-12833484D02*
X13137729Y-12843008D01*
X13137729Y-12843008D02*
X13147253Y-12852531D01*
X13147253Y-12852531D02*
X13156777Y-12871579D01*
X13156777Y-12871579D02*
X13166301Y-12909674D01*
X13166301Y-12909674D02*
X13166301Y-12957293D01*
X13166301Y-12957293D02*
X13156777Y-12995388D01*
X13156777Y-12995388D02*
X13147253Y-13014436D01*
X13147253Y-13014436D02*
X13137729Y-13023960D01*
X13137729Y-13023960D02*
X13118682Y-13033484D01*
X13118682Y-13033484D02*
X13099634Y-13033484D01*
X13099634Y-13033484D02*
X13080586Y-13023960D01*
X13080586Y-13023960D02*
X13071063Y-13014436D01*
X13071063Y-13014436D02*
X13061539Y-12995388D01*
X13061539Y-12995388D02*
X13052015Y-12957293D01*
X13052015Y-12957293D02*
X13052015Y-12909674D01*
X13052015Y-12909674D02*
X13061539Y-12871579D01*
X13061539Y-12871579D02*
X13071063Y-12852531D01*
X13071063Y-12852531D02*
X13080586Y-12843008D01*
X13080586Y-12843008D02*
X13099634Y-12833484D01*
X13252015Y-13014436D02*
X13261539Y-13023960D01*
X13261539Y-13023960D02*
X13252015Y-13033484D01*
X13252015Y-13033484D02*
X13242491Y-13023960D01*
X13242491Y-13023960D02*
X13252015Y-13014436D01*
X13252015Y-13014436D02*
X13252015Y-13033484D01*
X13385348Y-12833484D02*
X13404396Y-12833484D01*
X13404396Y-12833484D02*
X13423444Y-12843008D01*
X13423444Y-12843008D02*
X13432967Y-12852531D01*
X13432967Y-12852531D02*
X13442491Y-12871579D01*
X13442491Y-12871579D02*
X13452015Y-12909674D01*
X13452015Y-12909674D02*
X13452015Y-12957293D01*
X13452015Y-12957293D02*
X13442491Y-12995388D01*
X13442491Y-12995388D02*
X13432967Y-13014436D01*
X13432967Y-13014436D02*
X13423444Y-13023960D01*
X13423444Y-13023960D02*
X13404396Y-13033484D01*
X13404396Y-13033484D02*
X13385348Y-13033484D01*
X13385348Y-13033484D02*
X13366301Y-13023960D01*
X13366301Y-13023960D02*
X13356777Y-13014436D01*
X13356777Y-13014436D02*
X13347253Y-12995388D01*
X13347253Y-12995388D02*
X13337729Y-12957293D01*
X13337729Y-12957293D02*
X13337729Y-12909674D01*
X13337729Y-12909674D02*
X13347253Y-12871579D01*
X13347253Y-12871579D02*
X13356777Y-12852531D01*
X13356777Y-12852531D02*
X13366301Y-12843008D01*
X13366301Y-12843008D02*
X13385348Y-12833484D01*
X13518682Y-12833484D02*
X13642491Y-12833484D01*
X13642491Y-12833484D02*
X13575825Y-12909674D01*
X13575825Y-12909674D02*
X13604396Y-12909674D01*
X13604396Y-12909674D02*
X13623444Y-12919198D01*
X13623444Y-12919198D02*
X13632967Y-12928722D01*
X13632967Y-12928722D02*
X13642491Y-12947769D01*
X13642491Y-12947769D02*
X13642491Y-12995388D01*
X13642491Y-12995388D02*
X13632967Y-13014436D01*
X13632967Y-13014436D02*
X13623444Y-13023960D01*
X13623444Y-13023960D02*
X13604396Y-13033484D01*
X13604396Y-13033484D02*
X13547253Y-13033484D01*
X13547253Y-13033484D02*
X13528206Y-13023960D01*
X13528206Y-13023960D02*
X13518682Y-13014436D01*
X13737729Y-13033484D02*
X13775825Y-13033484D01*
X13775825Y-13033484D02*
X13794872Y-13023960D01*
X13794872Y-13023960D02*
X13804396Y-13014436D01*
X13804396Y-13014436D02*
X13823444Y-12985865D01*
X13823444Y-12985865D02*
X13832967Y-12947769D01*
X13832967Y-12947769D02*
X13832967Y-12871579D01*
X13832967Y-12871579D02*
X13823444Y-12852531D01*
X13823444Y-12852531D02*
X13813920Y-12843008D01*
X13813920Y-12843008D02*
X13794872Y-12833484D01*
X13794872Y-12833484D02*
X13756777Y-12833484D01*
X13756777Y-12833484D02*
X13737729Y-12843008D01*
X13737729Y-12843008D02*
X13728206Y-12852531D01*
X13728206Y-12852531D02*
X13718682Y-12871579D01*
X13718682Y-12871579D02*
X13718682Y-12919198D01*
X13718682Y-12919198D02*
X13728206Y-12938246D01*
X13728206Y-12938246D02*
X13737729Y-12947769D01*
X13737729Y-12947769D02*
X13756777Y-12957293D01*
X13756777Y-12957293D02*
X13794872Y-12957293D01*
X13794872Y-12957293D02*
X13813920Y-12947769D01*
X13813920Y-12947769D02*
X13823444Y-12938246D01*
X13823444Y-12938246D02*
X13832967Y-12919198D01*
X14004396Y-12900150D02*
X14004396Y-13033484D01*
X13956777Y-12823960D02*
X13909158Y-12966817D01*
X13909158Y-12966817D02*
X14032967Y-12966817D01*
X14099634Y-12833484D02*
X14099634Y-12871579D01*
X14175825Y-12833484D02*
X14175825Y-12871579D01*
X14471063Y-13109674D02*
X14461539Y-13100150D01*
X14461539Y-13100150D02*
X14442491Y-13071579D01*
X14442491Y-13071579D02*
X14432968Y-13052531D01*
X14432968Y-13052531D02*
X14423444Y-13023960D01*
X14423444Y-13023960D02*
X14413920Y-12976341D01*
X14413920Y-12976341D02*
X14413920Y-12938246D01*
X14413920Y-12938246D02*
X14423444Y-12890627D01*
X14423444Y-12890627D02*
X14432968Y-12862055D01*
X14432968Y-12862055D02*
X14442491Y-12843008D01*
X14442491Y-12843008D02*
X14461539Y-12814436D01*
X14461539Y-12814436D02*
X14471063Y-12804912D01*
X14537729Y-12852531D02*
X14547253Y-12843008D01*
X14547253Y-12843008D02*
X14566301Y-12833484D01*
X14566301Y-12833484D02*
X14613920Y-12833484D01*
X14613920Y-12833484D02*
X14632968Y-12843008D01*
X14632968Y-12843008D02*
X14642491Y-12852531D01*
X14642491Y-12852531D02*
X14652015Y-12871579D01*
X14652015Y-12871579D02*
X14652015Y-12890627D01*
X14652015Y-12890627D02*
X14642491Y-12919198D01*
X14642491Y-12919198D02*
X14528206Y-13033484D01*
X14528206Y-13033484D02*
X14652015Y-13033484D01*
X14890110Y-13033484D02*
X14890110Y-12833484D01*
X14975825Y-13033484D02*
X14975825Y-12928722D01*
X14975825Y-12928722D02*
X14966301Y-12909674D01*
X14966301Y-12909674D02*
X14947253Y-12900150D01*
X14947253Y-12900150D02*
X14918682Y-12900150D01*
X14918682Y-12900150D02*
X14899634Y-12909674D01*
X14899634Y-12909674D02*
X14890110Y-12919198D01*
X15099634Y-13033484D02*
X15080587Y-13023960D01*
X15080587Y-13023960D02*
X15071063Y-13014436D01*
X15071063Y-13014436D02*
X15061539Y-12995388D01*
X15061539Y-12995388D02*
X15061539Y-12938246D01*
X15061539Y-12938246D02*
X15071063Y-12919198D01*
X15071063Y-12919198D02*
X15080587Y-12909674D01*
X15080587Y-12909674D02*
X15099634Y-12900150D01*
X15099634Y-12900150D02*
X15128206Y-12900150D01*
X15128206Y-12900150D02*
X15147253Y-12909674D01*
X15147253Y-12909674D02*
X15156777Y-12919198D01*
X15156777Y-12919198D02*
X15166301Y-12938246D01*
X15166301Y-12938246D02*
X15166301Y-12995388D01*
X15166301Y-12995388D02*
X15156777Y-13014436D01*
X15156777Y-13014436D02*
X15147253Y-13023960D01*
X15147253Y-13023960D02*
X15128206Y-13033484D01*
X15128206Y-13033484D02*
X15099634Y-13033484D01*
X15280587Y-13033484D02*
X15261539Y-13023960D01*
X15261539Y-13023960D02*
X15252015Y-13004912D01*
X15252015Y-13004912D02*
X15252015Y-12833484D01*
X15432968Y-13023960D02*
X15413920Y-13033484D01*
X15413920Y-13033484D02*
X15375825Y-13033484D01*
X15375825Y-13033484D02*
X15356777Y-13023960D01*
X15356777Y-13023960D02*
X15347253Y-13004912D01*
X15347253Y-13004912D02*
X15347253Y-12928722D01*
X15347253Y-12928722D02*
X15356777Y-12909674D01*
X15356777Y-12909674D02*
X15375825Y-12900150D01*
X15375825Y-12900150D02*
X15413920Y-12900150D01*
X15413920Y-12900150D02*
X15432968Y-12909674D01*
X15432968Y-12909674D02*
X15442491Y-12928722D01*
X15442491Y-12928722D02*
X15442491Y-12947769D01*
X15442491Y-12947769D02*
X15347253Y-12966817D01*
X15518682Y-13023960D02*
X15537730Y-13033484D01*
X15537730Y-13033484D02*
X15575825Y-13033484D01*
X15575825Y-13033484D02*
X15594872Y-13023960D01*
X15594872Y-13023960D02*
X15604396Y-13004912D01*
X15604396Y-13004912D02*
X15604396Y-12995388D01*
X15604396Y-12995388D02*
X15594872Y-12976341D01*
X15594872Y-12976341D02*
X15575825Y-12966817D01*
X15575825Y-12966817D02*
X15547253Y-12966817D01*
X15547253Y-12966817D02*
X15528206Y-12957293D01*
X15528206Y-12957293D02*
X15518682Y-12938246D01*
X15518682Y-12938246D02*
X15518682Y-12928722D01*
X15518682Y-12928722D02*
X15528206Y-12909674D01*
X15528206Y-12909674D02*
X15547253Y-12900150D01*
X15547253Y-12900150D02*
X15575825Y-12900150D01*
X15575825Y-12900150D02*
X15594872Y-12909674D01*
X15671063Y-13109674D02*
X15680587Y-13100150D01*
X15680587Y-13100150D02*
X15699634Y-13071579D01*
X15699634Y-13071579D02*
X15709158Y-13052531D01*
X15709158Y-13052531D02*
X15718682Y-13023960D01*
X15718682Y-13023960D02*
X15728206Y-12976341D01*
X15728206Y-12976341D02*
X15728206Y-12938246D01*
X15728206Y-12938246D02*
X15718682Y-12890627D01*
X15718682Y-12890627D02*
X15709158Y-12862055D01*
X15709158Y-12862055D02*
X15699634Y-12843008D01*
X15699634Y-12843008D02*
X15680587Y-12814436D01*
X15680587Y-12814436D02*
X15671063Y-12804912D01*
D12*
X10831000Y-13271000D02*
X10896000Y-13206000D01*
X10831000Y-13141000D01*
X10766000Y-13206000D01*
X10831000Y-13271000D01*
D11*
X11261539Y-13297484D02*
X11147253Y-13297484D01*
X11204396Y-13297484D02*
X11204396Y-13097484D01*
X11204396Y-13097484D02*
X11185348Y-13126055D01*
X11185348Y-13126055D02*
X11166301Y-13145103D01*
X11166301Y-13145103D02*
X11147253Y-13154627D01*
X11347253Y-13278436D02*
X11356777Y-13287960D01*
X11356777Y-13287960D02*
X11347253Y-13297484D01*
X11347253Y-13297484D02*
X11337729Y-13287960D01*
X11337729Y-13287960D02*
X11347253Y-13278436D01*
X11347253Y-13278436D02*
X11347253Y-13297484D01*
X11423443Y-13097484D02*
X11547253Y-13097484D01*
X11547253Y-13097484D02*
X11480586Y-13173674D01*
X11480586Y-13173674D02*
X11509158Y-13173674D01*
X11509158Y-13173674D02*
X11528205Y-13183198D01*
X11528205Y-13183198D02*
X11537729Y-13192722D01*
X11537729Y-13192722D02*
X11547253Y-13211769D01*
X11547253Y-13211769D02*
X11547253Y-13259388D01*
X11547253Y-13259388D02*
X11537729Y-13278436D01*
X11537729Y-13278436D02*
X11528205Y-13287960D01*
X11528205Y-13287960D02*
X11509158Y-13297484D01*
X11509158Y-13297484D02*
X11452015Y-13297484D01*
X11452015Y-13297484D02*
X11432967Y-13287960D01*
X11432967Y-13287960D02*
X11423443Y-13278436D01*
X11671062Y-13097484D02*
X11690110Y-13097484D01*
X11690110Y-13097484D02*
X11709158Y-13107008D01*
X11709158Y-13107008D02*
X11718682Y-13116531D01*
X11718682Y-13116531D02*
X11728205Y-13135579D01*
X11728205Y-13135579D02*
X11737729Y-13173674D01*
X11737729Y-13173674D02*
X11737729Y-13221293D01*
X11737729Y-13221293D02*
X11728205Y-13259388D01*
X11728205Y-13259388D02*
X11718682Y-13278436D01*
X11718682Y-13278436D02*
X11709158Y-13287960D01*
X11709158Y-13287960D02*
X11690110Y-13297484D01*
X11690110Y-13297484D02*
X11671062Y-13297484D01*
X11671062Y-13297484D02*
X11652015Y-13287960D01*
X11652015Y-13287960D02*
X11642491Y-13278436D01*
X11642491Y-13278436D02*
X11632967Y-13259388D01*
X11632967Y-13259388D02*
X11623443Y-13221293D01*
X11623443Y-13221293D02*
X11623443Y-13173674D01*
X11623443Y-13173674D02*
X11632967Y-13135579D01*
X11632967Y-13135579D02*
X11642491Y-13116531D01*
X11642491Y-13116531D02*
X11652015Y-13107008D01*
X11652015Y-13107008D02*
X11671062Y-13097484D01*
X11861539Y-13097484D02*
X11880586Y-13097484D01*
X11880586Y-13097484D02*
X11899634Y-13107008D01*
X11899634Y-13107008D02*
X11909158Y-13116531D01*
X11909158Y-13116531D02*
X11918682Y-13135579D01*
X11918682Y-13135579D02*
X11928205Y-13173674D01*
X11928205Y-13173674D02*
X11928205Y-13221293D01*
X11928205Y-13221293D02*
X11918682Y-13259388D01*
X11918682Y-13259388D02*
X11909158Y-13278436D01*
X11909158Y-13278436D02*
X11899634Y-13287960D01*
X11899634Y-13287960D02*
X11880586Y-13297484D01*
X11880586Y-13297484D02*
X11861539Y-13297484D01*
X11861539Y-13297484D02*
X11842491Y-13287960D01*
X11842491Y-13287960D02*
X11832967Y-13278436D01*
X11832967Y-13278436D02*
X11823443Y-13259388D01*
X11823443Y-13259388D02*
X11813920Y-13221293D01*
X11813920Y-13221293D02*
X11813920Y-13173674D01*
X11813920Y-13173674D02*
X11823443Y-13135579D01*
X11823443Y-13135579D02*
X11832967Y-13116531D01*
X11832967Y-13116531D02*
X11842491Y-13107008D01*
X11842491Y-13107008D02*
X11861539Y-13097484D01*
X12013920Y-13297484D02*
X12013920Y-13164150D01*
X12013920Y-13183198D02*
X12023443Y-13173674D01*
X12023443Y-13173674D02*
X12042491Y-13164150D01*
X12042491Y-13164150D02*
X12071063Y-13164150D01*
X12071063Y-13164150D02*
X12090110Y-13173674D01*
X12090110Y-13173674D02*
X12099634Y-13192722D01*
X12099634Y-13192722D02*
X12099634Y-13297484D01*
X12099634Y-13192722D02*
X12109158Y-13173674D01*
X12109158Y-13173674D02*
X12128205Y-13164150D01*
X12128205Y-13164150D02*
X12156777Y-13164150D01*
X12156777Y-13164150D02*
X12175824Y-13173674D01*
X12175824Y-13173674D02*
X12185348Y-13192722D01*
X12185348Y-13192722D02*
X12185348Y-13297484D01*
X12280586Y-13297484D02*
X12280586Y-13164150D01*
X12280586Y-13183198D02*
X12290110Y-13173674D01*
X12290110Y-13173674D02*
X12309158Y-13164150D01*
X12309158Y-13164150D02*
X12337729Y-13164150D01*
X12337729Y-13164150D02*
X12356777Y-13173674D01*
X12356777Y-13173674D02*
X12366301Y-13192722D01*
X12366301Y-13192722D02*
X12366301Y-13297484D01*
X12366301Y-13192722D02*
X12375824Y-13173674D01*
X12375824Y-13173674D02*
X12394872Y-13164150D01*
X12394872Y-13164150D02*
X12423443Y-13164150D01*
X12423443Y-13164150D02*
X12442491Y-13173674D01*
X12442491Y-13173674D02*
X12452015Y-13192722D01*
X12452015Y-13192722D02*
X12452015Y-13297484D01*
X12842491Y-13087960D02*
X12671063Y-13345103D01*
X13099634Y-13097484D02*
X13118682Y-13097484D01*
X13118682Y-13097484D02*
X13137729Y-13107008D01*
X13137729Y-13107008D02*
X13147253Y-13116531D01*
X13147253Y-13116531D02*
X13156777Y-13135579D01*
X13156777Y-13135579D02*
X13166301Y-13173674D01*
X13166301Y-13173674D02*
X13166301Y-13221293D01*
X13166301Y-13221293D02*
X13156777Y-13259388D01*
X13156777Y-13259388D02*
X13147253Y-13278436D01*
X13147253Y-13278436D02*
X13137729Y-13287960D01*
X13137729Y-13287960D02*
X13118682Y-13297484D01*
X13118682Y-13297484D02*
X13099634Y-13297484D01*
X13099634Y-13297484D02*
X13080586Y-13287960D01*
X13080586Y-13287960D02*
X13071063Y-13278436D01*
X13071063Y-13278436D02*
X13061539Y-13259388D01*
X13061539Y-13259388D02*
X13052015Y-13221293D01*
X13052015Y-13221293D02*
X13052015Y-13173674D01*
X13052015Y-13173674D02*
X13061539Y-13135579D01*
X13061539Y-13135579D02*
X13071063Y-13116531D01*
X13071063Y-13116531D02*
X13080586Y-13107008D01*
X13080586Y-13107008D02*
X13099634Y-13097484D01*
X13252015Y-13278436D02*
X13261539Y-13287960D01*
X13261539Y-13287960D02*
X13252015Y-13297484D01*
X13252015Y-13297484D02*
X13242491Y-13287960D01*
X13242491Y-13287960D02*
X13252015Y-13278436D01*
X13252015Y-13278436D02*
X13252015Y-13297484D01*
X13385348Y-13097484D02*
X13404396Y-13097484D01*
X13404396Y-13097484D02*
X13423444Y-13107008D01*
X13423444Y-13107008D02*
X13432967Y-13116531D01*
X13432967Y-13116531D02*
X13442491Y-13135579D01*
X13442491Y-13135579D02*
X13452015Y-13173674D01*
X13452015Y-13173674D02*
X13452015Y-13221293D01*
X13452015Y-13221293D02*
X13442491Y-13259388D01*
X13442491Y-13259388D02*
X13432967Y-13278436D01*
X13432967Y-13278436D02*
X13423444Y-13287960D01*
X13423444Y-13287960D02*
X13404396Y-13297484D01*
X13404396Y-13297484D02*
X13385348Y-13297484D01*
X13385348Y-13297484D02*
X13366301Y-13287960D01*
X13366301Y-13287960D02*
X13356777Y-13278436D01*
X13356777Y-13278436D02*
X13347253Y-13259388D01*
X13347253Y-13259388D02*
X13337729Y-13221293D01*
X13337729Y-13221293D02*
X13337729Y-13173674D01*
X13337729Y-13173674D02*
X13347253Y-13135579D01*
X13347253Y-13135579D02*
X13356777Y-13116531D01*
X13356777Y-13116531D02*
X13366301Y-13107008D01*
X13366301Y-13107008D02*
X13385348Y-13097484D01*
X13632967Y-13097484D02*
X13537729Y-13097484D01*
X13537729Y-13097484D02*
X13528206Y-13192722D01*
X13528206Y-13192722D02*
X13537729Y-13183198D01*
X13537729Y-13183198D02*
X13556777Y-13173674D01*
X13556777Y-13173674D02*
X13604396Y-13173674D01*
X13604396Y-13173674D02*
X13623444Y-13183198D01*
X13623444Y-13183198D02*
X13632967Y-13192722D01*
X13632967Y-13192722D02*
X13642491Y-13211769D01*
X13642491Y-13211769D02*
X13642491Y-13259388D01*
X13642491Y-13259388D02*
X13632967Y-13278436D01*
X13632967Y-13278436D02*
X13623444Y-13287960D01*
X13623444Y-13287960D02*
X13604396Y-13297484D01*
X13604396Y-13297484D02*
X13556777Y-13297484D01*
X13556777Y-13297484D02*
X13537729Y-13287960D01*
X13537729Y-13287960D02*
X13528206Y-13278436D01*
X13832967Y-13297484D02*
X13718682Y-13297484D01*
X13775825Y-13297484D02*
X13775825Y-13097484D01*
X13775825Y-13097484D02*
X13756777Y-13126055D01*
X13756777Y-13126055D02*
X13737729Y-13145103D01*
X13737729Y-13145103D02*
X13718682Y-13154627D01*
X13909158Y-13116531D02*
X13918682Y-13107008D01*
X13918682Y-13107008D02*
X13937729Y-13097484D01*
X13937729Y-13097484D02*
X13985348Y-13097484D01*
X13985348Y-13097484D02*
X14004396Y-13107008D01*
X14004396Y-13107008D02*
X14013920Y-13116531D01*
X14013920Y-13116531D02*
X14023444Y-13135579D01*
X14023444Y-13135579D02*
X14023444Y-13154627D01*
X14023444Y-13154627D02*
X14013920Y-13183198D01*
X14013920Y-13183198D02*
X13899634Y-13297484D01*
X13899634Y-13297484D02*
X14023444Y-13297484D01*
X14099634Y-13097484D02*
X14099634Y-13135579D01*
X14175825Y-13097484D02*
X14175825Y-13135579D01*
X14471063Y-13373674D02*
X14461539Y-13364150D01*
X14461539Y-13364150D02*
X14442491Y-13335579D01*
X14442491Y-13335579D02*
X14432968Y-13316531D01*
X14432968Y-13316531D02*
X14423444Y-13287960D01*
X14423444Y-13287960D02*
X14413920Y-13240341D01*
X14413920Y-13240341D02*
X14413920Y-13202246D01*
X14413920Y-13202246D02*
X14423444Y-13154627D01*
X14423444Y-13154627D02*
X14432968Y-13126055D01*
X14432968Y-13126055D02*
X14442491Y-13107008D01*
X14442491Y-13107008D02*
X14461539Y-13078436D01*
X14461539Y-13078436D02*
X14471063Y-13068912D01*
X14632968Y-13164150D02*
X14632968Y-13297484D01*
X14585348Y-13087960D02*
X14537729Y-13230817D01*
X14537729Y-13230817D02*
X14661539Y-13230817D01*
X14890110Y-13297484D02*
X14890110Y-13097484D01*
X14975825Y-13297484D02*
X14975825Y-13192722D01*
X14975825Y-13192722D02*
X14966301Y-13173674D01*
X14966301Y-13173674D02*
X14947253Y-13164150D01*
X14947253Y-13164150D02*
X14918682Y-13164150D01*
X14918682Y-13164150D02*
X14899634Y-13173674D01*
X14899634Y-13173674D02*
X14890110Y-13183198D01*
X15099634Y-13297484D02*
X15080587Y-13287960D01*
X15080587Y-13287960D02*
X15071063Y-13278436D01*
X15071063Y-13278436D02*
X15061539Y-13259388D01*
X15061539Y-13259388D02*
X15061539Y-13202246D01*
X15061539Y-13202246D02*
X15071063Y-13183198D01*
X15071063Y-13183198D02*
X15080587Y-13173674D01*
X15080587Y-13173674D02*
X15099634Y-13164150D01*
X15099634Y-13164150D02*
X15128206Y-13164150D01*
X15128206Y-13164150D02*
X15147253Y-13173674D01*
X15147253Y-13173674D02*
X15156777Y-13183198D01*
X15156777Y-13183198D02*
X15166301Y-13202246D01*
X15166301Y-13202246D02*
X15166301Y-13259388D01*
X15166301Y-13259388D02*
X15156777Y-13278436D01*
X15156777Y-13278436D02*
X15147253Y-13287960D01*
X15147253Y-13287960D02*
X15128206Y-13297484D01*
X15128206Y-13297484D02*
X15099634Y-13297484D01*
X15280587Y-13297484D02*
X15261539Y-13287960D01*
X15261539Y-13287960D02*
X15252015Y-13268912D01*
X15252015Y-13268912D02*
X15252015Y-13097484D01*
X15432968Y-13287960D02*
X15413920Y-13297484D01*
X15413920Y-13297484D02*
X15375825Y-13297484D01*
X15375825Y-13297484D02*
X15356777Y-13287960D01*
X15356777Y-13287960D02*
X15347253Y-13268912D01*
X15347253Y-13268912D02*
X15347253Y-13192722D01*
X15347253Y-13192722D02*
X15356777Y-13173674D01*
X15356777Y-13173674D02*
X15375825Y-13164150D01*
X15375825Y-13164150D02*
X15413920Y-13164150D01*
X15413920Y-13164150D02*
X15432968Y-13173674D01*
X15432968Y-13173674D02*
X15442491Y-13192722D01*
X15442491Y-13192722D02*
X15442491Y-13211769D01*
X15442491Y-13211769D02*
X15347253Y-13230817D01*
X15518682Y-13287960D02*
X15537730Y-13297484D01*
X15537730Y-13297484D02*
X15575825Y-13297484D01*
X15575825Y-13297484D02*
X15594872Y-13287960D01*
X15594872Y-13287960D02*
X15604396Y-13268912D01*
X15604396Y-13268912D02*
X15604396Y-13259388D01*
X15604396Y-13259388D02*
X15594872Y-13240341D01*
X15594872Y-13240341D02*
X15575825Y-13230817D01*
X15575825Y-13230817D02*
X15547253Y-13230817D01*
X15547253Y-13230817D02*
X15528206Y-13221293D01*
X15528206Y-13221293D02*
X15518682Y-13202246D01*
X15518682Y-13202246D02*
X15518682Y-13192722D01*
X15518682Y-13192722D02*
X15528206Y-13173674D01*
X15528206Y-13173674D02*
X15547253Y-13164150D01*
X15547253Y-13164150D02*
X15575825Y-13164150D01*
X15575825Y-13164150D02*
X15594872Y-13173674D01*
X15671063Y-13373674D02*
X15680587Y-13364150D01*
X15680587Y-13364150D02*
X15699634Y-13335579D01*
X15699634Y-13335579D02*
X15709158Y-13316531D01*
X15709158Y-13316531D02*
X15718682Y-13287960D01*
X15718682Y-13287960D02*
X15728206Y-13240341D01*
X15728206Y-13240341D02*
X15728206Y-13202246D01*
X15728206Y-13202246D02*
X15718682Y-13154627D01*
X15718682Y-13154627D02*
X15709158Y-13126055D01*
X15709158Y-13126055D02*
X15699634Y-13107008D01*
X15699634Y-13107008D02*
X15680587Y-13078436D01*
X15680587Y-13078436D02*
X15671063Y-13068912D01*
X10696000Y-13370000D02*
X10896000Y-13570000D01*
X10896000Y-13370000D02*
X10696000Y-13570000D01*
X10896000Y-13470000D02*
G75*
G02*
X10696000Y-13470000I-100000J0D01*
G01*
X10696000Y-13470000D02*
G75*
G02*
X10896000Y-13470000I100000J0D01*
G01*
X11137729Y-13361484D02*
X11261539Y-13361484D01*
X11261539Y-13361484D02*
X11194872Y-13437674D01*
X11194872Y-13437674D02*
X11223443Y-13437674D01*
X11223443Y-13437674D02*
X11242491Y-13447198D01*
X11242491Y-13447198D02*
X11252015Y-13456722D01*
X11252015Y-13456722D02*
X11261539Y-13475769D01*
X11261539Y-13475769D02*
X11261539Y-13523388D01*
X11261539Y-13523388D02*
X11252015Y-13542436D01*
X11252015Y-13542436D02*
X11242491Y-13551960D01*
X11242491Y-13551960D02*
X11223443Y-13561484D01*
X11223443Y-13561484D02*
X11166301Y-13561484D01*
X11166301Y-13561484D02*
X11147253Y-13551960D01*
X11147253Y-13551960D02*
X11137729Y-13542436D01*
X11347253Y-13542436D02*
X11356777Y-13551960D01*
X11356777Y-13551960D02*
X11347253Y-13561484D01*
X11347253Y-13561484D02*
X11337729Y-13551960D01*
X11337729Y-13551960D02*
X11347253Y-13542436D01*
X11347253Y-13542436D02*
X11347253Y-13561484D01*
X11432967Y-13380531D02*
X11442491Y-13371008D01*
X11442491Y-13371008D02*
X11461539Y-13361484D01*
X11461539Y-13361484D02*
X11509158Y-13361484D01*
X11509158Y-13361484D02*
X11528205Y-13371008D01*
X11528205Y-13371008D02*
X11537729Y-13380531D01*
X11537729Y-13380531D02*
X11547253Y-13399579D01*
X11547253Y-13399579D02*
X11547253Y-13418627D01*
X11547253Y-13418627D02*
X11537729Y-13447198D01*
X11537729Y-13447198D02*
X11423443Y-13561484D01*
X11423443Y-13561484D02*
X11547253Y-13561484D01*
X11671062Y-13361484D02*
X11690110Y-13361484D01*
X11690110Y-13361484D02*
X11709158Y-13371008D01*
X11709158Y-13371008D02*
X11718682Y-13380531D01*
X11718682Y-13380531D02*
X11728205Y-13399579D01*
X11728205Y-13399579D02*
X11737729Y-13437674D01*
X11737729Y-13437674D02*
X11737729Y-13485293D01*
X11737729Y-13485293D02*
X11728205Y-13523388D01*
X11728205Y-13523388D02*
X11718682Y-13542436D01*
X11718682Y-13542436D02*
X11709158Y-13551960D01*
X11709158Y-13551960D02*
X11690110Y-13561484D01*
X11690110Y-13561484D02*
X11671062Y-13561484D01*
X11671062Y-13561484D02*
X11652015Y-13551960D01*
X11652015Y-13551960D02*
X11642491Y-13542436D01*
X11642491Y-13542436D02*
X11632967Y-13523388D01*
X11632967Y-13523388D02*
X11623443Y-13485293D01*
X11623443Y-13485293D02*
X11623443Y-13437674D01*
X11623443Y-13437674D02*
X11632967Y-13399579D01*
X11632967Y-13399579D02*
X11642491Y-13380531D01*
X11642491Y-13380531D02*
X11652015Y-13371008D01*
X11652015Y-13371008D02*
X11671062Y-13361484D01*
X11861539Y-13361484D02*
X11880586Y-13361484D01*
X11880586Y-13361484D02*
X11899634Y-13371008D01*
X11899634Y-13371008D02*
X11909158Y-13380531D01*
X11909158Y-13380531D02*
X11918682Y-13399579D01*
X11918682Y-13399579D02*
X11928205Y-13437674D01*
X11928205Y-13437674D02*
X11928205Y-13485293D01*
X11928205Y-13485293D02*
X11918682Y-13523388D01*
X11918682Y-13523388D02*
X11909158Y-13542436D01*
X11909158Y-13542436D02*
X11899634Y-13551960D01*
X11899634Y-13551960D02*
X11880586Y-13561484D01*
X11880586Y-13561484D02*
X11861539Y-13561484D01*
X11861539Y-13561484D02*
X11842491Y-13551960D01*
X11842491Y-13551960D02*
X11832967Y-13542436D01*
X11832967Y-13542436D02*
X11823443Y-13523388D01*
X11823443Y-13523388D02*
X11813920Y-13485293D01*
X11813920Y-13485293D02*
X11813920Y-13437674D01*
X11813920Y-13437674D02*
X11823443Y-13399579D01*
X11823443Y-13399579D02*
X11832967Y-13380531D01*
X11832967Y-13380531D02*
X11842491Y-13371008D01*
X11842491Y-13371008D02*
X11861539Y-13361484D01*
X12013920Y-13561484D02*
X12013920Y-13428150D01*
X12013920Y-13447198D02*
X12023443Y-13437674D01*
X12023443Y-13437674D02*
X12042491Y-13428150D01*
X12042491Y-13428150D02*
X12071063Y-13428150D01*
X12071063Y-13428150D02*
X12090110Y-13437674D01*
X12090110Y-13437674D02*
X12099634Y-13456722D01*
X12099634Y-13456722D02*
X12099634Y-13561484D01*
X12099634Y-13456722D02*
X12109158Y-13437674D01*
X12109158Y-13437674D02*
X12128205Y-13428150D01*
X12128205Y-13428150D02*
X12156777Y-13428150D01*
X12156777Y-13428150D02*
X12175824Y-13437674D01*
X12175824Y-13437674D02*
X12185348Y-13456722D01*
X12185348Y-13456722D02*
X12185348Y-13561484D01*
X12280586Y-13561484D02*
X12280586Y-13428150D01*
X12280586Y-13447198D02*
X12290110Y-13437674D01*
X12290110Y-13437674D02*
X12309158Y-13428150D01*
X12309158Y-13428150D02*
X12337729Y-13428150D01*
X12337729Y-13428150D02*
X12356777Y-13437674D01*
X12356777Y-13437674D02*
X12366301Y-13456722D01*
X12366301Y-13456722D02*
X12366301Y-13561484D01*
X12366301Y-13456722D02*
X12375824Y-13437674D01*
X12375824Y-13437674D02*
X12394872Y-13428150D01*
X12394872Y-13428150D02*
X12423443Y-13428150D01*
X12423443Y-13428150D02*
X12442491Y-13437674D01*
X12442491Y-13437674D02*
X12452015Y-13456722D01*
X12452015Y-13456722D02*
X12452015Y-13561484D01*
X12842491Y-13351960D02*
X12671063Y-13609103D01*
X13099634Y-13361484D02*
X13118682Y-13361484D01*
X13118682Y-13361484D02*
X13137729Y-13371008D01*
X13137729Y-13371008D02*
X13147253Y-13380531D01*
X13147253Y-13380531D02*
X13156777Y-13399579D01*
X13156777Y-13399579D02*
X13166301Y-13437674D01*
X13166301Y-13437674D02*
X13166301Y-13485293D01*
X13166301Y-13485293D02*
X13156777Y-13523388D01*
X13156777Y-13523388D02*
X13147253Y-13542436D01*
X13147253Y-13542436D02*
X13137729Y-13551960D01*
X13137729Y-13551960D02*
X13118682Y-13561484D01*
X13118682Y-13561484D02*
X13099634Y-13561484D01*
X13099634Y-13561484D02*
X13080586Y-13551960D01*
X13080586Y-13551960D02*
X13071063Y-13542436D01*
X13071063Y-13542436D02*
X13061539Y-13523388D01*
X13061539Y-13523388D02*
X13052015Y-13485293D01*
X13052015Y-13485293D02*
X13052015Y-13437674D01*
X13052015Y-13437674D02*
X13061539Y-13399579D01*
X13061539Y-13399579D02*
X13071063Y-13380531D01*
X13071063Y-13380531D02*
X13080586Y-13371008D01*
X13080586Y-13371008D02*
X13099634Y-13361484D01*
X13252015Y-13542436D02*
X13261539Y-13551960D01*
X13261539Y-13551960D02*
X13252015Y-13561484D01*
X13252015Y-13561484D02*
X13242491Y-13551960D01*
X13242491Y-13551960D02*
X13252015Y-13542436D01*
X13252015Y-13542436D02*
X13252015Y-13561484D01*
X13452015Y-13561484D02*
X13337729Y-13561484D01*
X13394872Y-13561484D02*
X13394872Y-13361484D01*
X13394872Y-13361484D02*
X13375825Y-13390055D01*
X13375825Y-13390055D02*
X13356777Y-13409103D01*
X13356777Y-13409103D02*
X13337729Y-13418627D01*
X13528206Y-13380531D02*
X13537729Y-13371008D01*
X13537729Y-13371008D02*
X13556777Y-13361484D01*
X13556777Y-13361484D02*
X13604396Y-13361484D01*
X13604396Y-13361484D02*
X13623444Y-13371008D01*
X13623444Y-13371008D02*
X13632967Y-13380531D01*
X13632967Y-13380531D02*
X13642491Y-13399579D01*
X13642491Y-13399579D02*
X13642491Y-13418627D01*
X13642491Y-13418627D02*
X13632967Y-13447198D01*
X13632967Y-13447198D02*
X13518682Y-13561484D01*
X13518682Y-13561484D02*
X13642491Y-13561484D01*
X13813920Y-13361484D02*
X13775825Y-13361484D01*
X13775825Y-13361484D02*
X13756777Y-13371008D01*
X13756777Y-13371008D02*
X13747253Y-13380531D01*
X13747253Y-13380531D02*
X13728206Y-13409103D01*
X13728206Y-13409103D02*
X13718682Y-13447198D01*
X13718682Y-13447198D02*
X13718682Y-13523388D01*
X13718682Y-13523388D02*
X13728206Y-13542436D01*
X13728206Y-13542436D02*
X13737729Y-13551960D01*
X13737729Y-13551960D02*
X13756777Y-13561484D01*
X13756777Y-13561484D02*
X13794872Y-13561484D01*
X13794872Y-13561484D02*
X13813920Y-13551960D01*
X13813920Y-13551960D02*
X13823444Y-13542436D01*
X13823444Y-13542436D02*
X13832967Y-13523388D01*
X13832967Y-13523388D02*
X13832967Y-13475769D01*
X13832967Y-13475769D02*
X13823444Y-13456722D01*
X13823444Y-13456722D02*
X13813920Y-13447198D01*
X13813920Y-13447198D02*
X13794872Y-13437674D01*
X13794872Y-13437674D02*
X13756777Y-13437674D01*
X13756777Y-13437674D02*
X13737729Y-13447198D01*
X13737729Y-13447198D02*
X13728206Y-13456722D01*
X13728206Y-13456722D02*
X13718682Y-13475769D01*
X13956777Y-13361484D02*
X13975825Y-13361484D01*
X13975825Y-13361484D02*
X13994872Y-13371008D01*
X13994872Y-13371008D02*
X14004396Y-13380531D01*
X14004396Y-13380531D02*
X14013920Y-13399579D01*
X14013920Y-13399579D02*
X14023444Y-13437674D01*
X14023444Y-13437674D02*
X14023444Y-13485293D01*
X14023444Y-13485293D02*
X14013920Y-13523388D01*
X14013920Y-13523388D02*
X14004396Y-13542436D01*
X14004396Y-13542436D02*
X13994872Y-13551960D01*
X13994872Y-13551960D02*
X13975825Y-13561484D01*
X13975825Y-13561484D02*
X13956777Y-13561484D01*
X13956777Y-13561484D02*
X13937729Y-13551960D01*
X13937729Y-13551960D02*
X13928206Y-13542436D01*
X13928206Y-13542436D02*
X13918682Y-13523388D01*
X13918682Y-13523388D02*
X13909158Y-13485293D01*
X13909158Y-13485293D02*
X13909158Y-13437674D01*
X13909158Y-13437674D02*
X13918682Y-13399579D01*
X13918682Y-13399579D02*
X13928206Y-13380531D01*
X13928206Y-13380531D02*
X13937729Y-13371008D01*
X13937729Y-13371008D02*
X13956777Y-13361484D01*
X14099634Y-13361484D02*
X14099634Y-13399579D01*
X14175825Y-13361484D02*
X14175825Y-13399579D01*
X14471063Y-13637674D02*
X14461539Y-13628150D01*
X14461539Y-13628150D02*
X14442491Y-13599579D01*
X14442491Y-13599579D02*
X14432968Y-13580531D01*
X14432968Y-13580531D02*
X14423444Y-13551960D01*
X14423444Y-13551960D02*
X14413920Y-13504341D01*
X14413920Y-13504341D02*
X14413920Y-13466246D01*
X14413920Y-13466246D02*
X14423444Y-13418627D01*
X14423444Y-13418627D02*
X14432968Y-13390055D01*
X14432968Y-13390055D02*
X14442491Y-13371008D01*
X14442491Y-13371008D02*
X14461539Y-13342436D01*
X14461539Y-13342436D02*
X14471063Y-13332912D01*
X14632968Y-13428150D02*
X14632968Y-13561484D01*
X14585348Y-13351960D02*
X14537729Y-13494817D01*
X14537729Y-13494817D02*
X14661539Y-13494817D01*
X14890110Y-13561484D02*
X14890110Y-13361484D01*
X14975825Y-13561484D02*
X14975825Y-13456722D01*
X14975825Y-13456722D02*
X14966301Y-13437674D01*
X14966301Y-13437674D02*
X14947253Y-13428150D01*
X14947253Y-13428150D02*
X14918682Y-13428150D01*
X14918682Y-13428150D02*
X14899634Y-13437674D01*
X14899634Y-13437674D02*
X14890110Y-13447198D01*
X15099634Y-13561484D02*
X15080587Y-13551960D01*
X15080587Y-13551960D02*
X15071063Y-13542436D01*
X15071063Y-13542436D02*
X15061539Y-13523388D01*
X15061539Y-13523388D02*
X15061539Y-13466246D01*
X15061539Y-13466246D02*
X15071063Y-13447198D01*
X15071063Y-13447198D02*
X15080587Y-13437674D01*
X15080587Y-13437674D02*
X15099634Y-13428150D01*
X15099634Y-13428150D02*
X15128206Y-13428150D01*
X15128206Y-13428150D02*
X15147253Y-13437674D01*
X15147253Y-13437674D02*
X15156777Y-13447198D01*
X15156777Y-13447198D02*
X15166301Y-13466246D01*
X15166301Y-13466246D02*
X15166301Y-13523388D01*
X15166301Y-13523388D02*
X15156777Y-13542436D01*
X15156777Y-13542436D02*
X15147253Y-13551960D01*
X15147253Y-13551960D02*
X15128206Y-13561484D01*
X15128206Y-13561484D02*
X15099634Y-13561484D01*
X15280587Y-13561484D02*
X15261539Y-13551960D01*
X15261539Y-13551960D02*
X15252015Y-13532912D01*
X15252015Y-13532912D02*
X15252015Y-13361484D01*
X15432968Y-13551960D02*
X15413920Y-13561484D01*
X15413920Y-13561484D02*
X15375825Y-13561484D01*
X15375825Y-13561484D02*
X15356777Y-13551960D01*
X15356777Y-13551960D02*
X15347253Y-13532912D01*
X15347253Y-13532912D02*
X15347253Y-13456722D01*
X15347253Y-13456722D02*
X15356777Y-13437674D01*
X15356777Y-13437674D02*
X15375825Y-13428150D01*
X15375825Y-13428150D02*
X15413920Y-13428150D01*
X15413920Y-13428150D02*
X15432968Y-13437674D01*
X15432968Y-13437674D02*
X15442491Y-13456722D01*
X15442491Y-13456722D02*
X15442491Y-13475769D01*
X15442491Y-13475769D02*
X15347253Y-13494817D01*
X15518682Y-13551960D02*
X15537730Y-13561484D01*
X15537730Y-13561484D02*
X15575825Y-13561484D01*
X15575825Y-13561484D02*
X15594872Y-13551960D01*
X15594872Y-13551960D02*
X15604396Y-13532912D01*
X15604396Y-13532912D02*
X15604396Y-13523388D01*
X15604396Y-13523388D02*
X15594872Y-13504341D01*
X15594872Y-13504341D02*
X15575825Y-13494817D01*
X15575825Y-13494817D02*
X15547253Y-13494817D01*
X15547253Y-13494817D02*
X15528206Y-13485293D01*
X15528206Y-13485293D02*
X15518682Y-13466246D01*
X15518682Y-13466246D02*
X15518682Y-13456722D01*
X15518682Y-13456722D02*
X15528206Y-13437674D01*
X15528206Y-13437674D02*
X15547253Y-13428150D01*
X15547253Y-13428150D02*
X15575825Y-13428150D01*
X15575825Y-13428150D02*
X15594872Y-13437674D01*
X15671063Y-13637674D02*
X15680587Y-13628150D01*
X15680587Y-13628150D02*
X15699634Y-13599579D01*
X15699634Y-13599579D02*
X15709158Y-13580531D01*
X15709158Y-13580531D02*
X15718682Y-13551960D01*
X15718682Y-13551960D02*
X15728206Y-13504341D01*
X15728206Y-13504341D02*
X15728206Y-13466246D01*
X15728206Y-13466246D02*
X15718682Y-13418627D01*
X15718682Y-13418627D02*
X15709158Y-13390055D01*
X15709158Y-13390055D02*
X15699634Y-13371008D01*
X15699634Y-13371008D02*
X15680587Y-13342436D01*
X15680587Y-13342436D02*
X15671063Y-13332912D01*
M02*
